<svg xmlns="http://www.w3.org/2000/svg" xmlns:xlink="http://www.w3.org/1999/xlink" viewBox="0 0 128 74.6517">
  <defs>
    <style>
      .a {
        fill: none;
      }

      .b {
        clip-path: url(#a);
      }

      .c {
        fill: #1a0095;
      }

      .d {
        fill: #ba0019;
      }

      .e {
        fill: #fff;
      }
    </style>
    <clipPath id="a">
      <rect class="a" width="128" height="74.6517"/>
    </clipPath>
  </defs>
  <g class="b">
    <rect class="c" width="128" height="74.6517"/>
    <rect class="d" y="18.66655" width="128" height="37.3186"/>
    <rect class="e" x="40.26437" y="37.25873" width="47.46745" height="7.67256"/>
    <path class="d" d="M87.82877,45.02053H40.26437l-.09306-7.7618,47.56051-.10412.097,7.86592Zm-.18619-7.7618-47.37821.07475.09687,7.59781,47.28134-.1045V37.25873Z"/>
    <polygon class="e" points="40.235 44.931 39.464 46.734 88.529 46.734 87.762 44.931 40.235 44.931"/>
    <path class="d" d="M88.68145,46.83818H39.322l.8234-1.95189,47.61619-.0595.91988,2.01139Zm-49.07992-.20861H88.39122L87.68338,44.961l-47.44876.05949-.63309,1.609Z"/>
    <polygon class="e" points="77.732 44.931 76.801 46.734 87.963 46.734 87.028 44.931 77.732 44.931"/>
    <path class="d" d="M88.11549,46.83818H76.64058l1.00921-1.96677,9.37808-.04462,1.08762,2.01139Zm-11.16561-.20861H87.80276l-.857-1.65366-9.21409.04462-.78183,1.609Z"/>
    <polygon class="e" points="80.417 44.931 79.948 46.734 85.572 46.734 85.102 44.931 80.417 44.931"/>
    <path class="d" d="M85.6945,46.83818H79.94789l.376-1.93664,4.77829-.07475.59228,2.01139Zm-.68152-1.892-4.596.07437-.376,1.728,5.41511-.10412L85.013,44.94616Z"/>
    <polygon class="e" points="81.251 44.931 80.95 46.734 84.577 46.734 84.279 44.931 81.251 44.931"/>
    <path class="d" d="M84.69643,46.83818H80.94977l.20869-1.92176,3.12074-.08963.41723,2.01139Zm-.5141-1.892-2.93089.07437-.2048,1.71315,3.42249-.08924-.2868-1.69828Z"/>
    <polygon class="e" points="59.11 44.931 58.134 46.734 69.862 46.734 68.89 44.931 59.11 44.931"/>
    <path class="d" d="M70.026,46.83818H57.97747l1.04688-1.96677,9.86587-.04462L70.026,46.83818Zm-11.73927-.20861H69.7095l-.9089-1.65366-9.69082.04462-.823,1.609Z"/>
    <rect class="e" x="40.00396" y="37.13974" width="47.99978" height="1.80277"/>
    <path class="d" d="M88.10061,39.04663H40.004L39.907,37.13974l48.09672-.08925.09687,1.99614Zm-.19374-1.90689L40.004,37.24385l.093,1.69866,47.80993-.08962V37.13974Z"/>
    <rect class="e" x="77.65741" y="37.27398" width="9.40394" height="7.64243"/>
    <path class="d" d="M87.15823,45.00566H77.65741L77.56047,37.274l9.50089-.08962.09687,7.8213ZM86.97211,37.274l-9.3147.08924.093,7.5532,9.22172-.1045V37.274Z"/>
    <rect class="e" x="84.38713" y="40.8494" width="0.9462" height="4.06702"/>
    <path class="d" d="M85.41914,45.00566h-1.032l-.09305-4.15626,1.03925-.08962.08581,4.24588Zm-.18649-4.15626-.84552.10412.097,3.9629.74857-.08963V40.8494Z"/>
    <rect class="e" x="80.24575" y="40.8494" width="0.94239" height="4.06702"/>
    <path class="d" d="M81.285,45.00566H80.24575l-.09306-4.15626,1.03545-.08962.09687,4.24588Zm-.19374-4.15626-.84552.10412.09687,3.9629.74865-.08963V40.8494Z"/>
    <polygon class="e" points="61.512 44.931 61.02 46.734 66.912 46.734 66.421 44.931 61.512 44.931"/>
    <path class="d" d="M67.039,46.83818H61.02048l.40236-1.93664,4.998-.07475.61821,2.01139Zm-.70364-1.892-4.82329.07437-.40235,1.728,5.68711-.10412-.46147-1.69828Z"/>
    <polygon class="e" points="62.454 44.931 62.153 46.734 65.851 46.734 65.538 44.931 62.454 44.931"/>
    <path class="d" d="M65.96276,46.83818h-3.81l.21586-1.93664,3.16963-.07475.42447,2.01139Zm-.5141-1.892-2.99419.07437-.20854,1.728,3.48961-.10412-.28688-1.69828Z"/>
    <rect class="e" x="58.99804" y="37.25873" width="9.90706" height="7.67256"/>
    <path class="d" d="M68.99815,45.02053H58.998l-.0968-7.7618,10.00385-.10412.09306,7.86592Zm-.18268-7.7618-9.81743.07475.08962,7.59781,9.72781-.1045V37.25873Z"/>
    <rect class="e" x="66.89027" y="40.8494" width="0.942" height="4.06702"/>
    <path class="d" d="M67.92915,45.00566H66.89027l-.09343-4.15626,1.03544-.08962.09687,4.24588ZM67.743,40.8494l-.85276.10412.09649,3.9629.75627-.1045V40.8494Z"/>
    <rect class="e" x="60.34621" y="40.8494" width="0.94246" height="4.06702"/>
    <path class="d" d="M61.38546,45.00566H60.34621l-.09306-4.15626,1.03552-.08962.09679,4.24588Zm-.19374-4.15626-.84551.10412.08962,3.9629.75589-.1045V40.8494Z"/>
    <rect class="e" x="61.59789" y="35.39684" width="4.80422" height="9.53445"/>
    <path class="d" d="M66.49517,45.02053H61.59789l-.09344-9.62369,4.89766-.08962.09306,9.71331Zm-.18993-9.62369-4.70735.10412.09687,9.43033,4.61048-.1045v-9.43Z"/>
    <rect class="e" x="65.19543" y="40.8494" width="0.94963" height="4.06702"/>
    <path class="d" d="M66.23087,45.00566H65.19543l-.093-4.15626,1.04261-.08962.08581,4.24588Zm-.1823-4.15626-.85314.10412.09687,3.9629.75627-.1045V40.8494Z"/>
    <rect class="e" x="62.04105" y="40.8494" width="0.942" height="4.06702"/>
    <path class="d" d="M63.07649,45.00566H62.04105l-.093-4.15626,1.03506-.08962.09343,4.24588Zm-.18985-4.15626-.84559.10412.09687,3.9629.74872-.1045V40.8494Z"/>
    <polygon class="e" points="61.914 36.931 63.94 39.851 66.089 36.931 61.914 36.931"/>
    <path class="d" d="M63.94031,40.015l-2.20474-3.17307h4.53611L63.94031,40.015Zm-1.85075-2.99458,1.85075,2.68185,1.95922-2.68185Z"/>
    <rect class="e" x="81.38912" y="37.25873" width="2.6666" height="9.47496"/>
    <path class="d" d="M84.15259,46.83818H81.38912l-.08924-9.57945,2.75584-.10412.09687,9.68357Zm-.1823-9.57945-2.58117.07475.09306,9.4002,2.48811-.08924V37.25873Z"/>
    <rect class="e" x="81.83228" y="37.25873" width="1.77303" height="9.47496"/>
    <path class="d" d="M83.70226,46.83818h-1.87L81.743,37.25873l1.86227-.10412.09695,9.68357Zm-.18276-9.57945-1.68722.07475.09306,9.4002,1.59416-.08924V37.25873Z"/>
    <polygon class="e" points="40.875 44.931 39.941 46.734 51.102 46.734 50.168 44.931 40.875 44.931"/>
    <path class="d" d="M51.25873,46.83818H39.78383l1.002-1.96677,9.3819-.04462,1.091,2.01139Zm-11.16942-.20861H50.946l-.85657-1.65366-9.2141.04462-.786,1.609Z"/>
    <polygon class="e" points="43.103 44.931 42.667 46.734 47.911 46.734 47.475 44.931 43.103 44.931"/>
    <path class="d" d="M48.03342,46.83818H42.66667l.34636-1.93664,4.46167-.07475.55872,2.01139Zm-.648-1.892-4.28288.07437-.34667,1.728,5.03915-.10412-.4096-1.69828Z"/>
    <polygon class="e" points="43.884 44.931 43.605 46.734 46.95 46.734 46.674 44.931 43.884 44.931"/>
    <path class="d" d="M47.06129,46.83818h-3.456l.18611-1.92176,2.88291-.08963.387,2.01139Zm-.484-1.892-2.69291.07437-.18993,1.71315,3.14713-.08924-.26429-1.69828Z"/>
    <rect class="e" x="40.79723" y="37.25873" width="9.33682" height="7.67256"/>
    <path class="d" d="M50.23092,45.02053H40.79723l-.09695-7.7618,9.43377-.10412.09687,7.86592Zm-.18993-7.7618-9.24376.07475.09679,7.59781,9.147-.1045V37.25873Z"/>
    <rect class="e" x="42.61823" y="40.8494" width="0.94239" height="4.06702"/>
    <path class="d" d="M43.65375,45.00566H42.61823l-.093-4.15626,1.03544-.08962.09313,4.24588Zm-.19-4.15626-.84552.10412.09687,3.9629.74865-.08963V40.8494Z"/>
    <rect class="e" x="46.94611" y="40.8494" width="0.94582" height="4.06702"/>
    <path class="d" d="M47.98155,45.00566H46.94611l-.09687-4.15626,1.04269-.08962.08962,4.24588Zm-.18649-4.15626-.849.10412.09306,3.9629.75589-.08963V40.8494Z"/>
    <rect class="e" x="44.00378" y="37.25873" width="2.66286" height="9.47496"/>
    <path class="d" d="M46.76343,46.83818H44.00378l-.09687-9.57945,2.75972-.10412.0968,9.68357Zm-.19374-9.57945-2.56591.07475.093,9.4002,2.47286-.08924V37.25873Z"/>
    <rect class="e" x="44.43939" y="37.25873" width="1.77676" height="9.47496"/>
    <path class="d" d="M46.313,46.83818H44.43939l-.09313-9.57945,1.86989-.10412.09687,9.68357Zm-.19374-9.57945-1.67989.07475.09679,9.4002,1.5831-.08924V37.25873Z"/>
    <rect class="e" x="39.46385" y="35.45633" width="49.06505" height="1.80239"/>
    <path class="d" d="M88.62585,37.33348h-49.162l-.09343-1.87715,49.15848-.08924.097,1.96639ZM88.432,35.45633l-48.96818.08925.09649,1.71315L88.432,37.15461V35.45633Z"/>
    <rect class="e" x="38.10424" y="46.28671" width="51.59778" height="2.32412"/>
    <path class="d" d="M89.79889,48.70007H38.10424l-.09687-2.41336L89.702,46.18259l.09687,2.51748Zm-.19374-2.41336-51.50091.08962.09306,2.2345,51.40785-.10412v-2.22Z"/>
    <rect class="e" x="37.3186" y="46.7783" width="53.17287" height="2.32412"/>
    <path class="d" d="M90.58834,49.20692H37.3186l-.09687-2.42862,53.26974-.08924.09687,2.51786Zm-.201-2.42862-53.06875.1045.09306,2.21962,52.97569-.08924V46.7783Z"/>
    <rect class="e" x="35.9403" y="48.10436" width="56.1194" height="2.32412"/>
    <path class="d" d="M92.14894,50.53259H35.9403l-.093-2.42823,56.21245-.08925.08924,2.51748Zm-.186-2.42823-56.0226.08924.0897,2.23487,55.9329-.08962V48.10436Z"/>
    <rect class="e" x="33.9701" y="49.78776" width="60.05224" height="2.30924"/>
    <path class="d" d="M94.11914,52.18624H33.9701l-.09687-2.39848,60.14912-.119.09679,2.51747ZM93.933,49.78776l-59.96293.05949.09306,2.24975L93.933,51.9925V49.78776Z"/>
    <rect class="e" x="32.01135" y="52.11188" width="63.97006" height="2.29399"/>
    <path class="d" d="M96.07828,54.49549H32.01135l-.09687-2.38361,64.06693-.1045.09687,2.48811Zm-.17887-2.38361-63.88806.08924.09648,2.20475,63.79158-.10412V52.11188Z"/>
    <rect class="e" x="44.00378" y="46.28671" width="2.66286" height="8.13403"/>
    <path class="d" d="M46.76343,54.51036H44.00378l-.09687-8.22365,2.75972-.10412.0968,8.32777Zm-.19374-8.22365-2.56591.08962.093,8.04441,2.47286-.10412V46.28671Z"/>
    <rect class="e" x="44.43939" y="46.28671" width="1.78401" height="8.13403"/>
    <path class="d" d="M46.32027,54.51036H44.43939l-.09313-8.22365,1.87714-.10412.09687,8.32777Zm-.19374-8.22365-1.68714.08962.09679,8.04441,1.59035-.10412V46.28671Z"/>
    <rect class="e" x="81.32963" y="46.28671" width="2.67041" height="8.13403"/>
    <path class="d" d="M84.08928,54.51036H81.32963l-.09687-8.22365L84,46.18259l.08924,8.32777Zm-.1823-8.22365-2.57735.08962.10411,8.04441,2.47324-.10412V46.28671Z"/>
    <rect class="e" x="81.7766" y="46.28671" width="1.77646" height="8.13403"/>
    <path class="d" d="M83.64612,54.51036H81.7766l-.09687-8.22365,1.87333-.10412.09306,8.32777Zm-.18993-8.22365-1.67959.08962.09687,8.04441,1.58272-.10412V46.28671Z"/>
    <rect class="e" x="63.01662" y="37.25873" width="2.14182" height="17.16201"/>
    <path class="d" d="M65.25149,54.51036H63.01662l-.09687-17.25163,2.23869-.10412.09305,17.35575Zm-.18992-17.25163-2.04495.07475.093,17.08726,1.9519-.10412V37.25873Z"/>
    <g class="b">
      <path class="e" d="M78.26831,37.3186l.02219-4.69285s.48054.92369,4.19356,1.13231C86,33.63869,86.58463,33.07272,86.741,32.56625l-.14149,4.76723Z"/>
      <path class="d" d="M86.68532,37.43759l-8.417-.01487-.07475-4.797.00762-.35735.16743.31273c.00763.01487.54766.89395,4.12308,1.07243,3.40761-.119,4.01095-.64033,4.16388-1.11706l.1823.02975-.15255,4.87134ZM78.38348,32.879l-.02212,4.43962,8.14128-.05987.13806-4.30538c-.3913.4321-1.37449.80471-4.15664.89395-2.73372-.14874-3.74666-.70021-4.10058-.96832Z"/>
      <path class="e" d="M80.66679,31.82142l-1.15481-.9237c.38748-.23836,1.10256.17887,1.10256.17887a2.80246,2.80246,0,0,1,2.02588-1.50492,2.81376,2.81376,0,0,1,2.02626,1.50492s.70746-.41723,1.08739-.17887l-1.14345.9237Z"/>
      <path class="d" d="M84.64075,31.92554h-3.974l-1.20668-.95345a.34457.34457,0,0,1,.35011-.23836,2.15855,2.15855,0,0,1,.83026.23836c-.05187-.08924.39129-1.07243,1.974-1.48966a2.943,2.943,0,0,1,2.12275,1.51941,1.05049,1.05049,0,0,1,1.07282-.17887l-1.16931,1.10257Zm-4.83053-.99807a.63019.63019,0,0,0-.24592.04462l1.15817.77458,3.855-.01487,1.00913-.80433h-.12281a1.83394,1.83394,0,0,0-.74864.23836,3.626,3.626,0,0,0-2.10063-1.50453,2.74062,2.74062,0,0,0-1.9107,1.445c-.15637.05949-.54347-.17887-.89357-.17887Z"/>
      <path class="e" d="M80.07833,34.21991,78.581,32.9236c.49891-.34247,1.4191.23836,1.4191.23836a3.81226,3.81226,0,0,1,2.64028-2.10063A3.77571,3.77571,0,0,1,85.27384,33.162s.9237-.58083,1.41872-.23836l-1.49347,1.29631Z"/>
      <path class="d" d="M85.23646,34.30915H80.07833l-1.55679-1.3108a.451.451,0,0,1,.447-.28336,2.62892,2.62892,0,0,1,1.07251.35773c-.071-.08924.48435-1.50453,2.57346-2.10063a3.96846,3.96846,0,0,1,2.73372,2.11551,1.435,1.435,0,0,1,1.40042-.23837l-1.51217,1.45992Zm-6.26794-1.40042a.59235.59235,0,0,0-.3318.1045l1.49347,1.13193,5.03572-.02975,1.4336-1.22155c-.082.04462-.175.01487-.294.01487a2.112,2.112,0,0,0-.9832.34286A4.52315,4.52315,0,0,0,82.61449,31.151a3.73629,3.73629,0,0,0-2.5251,2.04075c-.1415.05988-.67764-.283-1.12087-.283Z"/>
      <path class="e" d="M82.66292,24.62558c.04844,0,1.78028,3.0987,0,3.1437-1.799.05949,0-3.05408,0-3.1437Z"/>
      <path class="d" d="M82.62212,27.8734a.79809.79809,0,0,1-.72271-.34248c-.42059-.67046.31273-2.19026.58465-2.7711a1.0232,1.0232,0,0,0,.082-.164.28593.28593,0,0,1,.09687.02975H82.756s-.00717.01525-.02212.05988a4.43834,4.43834,0,0,1,.823,2.20474.847.847,0,0,1-.894.9832Zm.05568-3.05408c-.00725,0-.01488,0-.0225.01487-.23829.52173-.96832,2.01139-.5919,2.6071a.60508.60508,0,0,0,.55872.25324v.07475l.0408-.07475a.67594.67594,0,0,0,.63309-.37223c.29786-.65558-.37222-2.07088-.61821-2.503Z"/>
      <path class="e" d="M81.15084,28.55873l-.88259-.47672a1.43212,1.43212,0,0,1,.8417.07437s.2868-.55109,1.553-.78945c1.26618.23836,1.5606.78945,1.5606.78945A1.44064,1.44064,0,0,1,85.069,28.082l-.89388.47672Z"/>
      <path class="d" d="M84.20484,28.66285h-3.054l-1.10219-.59571.17841-.07437a1.81189,1.81189,0,0,1,.89777.08924c-.03356-.07437.33523-.566,1.52322-.80433a2.52474,2.52474,0,0,1,1.63878.80433,1.19688,1.19688,0,0,1,.81539-.08924l.17513.07437-1.07251.59571Zm-3.63492-.53622.62928.34286h2.9572l.6144-.34286a1.6346,1.6346,0,0,0-.51028.13425,2.79372,2.79372,0,0,0-1.61247-.78984c-1.16587.22349-1.45267.73-1.45267.74521-.119.04463-.3871-.07475-.62546-.08962Z"/>
      <path class="e" d="M81.88453,28.94621l-.01869-.38748a1.30562,1.30562,0,0,1,.79708-.78945,1.281,1.281,0,0,1,.8009.78945l-.01869.38748Z"/>
      <path class="d" d="M83.54208,29.05033H81.88453l-.10793-.47672a1.27212,1.27212,0,0,1,.85658-.87908,1.304,1.304,0,0,1,.91988.84933l-.011.50647Zm-.9089-1.17693a1.16583,1.16583,0,0,0-.67764.71508l.03311.35773,1.36686-.07475.01144-.31273h0a1.14453,1.14453,0,0,0-.73377-.68533Z"/>
      <path class="e" d="M81.11,30.138l-.04843-.50685a2.242,2.242,0,0,1,1.6014-1.07244,2.19456,2.19456,0,0,1,1.60141,1.07244l-.04081.50685Z"/>
      <path class="d" d="M84.309,30.22726H81.11l-.13424-.59609c.01495-.07437.33912-.83408,1.66471-1.16168a2.36288,2.36288,0,0,1,1.717,1.11706l-.04844.64071Zm-1.66853-1.56441a2.05393,2.05393,0,0,0-1.48958.99845l.04836.47672,2.93851-.08963.03745-.4321h-.00762a2.19088,2.19088,0,0,0-1.52712-.95344Z"/>
      <path class="e" d="M81.11,30.94234l-.04843-.53621a2.20621,2.20621,0,0,1,1.6014-1.058,2.16021,2.16021,0,0,1,1.60141,1.058l-.04081.53621Z"/>
      <path class="d" d="M84.309,31.03159H81.11l-.13424-.61059c.01495-.07475.33912-.83445,1.66471-1.16206a2.36151,2.36151,0,0,1,1.717,1.11744l-.04844.65521Zm-1.66853-1.59378a2.14724,2.14724,0,0,0-1.48958.99806l.04836.4916,2.93851-.08924.03745-.4321h-.00762a2.23031,2.23031,0,0,0-1.52712-.96832Z"/>
      <path class="e" d="M81.15084,33.29621l-.88259-1.28143c.294-.34248.8417.22349.8417.22349a3.21763,3.21763,0,0,1,1.553-2.10025,3.24208,3.24208,0,0,1,1.5606,2.10025s.54728-.566.84552-.22349l-.89388,1.28143Z"/>
      <path class="d" d="M84.23077,33.40033H81.15084l-.95726-1.32567c.22722-.58122.6517-.164.86031.01487a3.26724,3.26724,0,0,1,1.57547-2.04114,3.24694,3.24694,0,0,1,1.6426,2.04114c.2048-.17887.648-.38748.86382-.14912l-.905,1.45992Zm-3.739-1.40042a.21118.21118,0,0,0-.15675.07475l.89395,1.17693,2.90153-.045.85276-1.22156c-.04081.02975-.09306.01488-.14531.01488-.2048,0-.46185.23836-.54384.31311l-.13.13386-.03356-.17848a3.15363,3.15363,0,0,0-1.50111-2.04114A3.224,3.224,0,0,0,81.1992,32.2684l-.03357.17848-.119-.13386c-.093-.07475-.3501-.31311-.5549-.31311Z"/>
      <path class="e" d="M81.15084,34.87511l-.88259-1.281c.294-.34248.8417.25323.8417.25323a3.20187,3.20187,0,0,1,1.553-2.1155,3.22557,3.22557,0,0,1,1.5606,2.1155s.54728-.59571.84552-.25323l-.89388,1.281Z"/>
      <path class="d" d="M84.23077,34.97961H81.15084l-.95726-1.32605c.22722-.58084.6517-.17848.86031,0a3.32153,3.32153,0,0,1,1.57547-2.02588,3.26438,3.26438,0,0,1,1.6426,2.02588c.2048-.17848.65559-.37222.86382-.119l-.905,1.445Zm-3.739-1.40042a.21084.21084,0,0,0-.15675.07437l.89395,1.16206,2.90153-.02975.85276-1.23643c-.04844.0595-.09306.02975-.15255.02975-.19756,0-.45461.23836-.5366.31273l-.13.13425-.03356-.17887a3.1871,3.1871,0,0,0-1.50111-2.04075A3.25932,3.25932,0,0,0,81.1992,33.8473l-.03357.17887-.119-.13425c-.093-.07437-.3501-.31273-.5549-.31273Z"/>
      <path class="e" d="M81.11,37.25873l-.04843-1.3108a4.22228,4.22228,0,0,1,1.6014-2.65172,4.14827,4.14827,0,0,1,1.60141,2.65172l-.04081,1.3108Z"/>
      <path class="d" d="M84.31658,37.33348H81.11l-.14149-1.38555a4.25619,4.25619,0,0,1,1.65366-2.72609,4.07666,4.07666,0,0,1,1.73908,2.71122l-.04462,1.40042Zm-1.69446-3.948a4.31287,4.31287,0,0,0-1.46366,2.56248l.04836,1.3108,2.92365-.08925.03707-1.23642a4.10867,4.10867,0,0,0-1.54542-2.54761Z"/>
      <path class="e" d="M81.15084,37.25873l-.88259-.96832c.294-.25324.8417.164.8417.164a2.52805,2.52805,0,0,1,1.553-1.57929,2.55267,2.55267,0,0,1,1.5606,1.57929s.54728-.41723.84552-.164l-.89388.96832Z"/>
      <path class="d" d="M84.22352,37.33348H81.15084l-.94963-.9832c.0781-.19374.18222-.23836.29053-.23836a1.0465,1.0465,0,0,1,.56215.20862,2.62479,2.62479,0,0,1,1.57929-1.51979A2.62331,2.62331,0,0,1,84.272,36.32054c.19717-.13425.62546-.29824.85665-.1045l-.90509,1.11744Zm-3.73178-1.0282a.52561.52561,0,0,0-.16781.045l.89777.849,2.916-.04462.78984-.84933c-.03013.01526-.06369,0-.08963,0a1.09467,1.09467,0,0,0-.55872.23836l-.11166.07475-.02983-.13424a2.48724,2.48724,0,0,0-1.50453-1.50454,2.44948,2.44948,0,0,0-1.434,1.50454l-.03357.13424-.119-.07475a1.137,1.137,0,0,0-.5549-.23836Z"/>
      <path class="e" d="M43.389,31.47856l-1.15062-.90882c.37985-.23836,1.095.164,1.095.164a2.81732,2.81732,0,0,1,2.02619-1.48966,2.8174,2.8174,0,0,1,2.02588,1.48966s.70753-.40235,1.09493-.164l-1.14718.90882Z"/>
      <path class="d" d="M47.37058,31.56819H43.389l-1.21012-.93858a.357.357,0,0,1,.36124-.23836,1.8041,1.8041,0,0,1,.83057.25324c-.06331-.08963.3871-1.07282,1.96257-1.50492a3.00545,3.00545,0,0,1,2.12313,1.51979,1.11854,1.11854,0,0,1,1.07244-.164l-1.15825,1.07282Zm-4.83046-.98358a.44043.44043,0,0,0-.25331.045l1.15444.77458,3.85847-.01487,1.01325-.80471h-.13043a1.916,1.916,0,0,0-.74865.22349,3.67428,3.67428,0,0,0-2.10063-1.48966,2.79093,2.79093,0,0,0-1.9107,1.445c-.15637.04462-.55109-.17887-.88244-.17887Z"/>
      <path class="e" d="M42.7971,33.877l-1.49348-1.29592c.49884-.328,1.42636.25323,1.42636.25323a3.81136,3.81136,0,0,1,2.6296-2.1155,3.82556,3.82556,0,0,1,2.63684,2.1155s.91989-.58122,1.41873-.25323L47.92549,33.877Z"/>
      <path class="d" d="M47.95142,33.96667H42.7971l-1.55679-1.31118a.45931.45931,0,0,1,.45041-.2681,2.436,2.436,0,0,1,1.07663.35773c-.07086-.1045.47672-1.50492,2.56591-2.13038A3.93873,3.93873,0,0,1,48.067,32.76a1.4774,1.4774,0,0,1,1.40042-.25323l-1.516,1.45991Zm-6.2607-1.38554a.59335.59335,0,0,0-.33523.08924l1.50118,1.14718,5.03526-.02974,1.42635-1.25131c-.07437.0595-.175.02975-.29023.04463a2.1492,2.1492,0,0,0-.987.3276,4.60449,4.60449,0,0,0-2.70779-2.1155,3.72588,3.72588,0,0,0-2.51747,2.07088c-.13425.04462-.67809-.283-1.12507-.283Z"/>
      <path class="e" d="M41.31087,37.3186l.0225-4.69285s.47672.92369,4.18982,1.13231c3.51974-.11937,4.10439-.68534,4.25694-1.19181l-.14149,4.76723Z"/>
      <path class="d" d="M49.72445,37.43759l-8.41358-.01487-.07056-4.797V32.2684l.17506.31273c0,.01487.53621.89395,4.11545,1.07243,3.40761-.119,4.011-.64033,4.164-1.11706l.17841.02975-.14874,4.87134ZM41.42269,32.879l-.01877,4.43962,8.13785-.05987.13806-4.30538c-.38748.4321-1.37449.80471-4.15664.89395-2.73372-.14874-3.74666-.70021-4.1005-.96832Z"/>
      <path class="e" d="M45.326,24.62558c.04843,0,1.79133,3.0987,0,3.1437-1.7879.05949,0-3.05408,0-3.1437Z"/>
      <path class="d" d="M45.28483,27.8734a.77417.77417,0,0,1-.71127-.34248c-.42829-.67046.30167-2.19026.58465-2.7711a.8292.8292,0,0,0,.07444-.164.26822.26822,0,0,1,.09337.02975h.09687a.52908.52908,0,0,0-.02243.05988,4.46818,4.46818,0,0,1,.82294,2.20474.84445.84445,0,0,1-.89738.9832Zm.05606-3.05408a.02682.02682,0,0,0-.0225.01487c-.2273.52173-.96451,2.01139-.59228,2.6071a.614.614,0,0,0,.55872.25324v.07475l.03356-.07475a.68337.68337,0,0,0,.648-.37223c.29442-.65558-.376-2.07088-.62546-2.503Z"/>
      <path class="e" d="M43.81774,28.55873l-.883-.47672a1.43686,1.43686,0,0,1,.8417.07437s.29061-.55109,1.55678-.78945c1.26274.23836,1.55679.78945,1.55679.78945a1.43583,1.43583,0,0,1,.84551-.07437l-.88632.47672Z"/>
      <path class="d" d="M46.87136,28.66285H43.81774l-1.10264-.59571.18611-.07437a1.79678,1.79678,0,0,1,.89014.08924c-.02593-.07437.33912-.566,1.51979-.80433a2.55775,2.55775,0,0,1,1.646.80433,1.17866,1.17866,0,0,1,.812-.08924l.17513.07437-1.07289.59571Zm-3.63873-.53622.62966.34286H46.823l.61089-.34286a1.62634,1.62634,0,0,0-.50265.13425,2.802,2.802,0,0,0-1.6201-.78984c-1.15481.22349-1.45648.73-1.45648.74521-.10412.04463-.37223-.07475-.622-.08962Z"/>
      <path class="e" d="M44.55868,28.94621l-.02593-.38748a1.2924,1.2924,0,0,1,.80051-.78945,1.2802,1.2802,0,0,1,.79327.78945l-.01488.38748Z"/>
      <path class="d" d="M46.19754,29.05033H44.55868l-.1228-.47672a1.32017,1.32017,0,0,1,.86382-.87908,1.32266,1.32266,0,0,1,.9237.84933l-.02586.50647ZM45.2997,27.8734a1.10925,1.10925,0,0,0-.67046.71508l.01869.35773,1.37448-.07475.01876-.31273h0a1.19584,1.19584,0,0,0-.74147-.68533Z"/>
      <path class="e" d="M43.77648,30.138l-.04844-.50685a2.23313,2.23313,0,0,1,1.60522-1.07244,2.20581,2.20581,0,0,1,1.598,1.07244l-.04119.50685Z"/>
      <path class="d" d="M46.972,30.22726H43.77648l-.13768-.59609a2.2,2.2,0,0,1,1.67234-1.16168,2.32643,2.32643,0,0,1,1.70934,1.11706l-.04844.64071Zm-1.6609-1.56441a2.07809,2.07809,0,0,0-1.4934.99845l.05179.47672,2.93127-.08963.03364-.4321h0a2.152,2.152,0,0,0-1.5233-.95344Z"/>
      <path class="e" d="M43.77648,30.94234l-.04844-.53621a2.19773,2.19773,0,0,1,1.60522-1.058,2.171,2.171,0,0,1,1.598,1.058l-.04119.53621Z"/>
      <path class="d" d="M46.972,31.03159H43.77648L43.6388,30.421a2.199,2.199,0,0,1,1.67234-1.16206,2.32512,2.32512,0,0,1,1.70934,1.11744l-.04844.65521Zm-1.6609-1.59378a2.12128,2.12128,0,0,0-1.48623.99806l.04462.4916,2.93127-.08924.03364-.4321h0a2.19026,2.19026,0,0,0-1.5233-.96832Z"/>
      <path class="e" d="M43.81774,33.29621l-.883-1.28143c.29061-.34248.8417.22349.8417.22349A3.22982,3.22982,0,0,1,45.33326,30.138a3.24377,3.24377,0,0,1,1.55679,2.10025s.54384-.566.84551-.22349l-.88632,1.28143Z"/>
      <path class="d" d="M46.89767,33.40033H43.81774l-.9687-1.32567c.23829-.58122.67039-.164.87176.01487a3.26949,3.26949,0,0,1,1.57165-2.04114,3.261,3.261,0,0,1,1.65366,2.04114c.20488-.17887.64033-.38748.85657-.14912l-.905,1.45992Zm-3.73941-1.40042a.20185.20185,0,0,0-.15255.07475l.89357,1.17693,2.90152-.045.83789-1.22156c-.03356.02975-.07437.01488-.13386.01488-.20511,0-.45842.23836-.54766.31311l-.12273.13386-.03364-.17848a3.19248,3.19248,0,0,0-1.50835-2.04114,3.30739,3.30739,0,0,0-1.43016,2.04114l-.02975.17848-.12319-.13386c-.093-.07475-.34629-.31311-.55109-.31311Z"/>
      <path class="e" d="M43.81774,34.87511l-.883-1.281c.29061-.34248.8417.25323.8417.25323a3.21369,3.21369,0,0,1,1.55678-2.1155,3.22729,3.22729,0,0,1,1.55679,2.1155s.54384-.59571.84551-.25323l-.88632,1.281Z"/>
      <path class="d" d="M46.89767,34.97961H43.81774l-.9687-1.32605c.24591-.58084.67039-.17848.87176,0a3.32386,3.32386,0,0,1,1.57165-2.02588,3.27889,3.27889,0,0,1,1.65366,2.02588c.20488-.17848.64033-.37222.85657-.119l-.905,1.445Zm-3.73941-1.40042a.20151.20151,0,0,0-.15255.07437l.89357,1.16206,2.90152-.02975.83789-1.23643c-.03356.0595-.082.02975-.13386.02975-.20511,0-.45842.23836-.54766.31273l-.12273.13425-.03364-.17887a3.227,3.227,0,0,0-1.50835-2.04075,3.34511,3.34511,0,0,0-1.43016,2.04075l-.02975.17887-.12319-.13425c-.093-.07437-.34629-.31273-.55109-.31273Z"/>
      <path class="e" d="M43.77648,37.25873l-.04844-1.3108a4.19877,4.19877,0,0,1,1.60522-2.65172,4.17439,4.17439,0,0,1,1.598,2.65172l-.04119,1.3108Z"/>
      <path class="d" d="M46.97967,37.33348H43.77648l-.14531-1.38555a4.27652,4.27652,0,0,1,1.65366-2.72609,4.09072,4.09072,0,0,1,1.74328,2.71122l-.04844,1.40042Zm-1.69484-3.948a4.27921,4.27921,0,0,0-1.45992,2.56248l.04462,1.3108,2.92365-.08925.04126-1.23642a4.0648,4.0648,0,0,0-1.54961-2.54761Z"/>
      <path class="e" d="M43.81774,37.25873l-.883-.96832c.29061-.25324.8417.164.8417.164a2.54032,2.54032,0,0,1,1.55678-1.57929,2.55185,2.55185,0,0,1,1.55679,1.57929s.54384-.41723.84551-.164l-.88632.96832Z"/>
      <path class="d" d="M46.89005,37.33348H43.81774l-.95344-.9832c.08916-.19374.18222-.23836.294-.23836a1.04789,1.04789,0,0,1,.56254.20862,2.625,2.625,0,0,1,1.5789-1.51979,2.61239,2.61239,0,0,1,1.63878,1.51979c.19756-.13425.62584-.29824.85658-.1045l-.905,1.11744Zm-3.73179-1.0282a.39263.39263,0,0,0-.16018.045l.88633.849,2.92364-.04462.786-.84933c-.0225.01526-.05606,0-.08924,0a1.177,1.177,0,0,0-.55529.23836l-.1151.07475-.03364-.13424a2.476,2.476,0,0,0-1.5011-1.50454,2.48794,2.48794,0,0,0-1.43741,1.50454l-.03738.13424-.11174-.07475a1.137,1.137,0,0,0-.55491-.23836Z"/>
      <path class="e" d="M58.57356,35.1436H69.42644a.96951.96951,0,0,1,.97213.96832.97941.97941,0,0,1-.97213.96832H58.57356a.9761.9761,0,0,1-.96832-.96832.96626.96626,0,0,1,.96832-.96832Z"/>
      <path class="d" d="M69.42644,37.16948H58.57356a1.07,1.07,0,0,1-1.07281-1.05756,1.08276,1.08276,0,0,1,1.07281-1.07281H69.42644a1.082,1.082,0,0,1,1.069,1.07281,1.06912,1.06912,0,0,1-1.069,1.05756ZM58.57356,35.23285a.87148.87148,0,1,0,0,1.74289H69.42644a.87148.87148,0,1,0,0-1.74289Z"/>
      <path class="e" d="M70.58468,36.29041l.08207-6.42088s-.24606,1.57928-.98708,1.57928H58.32033c-.73759,0-.98319-1.57928-.98319-1.57928l.07436,6.42088Z"/>
      <path class="d" d="M70.67774,36.36516H57.4115l-.17123-6.49563.18229-.01488c.07094.41723.35774,1.50492.89777,1.50492H69.67967c.53622,0,.83072-1.08769.894-1.50492l.18993.01488-.08581,6.49563Zm-13.2403-5.75042.07093,5.66079,12.98707-.08924.07055-5.57155c-.16742.46185-.44316.92332-.88632.92332H58.32033c-.43935,0-.71509-.46147-.88289-.92332Z"/>
      <path class="e" d="M68.07064,33.37058l.0225-2.08576s1.41911-.3871,1.22155-.92331c-.201-.55148-1.90689.685-1.90689.685H60.58457s-1.70209-1.23643-1.90308-.685c-.19717.53621,1.22537.92331,1.22537.92331l.02593,2.08576Z"/>
      <path class="d" d="M68.15645,33.47508H59.93279L59.81,31.2997a1.74655,1.74655,0,0,1-1.188-.65521.35334.35334,0,0,1-.02586-.31311.30083.30083,0,0,1,.32371-.20824,4.62417,4.62417,0,0,1,1.72078.849l6.76717-.01487a4.11546,4.11546,0,0,1,1.66861-.83408.29561.29561,0,0,1,.32417.20824.34324.34324,0,0,1-.02639.31311c-.22692.447-1.21774.71508-1.25885.73l.04835,1.99613-.00724.1045Zm-9.2366-3.15858c-.10068,0-.13386.02975-.14873.07475a.20923.20923,0,0,0,.02212.17849c.15293.29824.87526.55147,1.13955.62584l.0897,2.175,7.95891-.08924.01868-1.99652c.33142-.16361,1.05375-.41684,1.2105-.71508a.218.218,0,0,0,.01487-.17849c-.01487-.045-.045-.07475-.149-.07475a4.5119,4.5119,0,0,0-1.60911.80471l-6.88273.02975a4.79466,4.79466,0,0,0-1.66472-.83446Z"/>
      <path class="e" d="M68.88641,35.18823l.026-2.22s1.6982-.2681,1.45983-.80432c-.23073-.566-2.27911.68533-2.27911.68533H59.90686s-2.04838-1.2513-2.28293-.68533c-.23836.53622,1.45992.80432,1.45992.80432l.03356,2.22Z"/>
      <path class="d" d="M68.97222,35.27747H59.11741L58.998,32.96822c-.05187.05988-1.21042-.10411-1.445-.55109a.33392.33392,0,0,1-.01869-.29785.3612.3612,0,0,1,.3726-.19374,6.36713,6.36713,0,0,1,2.04457.83445h8.14166a5.55455,5.55455,0,0,1,2.00376-.83445c.23836,0,.3276.10449.365.19374a.30217.30217,0,0,1-.01488.29785c-.23111.4321-1.39317.62584-1.52314.65559l.0556,2.11551-.00724.08924ZM57.90691,32.11928c-.16017,0-.18992.05949-.19755.07437.164.4321,1.06176.64071,1.38555.68533l.11937,2.30925,9.57526-.1045.02593-2.11551c.4173-.13386,1.30736-.34247,1.46754-.64033-.00381-.74483-2.12656.58084-2.14144.59571l-8.23471.01488a7.05383,7.05383,0,0,0-1.99995-.8192Z"/>
      <path class="e" d="M65.18818,23.88075l.00725-.86382c-.99807,0-.75208-.95345-.75208-1.326a.91417.91417,0,0,0-.44354-1.45992c-.80044.41723-.741,1.10256-.44659,1.43017.00343.40235.33485,1.3558-.76352,1.3558l.00724.86382Z"/>
      <path class="d" d="M65.28505,23.98525H62.79694l-.10411-.96832c.37222-.1045.566-.14912.68152-.29824a1.06214,1.06214,0,0,0,.11174-.80433c-.01487-.10411-.01868-.17886-.02631-.25323a.82673.82673,0,0,1-.18611-.71509,1.13531,1.13531,0,0,1,.68533-.78945,1.07034,1.07034,0,0,1,.76352.73,1.03194,1.03194,0,0,1-.2048.86382.906.906,0,0,1,.01106.14912,1.09736,1.09736,0,0,0,.14531.83445.60723.60723,0,0,0,.52134.17849l.08962.96832v.1045ZM63.959,20.3202a1.17267,1.17267,0,0,0-.49922.65559.722.722,0,0,0,.1678.611,2.40317,2.40317,0,0,1,.04089.29786,1.25586,1.25586,0,0,1-.15255.96831.90013.90013,0,0,1-.72622.23837l.1003.78945,2.20864-.07437.00381-.78945a.55079.55079,0,0,1-.57367-.13425,1.40834,1.40834,0,0,1-.18993-.99806l.01488-.19374A.85132.85132,0,0,0,63.959,20.3202Z"/>
      <path class="e" d="M66.87883,29.63117l.01869-1.68341s.99807-.3276.8642-.77457c-.14149-.447-1.34817.55109-1.34817.55109H61.583s-1.21431-.99807-1.34856-.55109c-.13386.447.86421.77457.86421.77457l.01868,1.68341Z"/>
      <path class="d" d="M66.97189,29.72079H61.11735l-.11555-1.773c-.03349.05988-1.02057-.283-.85658-.80432a.2511.2511,0,0,1,.257-.19374,2.98689,2.98689,0,0,1,1.23643.71508l4.77485-.02975a2.64372,2.64372,0,0,1,1.18418-.68533.24969.24969,0,0,1,.25323.19374c.164.52134-.81195.8642-.91988.90882l.04081,1.59416v.07437Zm-6.56962-2.57735c-.16781.34248.4916.64071.73.73l.07811,1.75777,5.57918-.08925.01487-1.59416c.29786-.16361.95726-.46184.86764-.74483-.35354-.07437-.9793.41723-1.19524.5961l-4.89384.02974a3.57573,3.57573,0,0,0-1.18075-.68533Z"/>
      <path class="e" d="M67.45242,31.12121l.02251-1.81765s1.21392-.22348,1.03887-.65559c-.16743-.46184-1.61628.56635-1.61628.56635H61.09867s-1.44886-1.02819-1.61247-.56635c-.17162.43211,1.03506.65559,1.03506.65559L60.54,31.12121Z"/>
      <path class="d" d="M67.54929,31.21045H60.54l-.11556-1.90689a1.19755,1.19755,0,0,1-1.00531-.41722.28428.28428,0,0,1-.0225-.26811.2629.2629,0,0,1,.28679-.17887,4.20852,4.20852,0,0,1,1.47136.68534l5.74279-.01488a3.64716,3.64716,0,0,1,1.41529-.67046.28042.28042,0,0,1,.2945.17887.30771.30771,0,0,1-.02257.26811c-.19756.35773-.99807.49159-1.08769.52172l.05224,1.71315v.08924ZM59.68337,28.6331l-.10411.17887c.11906.19374.648.34247.96069.40235l.10068,1.90689,6.72637-.1045.01487-1.71315c.3051-.13386.90844-.283,1.03887-.49159l-.10793-.17887a3.678,3.678,0,0,0-1.352.65559l-5.86216.01487a4.15776,4.15776,0,0,0-1.4153-.67046Z"/>
      <path class="e" d="M65.86589,26.9497l.01106-1.10219s.64834-.26849.55872-.56634c-.08543-.31273-.86763.3726-.86763.3726H62.43578s-.78221-.68533-.86764-.3726c-.09687.29785.55491.56634.55491.56634l.01487,1.10219Z"/>
      <path class="d" d="M65.96276,27.0542H62.13792l-.11174-1.20669c-.01869.0595-.66322-.23836-.55491-.611l.02212-.04462.18268-.08963c.25713,0,.72622.41723.823.492l3.06895-.03013a1.58163,1.58163,0,0,1,.7597-.46185h.06712l.13043.13425c.10793.3726-.53659.67046-.61478.70021l.05225,1.01294v.1045ZM61.67607,25.296c-.07818.17887.294.38748.484.46185l.06712,1.19181,3.54186-.08924.00382-1.02782c.25323-.14912.622-.35773.5774-.5366a3.11564,3.11564,0,0,0-.72271.4321l-3.19175.02975a2.36383,2.36383,0,0,0-.75971-.46185Z"/>
      <path class="e" d="M66.2385,27.96264l.01487-1.11706s.77839-.26811.67008-.56635c-.10411-.31273-1.0465.38749-1.0465.38749h-3.7539s-.93857-.70022-1.04688-.38749c-.10786.29824.67427.56635.67427.56635l.01495,1.11706Z"/>
      <path class="d" d="M66.33537,28.05226h-4.57l-.11182-1.20668c.00763.07437-.52127-.11937-.65177-.38748l-.01488-.04462v-.164a.20471.20471,0,0,1,.21586-.13387,2.66985,2.66985,0,0,1,.976.46185l3.69822-.01487a2.12572,2.12572,0,0,1,.91989-.447h.06l.15255.13387a.25552.25552,0,0,1-.01495.20861c-.13043.283-.65178.46185-.71508.47672l.05606,1.02782v.08962Zm-5.13259-1.75815c.03738.23836.38024.40235.5736.46185l.082,1.1918,4.28669-.07436.01144-1.02782c.25705-.14912.59953-.31311.67046-.46185-.21624-.08962-.66321.17887-.894.35735l-3.81.01488a2.77862,2.77862,0,0,0-.92027-.46185Z"/>
      <path class="e" d="M65.32205,24.99819l.00762-1.01294s.458-.22349.39854-.4916c-.06712-.23836-.62576.34248-.62576.34248H62.89s-.55491-.58084-.61821-.34248c-.05569.26811.39472.4916.39472.4916l.00763.87869Z"/>
      <path class="d" d="M65.41518,25.1023l-2.741-.13386-.10068-.96832c0,.04462-.4691-.20861-.39473-.52134l.0225-.07475.14874-.0595c.19755,0,.50647.3276.611.41723l2.14151-.02975c.0373-.05988.34621-.38748.54377-.38748h.07818l.08924.13425c.07826.3276-.38366.566-.43934.59571l.04088.9237v.10411ZM62.35,23.53827c-.02212.13386.23836.3276.35773.35735l.06331.96832,2.45417.045.00762-.92369c.18238-.13425.43554-.31312.39854-.46185a2.69937,2.69937,0,0,0-.46184.34247l-2.2795.02975a2.15835,2.15835,0,0,0-.54-.35735Z"/>
      <path class="e" d="M65.583,25.6984l.00717-.87908s.5549-.23836.47672-.4916c-.07056-.26811-.73721.31311-.73721.31311H62.66651s-.66665-.58122-.74094-.31311c-.07444.25324.47672.4916.47672.4916l.0148.87908Z"/>
      <path class="d" d="M65.67215,25.78764H62.41709l-.10412-.96832c-.04843,0-.57016-.19374-.47672-.52134l.02212-.0595.164-.07437c.22357,0,.62585.34248.70746.41685l2.59985-.02975a1.31883,1.31883,0,0,1,.65178-.3871h.06712l.11518.13387c.09305.3276-.42821.55109-.53241.59609l.04081.80433v.08924Zm-3.64979-1.43017c-.04118.1045.22357.28336.42066.37261l.06713.96832,2.9797-.10412.00725-.775c.26086-.17849.5141-.35735.48435-.46185a1.60708,1.60708,0,0,0-.59228.35773l-2.72266.01488a2.13322,2.13322,0,0,0-.64415-.37261Z"/>
      <path class="e" d="M63.15811,25.743l-.4916-.55109c.16781-.14912.46185.10411.46185.10411a1.4253,1.4253,0,0,1,.87145-.89357,1.38957,1.38957,0,0,1,.8642.89357s.30549-.25323.47291-.10411l-.4916.55109Z"/>
      <path class="d" d="M64.87889,25.83264H63.15811l-.70364-.74521.33523-.04462a.5857.5857,0,0,1,.29023.10449,1.55977,1.55977,0,0,1,.8867-.84932,1.55933,1.55933,0,0,1,.94582.84932.61464.61464,0,0,1,.29061-.10449l.18992.07475-.51409.71508Zm-2.08919-.59609.43553.447,1.57166-.04462.46192-.50647c-.15636.10412-.29411.20823-.3353.23836l-.11518.08924-.03356-.13424a1.3045,1.3045,0,0,0-.80814-.849,1.33848,1.33848,0,0,0-.7414.849l-.04081.13424-.10793-.08924a.68316.68316,0,0,0-.28679-.13424Z"/>
      <path class="e" d="M62.81944,26.637l-.68915-.53622c.23112-.14912.65941.08924.65941.08924a1.26627,1.26627,0,0,1,2.4206,0s.42829-.23836.65559-.08924l-.68915.53622Z"/>
      <path class="d" d="M65.2103,26.74108H62.81944l-.74483-.58084c.07056-.19374.15255-.20861.23836-.20861a1.07569,1.07569,0,0,1,.4916.14912c-.03356-.1045.26048-.65559,1.16931-.894a1.84452,1.84452,0,0,1,1.29973.90882.59631.59631,0,0,1,.64453-.10449l-.70784.72995ZM62.35,26.16024l.529.40236,2.26454-.01487.5099-.38749a.97979.97979,0,0,0-.39465.119,2.38521,2.38521,0,0,0-1.28493-.89356,1.51666,1.51666,0,0,0-1.09486.84894c-.13051.04462-.34637-.07437-.529-.07437Z"/>
      <path class="e" d="M62.64821,28.21625l-.78221-.73033c.26429-.19336.74864.13424.74864.13424a2.06924,2.06924,0,0,1,1.38517-1.20668,2.04588,2.04588,0,0,1,1.38211,1.20668s.48779-.3276.75589-.13424l-.79326.73033Z"/>
      <path class="d" d="M65.38192,28.32037H62.64821l-.84171-.77458c.07437-.19374.16362-.22349.26049-.22349a1.57436,1.57436,0,0,1,.5774.19374c-.04843-.10449.27536-.84932,1.32224-1.17693a2.22087,2.22087,0,0,1,1.482,1.17693.69731.69731,0,0,1,.7414-.10449l-.80814.90882ZM62.067,27.516a.23332.23332,0,0,0-.14523.04463l.79326.59571,2.59215-.02975.65559-.61059a1.26716,1.26716,0,0,0-.529.19336,2.97191,2.97191,0,0,0-1.46716-1.20668,2.02583,2.02583,0,0,0-1.25893,1.14719c-.149.05949-.421-.13387-.64071-.13387Z"/>
      <path class="e" d="M62.313,30.16777l-.97594-.9237c.32417-.23836.92751.17886.92751.17886a2.59226,2.59226,0,0,1,1.73527-1.51979,2.60455,2.60455,0,0,1,1.73573,1.51979s.59983-.41722.93125-.17886l-.987.9237Z"/>
      <path class="d" d="M65.7244,30.257H62.313l-1.04688-.95345c.09687-.20861.19756-.23836.32036-.23836a1.47158,1.47158,0,0,1,.71508.25324c-.0556-.10412.33523-1.07244,1.6651-1.48967a2.68442,2.68442,0,0,1,1.836,1.50454.83167.83167,0,0,1,.91989-.16361L65.7244,30.257Zm-4.138-.99807a.26275.26275,0,0,0-.19336.0595l.98319.77458,3.26994-.02975.86382-.8192a.20376.20376,0,0,1-.09649.01487,1.25657,1.25657,0,0,0-.63347.23836,3.39,3.39,0,0,0-1.81345-1.48966,2.48959,2.48959,0,0,0-1.60522,1.43017c-.14531.04462-.48816-.17887-.775-.17887Z"/>
      <polygon class="e" points="62.075 31.747 63.944 34.086 65.925 31.747 62.075 31.747"/>
      <path class="d" d="M63.94031,34.23478,61.87325,31.6723h4.25694l-2.18988,2.56248ZM62.27179,31.866l1.67234,2.07088L65.7244,31.866Z"/>
      <path class="e" d="M61.98118,32.03,60.797,30.987c.39472-.26811,1.12476.19374,1.12476.19374a2.97373,2.97373,0,0,1,2.078-1.66853,2.98349,2.98349,0,0,1,2.0747,1.66853s.73758-.46185,1.12468-.19374L66.01844,32.03Z"/>
      <path class="d" d="M66.05208,32.11928h-4.0709l-1.24368-1.058a.382.382,0,0,1,.36879-.25323,1.82047,1.82047,0,0,1,.85658.29824c-.07094-.13425.3871-1.22156,2.011-1.68341a3.14325,3.14325,0,0,1,2.175,1.68341,1.06664,1.06664,0,0,1,1.10257-.19374l-1.19936,1.20668Zm-4.94579-1.11744a.34262.34262,0,0,0-.25323.07475l1.188.87869,3.94765-.02974,1.05794-.93857a.45115.45115,0,0,1-.15637.01487,1.72988,1.72988,0,0,0-.76008.26811,3.74732,3.74732,0,0,0-2.15631-1.66853,2.86411,2.86411,0,0,0-1.95914,1.609c-.15637.0595-.56589-.20861-.90845-.20861Z"/>
      <polygon class="e" points="61.914 34.324 63.94 37.259 66.089 34.324 61.914 34.324"/>
      <path class="d" d="M63.94031,37.40785l-2.20856-3.17307h4.53993l-2.33137,3.17307Zm-1.85075-2.97933,1.85075,2.6666,1.95922-2.6666Z"/>
      <path class="e" d="M61.81375,34.652,60.5327,33.3557c.4318-.3276,1.21774.25324,1.21774.25324a3.49573,3.49573,0,0,1,2.24937-2.1155,3.50813,3.50813,0,0,1,2.25356,2.1155s.78564-.58084,1.21393-.25324L66.19006,34.652Z"/>
      <path class="d" d="M66.2237,34.74125H61.81375l-1.34817-1.31118a.39712.39712,0,0,1,.39473-.283,1.6079,1.6079,0,0,1,.83445.31311,3.62521,3.62521,0,0,1,2.27187-2.07088A3.634,3.634,0,0,1,66.298,33.4602c.25324-.164.9012-.41723,1.22537-.17886L66.2237,34.74125Zm-5.36339-1.40042a.35367.35367,0,0,0-.26811.10412l1.28867,1.14718,4.268-.02975,1.21813-1.2513c-.05607.0595-.13425.02975-.23112.02975a1.77007,1.77007,0,0,0-.83064.3276l-.10793.08963-.03356-.11937a3.47056,3.47056,0,0,0-2.19712-2.0705,3.46215,3.46215,0,0,0-2.13038,2.0705l-.02975.11937-.11174-.08963a1.834,1.834,0,0,0-.83445-.3276Z"/>
      <path class="e" d="M61.81375,37.25873,60.5327,35.9628c.4318-.34247,1.21774.23837,1.21774.23837a3.53077,3.53077,0,0,1,2.24937-2.11551,3.54345,3.54345,0,0,1,2.25356,2.11551s.78564-.58084,1.21393-.23837l-1.27724,1.29593Z"/>
      <path class="d" d="M66.2237,37.33348H61.81375L60.46558,36.0223a.38532.38532,0,0,1,.39473-.25324,1.72137,1.72137,0,0,1,.83445.283,3.69457,3.69457,0,0,1,2.27187-2.05563A3.703,3.703,0,0,1,66.298,36.05205c.24561-.14874.9012-.43172,1.22537-.16361l-1.29966,1.445Zm-5.36339-1.38555a.40909.40909,0,0,0-.26811.08924l1.28867,1.16206,4.268-.04462L67.367,35.93306a.55107.55107,0,0,1-.23112.01487,1.591,1.591,0,0,0-.83064.34248l-.10793.05987-.03356-.11937a3.46656,3.46656,0,0,0-2.19712-2.05562,3.43158,3.43158,0,0,0-2.13038,2.05562l-.02975.11937-.11174-.05987a1.64392,1.64392,0,0,0-.83445-.34248Z"/>
      <rect class="e" x="50.94982" y="40.8494" width="0.93857" height="4.06702"/>
      <path class="d" d="M51.98144,45.00566H50.94982l-.09306-4.15626,1.03163-.08962.093,4.24588Zm-.18992-4.15626-.8417.10412.09687,3.9629.74483-.08963V40.8494Z"/>
      <rect class="e" x="54.14546" y="40.8494" width="0.942" height="4.06702"/>
      <path class="d" d="M55.18807,45.00566H54.14546l-.09352-4.15626,1.03552-.08962.10061,4.24588Zm-.18993-4.15626-.85268.10412.09679,3.9629.75589-.1045V40.8494Z"/>
      <rect class="e" x="52.64428" y="40.8494" width="0.93857" height="4.06702"/>
      <path class="d" d="M53.67591,45.00566H52.64428l-.093-4.15626,1.03155-.08962.09306,4.24588ZM53.486,40.8494l-.8417.10412.09687,3.9629.74483-.1045V40.8494Z"/>
      <rect class="e" x="69.73573" y="40.8494" width="0.93483" height="4.06702"/>
      <path class="d" d="M70.76736,45.00566H69.73573l-.09687-4.15626,1.03171-.08962.09679,4.24588Zm-.18992-4.15626-.84171.10412.09306,3.9629.74865-.08963V40.8494Z"/>
      <rect class="e" x="76.12649" y="40.8494" width="0.94239" height="4.06702"/>
      <path class="d" d="M77.16574,45.00566H76.12649l-.09687-4.15626,1.03925-.08962.09687,4.24588Zm-.18992-4.15626-.84933.10412.09313,3.9629.7562-.1045V40.8494Z"/>
      <rect class="e" x="72.92749" y="40.8494" width="0.94963" height="4.06702"/>
      <path class="d" d="M73.96293,45.00566H72.92749l-.09306-4.15626,1.04269-.08962.08581,4.24588Zm-.19031-4.15626-.84513.10412.09687,3.9629.74826-.1045V40.8494Z"/>
      <rect class="e" x="71.4302" y="40.8494" width="0.93476" height="4.06702"/>
      <path class="d" d="M72.458,45.00566H71.4302l-.09687-4.15626,1.03162-.08962.09306,4.24588Zm-.18993-4.15626-.83788.10412.09305,3.9629.74483-.1045V40.8494Z"/>
      <rect class="e" x="74.43202" y="40.8494" width="0.94582" height="4.06702"/>
      <path class="d" d="M75.47471,45.00566H74.432l-.08581-4.15626,1.03163-.08962.09687,4.24588Zm-.19328-4.15626-.84941.10412.09687,3.9629.75254-.1045V40.8494Z"/>
      <rect class="e" x="57.34438" y="40.8494" width="0.94239" height="4.06702"/>
      <path class="d" d="M58.38364,45.00566H57.34438l-.08924-4.15626,1.03163-.08962.09687,4.24588Zm-.18993-4.15626-.84933.10412.09306,3.9629.75627-.08963V40.8494Z"/>
      <rect class="e" x="55.64992" y="40.8494" width="0.94239" height="4.06702"/>
      <path class="d" d="M56.68925,45.00566H55.64992l-.09687-4.15626,1.03925-.08962.09695,4.24588Zm-.19038-4.15626-.84895.10412.09306,3.9629.75589-.1045V40.8494Z"/>
      <rect class="e" x="63.01662" y="22.30184" width="1.94808" height="0.74483"/>
      <path class="d" d="M65.06881,23.121H63.01662l-.09687-.8192,2.04495-.10449.10411.92369Zm-.19717-.8192-1.855.08925.093.65558,1.762-.08962v-.65521Z"/>
      <rect class="e" x="63.27367" y="21.57189" width="1.44123" height="0.71508"/>
      <path class="d" d="M64.80833,22.37621H63.27367l-.09687-.80432,1.53809-.1045.09344.90882Zm-.18993-.80432-1.34473.08924.09687.62584,1.24786-.08962v-.62546Z"/>
    </g>
  </g>
</svg>
