<?xml version="1.0" encoding="utf-8"?>
<!-- Generator: Adobe Illustrator 24.1.2, SVG Export Plug-In . SVG Version: 6.00 Build 0)  -->
<svg version="1.1" id="Layer_1" xmlns="http://www.w3.org/2000/svg" xmlns:xlink="http://www.w3.org/1999/xlink" x="0px" y="0px"
	 viewBox="0 0 1280 1280" style="enable-background:new 0 0 1280 1280;" xml:space="preserve">
<style type="text/css">
	.st0{fill:#ED1C24;}
	.st1{fill:#231F20;}
	.st2{fill:#00AEEF;}
	.st3{fill:#ED2024;}
</style>
<g>
	<path class="st0" d="M683.3,413.8c-16.2,0-31.8-6.5-43.3-17.8c-15.9,15.8-39.2,21.7-60.7,15.4c-37.3-11-57.7-33.5-63.1-40.1
		c-2.2-2.8-4.2-5.8-6-8.9c-19.2-34.6-15.9-74.7,8.9-107.3c6.4-8.2,13.7-15.7,21.7-22.3c14.8-47.5,53.6-79.5,61.6-85.7
		c22.2-17.2,53.2-17.2,75.4,0c7.9,6.2,46.8,38.2,61.6,85.7c8.1,6.5,15.4,14,21.7,22.3c24.8,32.6,28.1,72.7,8.9,107.3
		c-1.6,3.2-3.7,6.2-6,8.9c-5.4,6.7-25.9,29.1-63.1,40.1C695,412.9,689.2,413.8,683.3,413.8z"/>
	<path class="st0" d="M684.3,470.5c-15.6-0.1-30.8-4.1-44.3-11.8c-13.5,7.7-28.7,11.8-44.2,11.8c-17.1,0-33.9-5.1-48-14.8
		c-8.8-6.3-15.8-14.8-20.4-24.6c-0.7-1.7-1.5-3.2-2.1-4.4c-14.9-4.6-28-13.8-37.3-26.4c-12.8-18-16.4-40.9-9.7-62
		c3-8.9,7.8-17,14.3-23.8c18.5-19.1,41.7-29.2,66.8-29.2c5.7,0,11.5,0.5,17.1,1.6c8.7-9.6,18.4-18.3,29-25.7
		c20.9-14.1,48.3-14.1,69.2,0c10.6,7.4,20.4,16,29,25.7c5.6-1.1,11.4-1.6,17.1-1.6c25.2,0,48.4,10.1,66.8,29.2
		c6.5,6.7,11.4,14.9,14.3,23.8c6.7,21,3.1,44-9.8,62c-9.2,12.6-22.3,21.8-37.2,26.4c-0.6,1.3-1.4,2.7-2.1,4.4
		c-4.6,9.8-11.6,18.3-20.4,24.6C718.2,465.3,701.5,470.5,684.3,470.5z"/>
	<path class="st0" d="M653.2,597.2c-4.4,0-8.8-0.4-13.2-1.3c-7.5,1.4-15.2,1.6-22.7,0.5c-21.8-3.2-40.3-17.9-48.2-38.5
		c-4.1-10.6-7.5-21.5-10.3-32.5c-8.4-33.2-8-58.3,1.4-79.1c7.5-17,21.3-30.4,38.5-37.4c7.7-3.3,23-8.6,39.4-8.6h3.8
		c16.4,0,31.7,5.4,39.4,8.6c17.3,6.9,31.1,20.3,38.6,37.4c9.4,20.9,9.9,46,1.4,79.1c-2.8,11-6.3,21.9-10.3,32.5
		c-8,20.6-26.5,35.3-48.4,38.5C659.4,597,656.3,597.2,653.2,597.2z"/>
	<path class="st0" d="M733.1,705.7c-39.3,0-68.5-12.4-86.9-36.7c-2.2-3.1-4.3-6.3-6.2-9.6c-1.8,3.4-3.9,6.6-6.2,9.6
		c-18.4,24.4-47.6,36.7-86.9,36.7c-13.3,0-26.5-1.3-39.5-3.8c-4.7-1-9.3-2.5-13.7-4.4c-39.4-18.3-46.6-49.4-47.8-61.9
		c-3-30,13.5-53.5,30-65.6c6.1-4.4,12.9-7.7,20.2-9.7c62.7-17,85.4-41.3,90.1-46.9c10.3-21.2,30.7-34.3,53.8-34.3
		s43.5,13.1,53.8,34.3c4.6,5.6,27.3,29.9,90.1,46.9c7.3,1.9,14.1,5.2,20.2,9.7c16.5,12,33,35.6,30,65.6
		c-1.3,12.6-8.3,43.6-47.8,61.9c-4.4,2-9,3.5-13.7,4.4C759.5,704.5,746.3,705.7,733.1,705.7z"/>
	<path class="st0" d="M610.4,864.5c-7.9,0-15.8-0.9-23.4-2.9c-37-3.1-70.2-24.8-90.6-59c-3-2.1-6-4.1-9.1-6l-4,1.5
		c-19.3,27.8-57.5,34.8-85.4,15.5l0,0l-2.7-2c-10.1-7.9-43.3-39.2-43.3-108.3c0-23.4,12.6-44.4,32.8-54.9
		c19.8-10.5,43.8-9.1,62.3,3.6c2.1,1.1,4.3,2,6.5,2.6l3-1.2c5.4-1.9,20-6.2,40-6.2c36.7,0,71.2,14.7,98.1,41.7c3-0.4,6-0.5,9-0.4
		c19.3,0,55.5,6.2,82.7,47.9c5.7,8.9,9.1,19.2,9.7,29.8c0.5,10.2,0.5,45.8-24.8,72.6C655.4,855.4,633.9,864.5,610.4,864.5z"/>
	<path class="st0" d="M399.2,818.8c-3.5-0.1-7-0.4-10.5-0.8c-15.3-2.5-29-10.6-38.5-22.8c-4.9-6.2-29-39.6-27-85.9
		c0.4-7.2,1.9-14.3,4.6-21c-0.1-8.8,0.5-17.5,1.7-26.2c-3.4-16.7-2.7-34,2.1-50.4c7.8-26.1,30.6-44,56.7-44.8h1.8
		c23,0,43.3,12.1,53.7,31.6c7.3-1.9,14.9-2.8,22.5-2.9c10.7,0.1,21.3,1.7,31.6,4.6l20.5,5.3c5.2-1.3,10.5-1.9,15.8-1.9
		c16.2,0,31.5,5.5,45.3,16.2l4.1,3.5c6.4,6,12.3,12.4,17.6,19.3c7.8,2.6,15,6.8,21.1,12.2c7.1,6.3,30.3,29.9,31.4,66.8
		c0.5,17.7-3.9,44.2-28.7,69.2c-11.6,11.5-27.2,18.1-43.6,18.2h-3.7c-17.6-1.1-33.9-9.7-44.8-23.6c-8.1-10.5-16.9-20.3-26.4-29.5
		c-13.8,3.2-27.8,5.6-41.9,7.2c-2.3,12.1-7.7,23.4-15.7,32.7c-12.3,14.7-30.5,23.2-49.7,23.1L399.2,818.8z"/>
	<path class="st0" d="M450.9,702.6c-35.9,0-57.4-20.1-63.1-26.3c-3.8-4.2-7.1-8.9-9.7-13.9c-17.2-33.7-12.8-62-6-79.7
		c14.7-38.4,50.1-53.9,57.1-56.7c16.7-6.6,35.5-5.5,51.3,3.1c1.4,0.7,2.7,1.5,4,2.3c7.4-3.4,14.9-6.3,22.6-8.9l0.6-0.2
		c10.8-17.2,29.4-27.9,49.7-28.5h2.1c23.3-0.1,44.6,13.1,54.9,34c24.1,48.1,5.4,92.1-22.2,112.4c-9.4,7-20.6,11.1-32.3,11.8
		c-4.8,1.7-18.9,9-31.5,18.1C503.6,691.7,477.5,702.6,450.9,702.6z"/>
	<path class="st0" d="M403.7,670.3c-22,0-43-8.1-60.8-23.3c-18.5-16-25.9-41.4-18.7-64.8c1.8-5.7,9.1-26.2,29.5-50.3
		c25.9-30.5,61.7-54.3,106.3-70.6c18.4-6.8,39-4.3,55.3,6.7c6.3-2.9,12.4-6.3,18.3-10.1c10.5-20.5,31.6-33.3,54.6-33.3h2
		c28.1,0.8,52,20.6,58.1,48c2.6,12.5,3.5,25.3,2.6,38c-2.5,36.1-21.1,64.5-50.6,77.4c-3,4.5-6.7,8.6-10.8,12.1
		c-5.3,4.5-53.1,44-117.6,45.7h-5.5C455.8,655.1,433.8,670.3,403.7,670.3z"/>
	<path class="st0" d="M380.1,633.7c-21.9,0.1-42.6-9.7-56.4-26.7c-15.5-19-21.7-44.1-19.5-79.3c0.8-11.3,2.3-22.5,4.3-33.6
		c1.6-7.8,4.6-15.1,9-21.7c0.6-4.3,1.5-8.6,2.5-12.9c5.9-21.9,13.8-38.6,24.3-51.3c15.3-18.7,36.2-29,58.7-29
		c16.1,0,31.8,5.4,44.4,15.4c17.7,13.9,27.6,34.5,27,56c2.7,5.2,4.8,10.7,6,16.4c0.4,1.6,0.6,3.2,1,4.8c1.1,6.1,1.5,12.4,1.3,18.6
		c8.9,20.2,9.5,43,1.8,63.7c-7.5,19.8-21.8,36.2-40.3,46.5l-3.7,1.9c-3.1,1.7-5.9,3.9-8.2,6.5c-9,12.6-22.2,20.8-38.1,23.6
		C389.5,633.3,384.8,633.7,380.1,633.7z"/>
	<path class="st0" d="M441.3,586.1c-26.9-0.1-50.7-17.6-58.7-43.3c-2.7-8.8-14.8-54.5,13.7-93.1c13.2-17.8,38.7-39.2,85.8-39.2
		c4,0,8.1,0.1,12.2,0.4c22.5,1.7,42.3,15.5,51.5,36.1c9.2,6.2,16.9,14.3,22.6,23.9c11.7,19.6,13.8,43.3,5.9,66.5
		c-2.2,6.4-5.5,12.5-9.6,17.8c-7.1,9.1-26.8,30.1-58.4,30.1c-11.5,0-22.8-3-32.8-8.6l-2.6,1.4C461.9,583.4,451.7,586.1,441.3,586.1z
		"/>
	<path class="st0" d="M555.2,558.8c-13.1,0-26.8-2.7-40.9-8.1c-5.6-2.1-10.9-5.1-15.6-8.8c-7.1-5.5-42-34.9-37.5-79.4
		c1.4-13.3,9-46.3,49.7-66.1c4.1-2,8.4-3.5,12.8-4.5c6.2-1.4,12.5-2.1,18.8-2.1h2.2l5-2.7c19.9-9.7,43.4-8,61.7,4.5
		c24,16.5,42.3,51.6,29.7,93.2c-3.2,19-12.3,36.6-26.1,50C599.1,550.5,578.4,558.8,555.2,558.8z"/>
	<path class="st0" d="M513.3,550.4h-1.2c-15.8-0.3-31.1-5.4-43.9-14.7c-23.3,17-55.3,15.5-76.9-3.7c-28-24.8-28.5-61-27.9-72.2
		c-7.1-13-10.4-27.8-9.5-42.7c-0.3-21.6,7-52.6,41.3-81.8c1-16.3,7.4-31.7,18.2-43.9c22.2-25.3,56-29.1,65.8-29.7h3.4
		c4.4,0,8.9,0.5,13.2,1.5c36.5,8,63.3,31.5,75.7,66c4.3,12.2,6.5,25,6.7,37.9c0.5,1.2,1.2,2.3,1.6,3.5c13.5,31.1,4,56.5-0.6,65.9
		c-2.1,4.1-4.4,8.1-7,11.9c7.2,24.8,2.5,48,0.7,55.3C566.1,531.2,541.5,550.4,513.3,550.4z"/>
	<path class="st0" d="M487,506.3c-3.8-0.1-7.6-0.4-11.3-1.1c-0.4-0.1-10.9-2.1-22.4-5c-22.6-5.7-40.3-12.5-53.4-27.1
		c-17.1-19.3-20.4-47.3-8.3-70.1c9.5-17.5,32-38,64.5-38c12.4,0,24.7,2.9,35.8,8.6c30.2-15.4,67.1-3.4,82.5,26.7c0,0,0,0,0,0.1l0,0
		c2.9,5.5,4.9,11.5,5.8,17.7c3.4,20.1-2.9,41.7-16.5,57.9c-17,20.1-42.7,30.2-76.2,30.2L487,506.3z"/>
	<path class="st0" d="M379.3,888.5c-9.1,0-15.4-0.4-16.2-0.5c-38.1-2.7-59.5-21.4-70.8-36.6c-10.3-14.2-16.3-30.9-17.5-48.4
		c-6.1-17.5-5.7-35.2-4.8-44.4c0.5-5.1,1.7-10.2,3.4-15.1c-1.6-13.6-1.2-27.3,1.2-40.8c1.9-10.1,4.5-19.9,8-29.6
		c0.5-28.4,14.6-55.4,37.5-71.3c27.8-19.3,65.9-12.4,85.2,15.4c0.1,0.1,0.1,0.2,0.2,0.3c6.1,8.8,9.8,19.1,10.7,29.8
		c1.2,6.7,7.5,32.5,14.7,59.1c0.8,2.8,1.4,5.7,1.7,8.6c4.3,35.8,23.5,52.9,26.9,55.6c19.2,12.6,29.5,34.6,26.8,57.9
		c-2.6,23.2-19.1,43.1-41.9,50.9C426.4,885.3,404.5,888.5,379.3,888.5L379.3,888.5z"/>
	<path class="st0" d="M321.9,832.7c-23.8,0-46.7-11.3-62.8-31c-16.2-19.7-24.5-43.8-28.6-77.5c-3.6-5.2-6.4-10.9-8.2-16.9
		c-3.4-11-9.6-39.2,7.1-65.4c8.3-13,20.8-22.8,35.5-27.7l1-3c4.6-14.3,18.8-57.4,59.1-70.6c24.2-7.9,50.8-0.1,66.8,19.7l21.3,26.4
		c21.3,26.3,17.3,64.8-8.9,86.1c0,0-0.1,0.1-0.1,0.1h-0.1c-2.1,1.7-4.3,3.2-6.5,4.6c-1.7,3-3.1,6.1-4.1,9.4
		c-3.7,10.7-9.6,35.4-7.9,81.5c1,29.2-18.5,55-46.9,62C333,832,327.5,832.7,321.9,832.7z"/>
	<path class="st0" d="M303.4,884.2c-6.5,0-12.9-1.1-19-3.1c-27-8.8-74.2-39.4-80-98.2c-0.2-2.5-0.3-5.1-0.3-7.6
		c-6.5-13.2-9.7-27.7-9.3-42.3c0.7-19.4,8.8-37.7,22.7-51.2c10.3-10.2,23.9-16.4,38.3-17.4c8-3.6,16.7-5.5,25.4-5.5h3.3
		c28,1.4,51.4,21.6,56.9,49.1c3.1,14.7,9.1,29.8,11.6,33.7c7.8,8.1,13.2,18.2,15.4,29.2c1.7,7.5,2.8,15.1,3.4,22.8
		c0.8,10,3.6,40.3-15.6,64.7c-12.5,15.8-31.4,25.3-51.5,25.8H303.4z"/>
	<path class="st0" d="M571.5,1073.1c-8.1,0-16.1-1.7-23.6-4.8c-44.8-18.7-72.6-46.6-83.1-83c-13.8-48.6,12.9-88.1,15.9-92.4
		c11.5-16.1,30.1-25.7,49.9-25.8c1-0.1,2,0,3.1,0.1c47.3,2.3,72.7,25.8,85.8,45.1c32.2,47.4,13.9,107.7,10,119.2
		c-5.5,16.1-17.4,29.2-32.9,36.1C588.7,1071.3,580.1,1073.2,571.5,1073.1z"/>
	<path class="st0" d="M627.3,1032.5c-8.2,0-16.2-1.6-23.8-4.8c-34.8-14.6-48-38.3-53-55.7c-7.7-26.8,1.1-52.4,11.6-67.3
		c11.5-16.1,30.1-25.7,49.9-25.8h3.1c26.2,1.3,48,13.2,61.9,33.6c21.6,31.9,11.8,68,8.2,78.3
		C676.9,1015.8,653.6,1032.5,627.3,1032.5z"/>
	<path class="st0" d="M513,1054.5c-6,0-11.9-0.9-17.6-2.5c-44.7-13.4-58.1-41.9-62.1-57.7c-7.4-29.2,5.1-54.8,19.2-69
		c11.6-11.5,27.2-18,43.5-18.2h2.2c40.2,1.5,59.8,23.8,67.7,37c15.9,26.3,11.7,56.3,2.6,75.6C558.2,1040.8,536.6,1054.3,513,1054.5z
		"/>
	<path class="st0" d="M501,1026.4c-29,0-53.9-18.9-63.6-48.2c-3.5-10.9-4-22.6-1.3-33.8c-9.6-19-8.6-41.1,3.1-59.7
		s30.5-28.1,52.2-28.1h4.5c21.3,1.3,41,11.6,54.2,28.3c12.1,15.2,18.7,34.7,19.3,58c0.3,8-0.2,16.1-1.4,24.1c-0.8,5.6-2.4,11-4.8,16
		C545.2,1023.3,511.1,1026.4,501,1026.4z"/>
	<path class="st0" d="M328.6,951.8h-3.7c-18.5-1.2-35.6-10.6-46.6-25.5c-22.8-31.8-17.5-60.8-12.5-75.4c14.1-40,55.4-53.1,63.6-55.3
		c32.1-8.8,65.3,9.5,75,41.4c12.1,40.2,1,67.1-10.6,82.8C378.8,939.8,354.4,951.8,328.6,951.8z"/>
	<path class="st0" d="M350.2,986.1c-7.3,0-14.6-1.4-21.4-3.9c-34.3-12.8-50.6-44.7-54.1-68c-5-33.6,18.2-64.8,51.7-69.8l0,0l3.9-0.4
		l8.2-0.3c27.1,0,50.4,12.1,63.8,33.3c16,25.2,12.2,54.6,3.4,73.7C395.7,972.3,374,986.2,350.2,986.1z"/>
	<path class="st0" d="M351.6,906.7c-16.5,0.1-32.5-5.4-45.5-15.5c-12.9-10.3-22.2-24.5-26.5-40.4c-9.1-32.7,10-66.6,42.7-75.7
		l3.2-0.8c7.7-1.7,15.6-2.5,23.5-2.5c34.5,0,62.8,18.2,73.9,47.3c10.2,27.2,0.1,57.9-24.4,73.6C391.8,896.8,373.9,906.7,351.6,906.7
		z"/>
	<path class="st0" d="M424.4,864.3c-30.6,0-56.7-16.3-69.8-43.4c-10.5-21.9-7.1-48,8.7-66.5l9.9-11.6c18.2-21.3,48.4-27.6,73.6-15.3
		c26.9,13.2,51.3,46.7,41.2,89.3c-5.2,22.6-22.9,40.3-45.5,45.5C436.5,863.7,430.5,864.3,424.4,864.3z"/>
	<path class="st0" d="M335.4,1028.8c-11.2,0-22.2-3.1-31.8-8.9c-8.6-5.3-16.7-11.4-24.2-18.2c-40.2-36.7-32.1-74-26.8-88.4
		c7.7-20.5,25.7-35.4,47.3-39.1c23.9-3.9,48.2,3.4,66,19.7c32.9,8.5,52.6,42,44.1,74.9c-3,11.5-9.2,21.8-17.9,29.9l-15.1,13.8
		C365.6,1023,350.8,1028.8,335.4,1028.8z"/>
	<path class="st0" d="M217.6,1090.4c-33.9-0.1-61.4-27.5-61.4-61.4l0,0v-1.9c1-18.5,4.7-36.7,11-54.2c15.2-41.9,43.1-71.7,80.9-86.1
		c2.6-1,5.4-1.9,8.1-2.5c6.8-1.5,13.8-2.2,20.8-2.2c20.2-0.1,40,6.1,56.5,17.8c19.2,13.8,32.5,34.7,38.4,60.6
		c1.1,4.7,1.6,9.5,1.6,14.4c-0.1,10.5-3.4,37.6-31.3,63.9c-24,22.6-61.7,39.6-111.8,50.4C226.2,1089.9,221.9,1090.3,217.6,1090.4z"
		/>
	<path class="st0" d="M169.8,1110.1c-16.6-0.1-32.5-6.8-44.1-18.7c-12-12.5-40.8-45.1-47.4-80.1c-4.4-23.8,5.5-48,25.3-61.9
		l26.7-18.5c25.7-17.9,60.8-13.6,81.4,10.1c11.9,6.3,22.2,15.2,30.2,26c11.9,15.7,24.9,42.8,18.9,81.9
		c-3.7,23.5-20.5,42.8-43.3,49.6l-30.3,9C181.5,1109.3,175.7,1110.1,169.8,1110.1z"/>
	<path class="st0" d="M203.5,1055.5c-28.7,0-53.4-10.7-69.8-30c-16.4-19.3-21.7-42.7-17.4-68.3c4.8-29.6,30.5-51.4,60.5-51.2
		c1-0.1,2,0,3.1,0.1l34.5,1.8c19.9,0.9,38.2,11.6,48.8,28.5c15.8,25,19,66.8-11.5,99.5c-10.2,10.9-23.9,17.7-38.7,19.2
		C209.8,1055.4,206.7,1055.5,203.5,1055.5L203.5,1055.5z"/>
	<path class="st0" d="M553.1,500.8c-5.9,0-11.7-0.9-17.3-2.5c-21.6-6.3-38.4-20.8-47.2-40.8c-9.7-22.1-6.1-43.1-2.1-55.5
		c-2.3-33.9,23.3-63.2,57.2-65.4c13.7-0.9,27.2,2.8,38.6,10.4c30.3,20.6,38.7,46.6,40.5,64.7c3.7,38.7-21.1,65.9-26.2,70.9
		C585.1,494.3,569.4,500.8,553.1,500.8z"/>
	<path class="st0" d="M559.8,456.5c-18.1,0-44.3-7-66.7-40.2c-12.8-18.8-14.1-43.1-3.5-63.1c9.4-17.8,30.4-37,60.5-37
		c17.1,0,49.1,6.7,69.7,51.3c9.7,21,6.7,45.7-7.7,63.9C599.3,447.2,580.1,456.4,559.8,456.5z"/>
	<path class="st0" d="M525.1,410.4c-25.8-0.1-48.9-16.3-57.7-40.5c-0.8-0.9-1.7-1.7-2.6-2.3c-19.2-8.4-32.4-26.1-35.4-47.4
		c-3-21.3,6.3-43.2,24.2-56.9c20.5-15.7,41.7-23.6,63.2-23.6c38.6,0,66.7,26.1,77.5,51.9c2.5,5.8,4,12,4.4,18.4
		c2.6,31.4-4.2,56.8-20.4,75.4c-12.9,14.9-31,24-49.7,25L525.1,410.4z"/>
	<path class="st0" d="M577.5,630.5c-23.9,0-45.6-13.9-55.7-35.6c-7.8-16.9-15.7-51.5,19.8-94c7.4-8.7,15.4-16.8,24.1-24.3
		c20.8-17.7,50.9-19.4,73.6-4.2c23.3,15.5,35.9,39.6,34.5,66.2c-1.4,26.6-15.7,48.9-42.5,68.8c-8.1,6-16.6,11.4-25.5,16.2
		C597,628.1,587.3,630.5,577.5,630.5z"/>
	<path class="st0" d="M675.1,524.1c-6.6,0-13.2-1.1-19.5-3.2c-3-1-6.1-1.8-9.2-2.2c-4.2,0.4-8.5,0.4-12.7,0
		c-3.1,0.5-6.1,1.3-9.1,2.2c-32.1,10.7-66.8-6.6-77.6-38.6h-0.1c-2.1-6.7-3.2-13.7-3.2-20.7c0.5-24.4,15.5-56.8,56.5-67.9
		c11.2-2.8,22.7-4.2,34.3-4.1h11.1c11.6-0.1,23.1,1.3,34.3,4.1c40.9,11.1,56,43.5,56.5,67.9c0.7,33.9-26.1,61.9-60,62.7
		C676,524.2,675.5,524.1,675.1,524.1z"/>
	<path class="st0" d="M496.8,896.1c-53.6,0-97.1-43.5-97.1-97.1c0-49.4,37-90.9,86.1-96.5c28.5-3.4,55.5,13.5,64.8,40.6
		c0.2,0.5,0.3,1.1,0.5,1.6l1.6,0.5c27.1,9.4,44,36.4,40.5,64.9C587.7,859.2,546.2,896.2,496.8,896.1z"/>
	<path class="st0" d="M360.5,489.9c-22.5,0-44-8.3-64.2-24.7c-13.1-9.1-43-33-55.4-70.1c-10.7-32.1,6.6-66.9,38.6-77.8l2.2-0.7
		c2-0.5,48.8-14.1,99-15.9h2.1c13-0.1,25.7,4.1,36.2,11.8c17.4,12.7,30,32.7,34.5,54.9c3.9,19.1,3.7,49-19.7,82.8
		C421.2,469.5,395.4,489.9,360.5,489.9z"/>
	<path class="st0" d="M348.5,505.4c-5.4-0.1-10.9-0.6-16.3-1.5c-2.3-0.4-4.5-1.1-6.8-1.7c-51.4-16.3-81.9-61.2-87.5-70.1
		c-2-3.4-3.8-6.8-5.3-10.5c-10-25.5-1.5-49.6,2.6-58.9c9.4-21.4,30.3-35.5,53.6-36.3h2.4c22.5-0.1,43.2,12.2,53.9,32
		c3.1,5.4,22.1,18.8,37.9,25.7c31.1,13.1,45.8,48.9,32.7,80c-3.4,8.1-8.5,15.4-15,21.3C387.1,498.4,369,505.4,348.5,505.4z"/>
	<path class="st0" d="M315.9,608.8c-5.5,0-10.9-0.5-16.3-1.5c-2.2-0.4-4.3-1-6.5-1.6c-55.2-16.6-88.4-63.3-94.5-72.5
		c-2.2-3.4-4-7-5.6-10.7c-11-26.7-1.6-52,3-61.8c9.7-20.8,30.2-34.4,53.1-35.3h2.4c22,0,42.4,11.8,53.3,30.9
		c3.8,6.7,26,22.1,46.3,30.4c31.4,12.8,46.4,48.6,33.7,79.9c-3.6,8.7-9.1,16.5-16.1,22.8C354.6,602.3,336.4,608.8,315.9,608.8z"/>
	<path class="st0" d="M248.5,702.6c-5.6,0-11.1-0.5-16.6-1.4c-2.1-0.4-4.2-0.8-6.3-1.5c-61.2-17.6-99.1-70.3-103.3-76.2
		c-2.3-3.4-4.3-7-5.9-10.8c-12-28-1.7-54.6,3.3-64.6c9.9-20.3,30.1-33.4,52.6-34.3h2.5c21.6,0,41.6,11.4,52.7,29.9
		c5.6,9.3,33.8,27.3,57,36.4c31.6,12.3,47.2,48,34.9,79.6c-3.7,9.4-9.7,17.8-17.4,24.4C287.8,696.2,269.2,702.6,248.5,702.6z"/>
	<path class="st0" d="M198.2,801.1c-5.6,0-11.1-0.5-16.6-1.4c-2.1-0.4-4.2-0.8-6.3-1.5C114,780.6,76.1,727.9,72,722
		c-2.3-3.4-4.3-7-5.9-10.8c-12-28-1.7-54.6,3.3-64.7c9.9-20.3,30.1-33.4,52.6-34.3h2.5c21.6,0,41.6,11.4,52.7,29.9
		c5.6,9.3,33.8,27.3,57,36.4c31.6,12.3,47.2,48,34.9,79.6c-3.7,9.4-9.7,17.8-17.4,24.4C237.4,794.6,219,801.1,198.2,801.1z"/>
	<path class="st0" d="M325.9,588.1c-29,0-55.8-9.3-79.5-27.6c-16.4-12.6-30.8-29.4-42.9-49.8c-11.7-20.1-20.7-41.7-26.6-64.2
		c-4.3-18-0.3-36.9,10.9-51.6l28.1-36.8c11.6-15.2,29.7-24.2,48.9-24.2c1-0.1,2,0,3,0.1c20.2,0.9,38.6,11.7,49.2,28.9
		c20.4,32.8,38.2,37.8,41.3,38.4h1c32.6,0,59.5,25.5,61.3,58.1c2.7,51.9-21.4,91.5-26.3,99c-8.8,13.4-22.4,22.8-38,26.3
		C346.2,586.9,336.1,588,325.9,588.1z"/>
	<path class="st0" d="M293.4,692.3c-35.2,0-67.5-9.3-96-27.7c-21.9-14.1-41-33.4-56.7-57c-24.1-36.3-32.4-71.4-33.9-78
		c-4.7-21.8,2.8-44.5,19.6-59.2l42.4-37.1c25.6-22.3,64.4-19.6,86.7,5.9c1.9,2,3.5,4.2,5,6.5c33.3,50.4,70.4,56.6,76,57.3
		c15.8,0.1,30.4,6.2,42.1,17.8c11.7,11.6,17.6,27.2,17.3,44.6c-1,60.8-41.5,103.5-46,108.2c-10.2,10.3-23.8,16.7-38.2,18.1
		C305.6,692.1,299.4,692.3,293.4,692.3z"/>
	<path class="st0" d="M230.6,778.4c-34.3,0-65.8-8.8-93.6-26c-21.6-13.4-40.5-31.6-56.3-54.2c-24-34.7-32.5-68.5-34-74.9
		c-5.1-22.5,2.8-46,20.5-60.8l41.3-34.5c26-21.8,64.7-18.3,86.4,7.6c0,0,0,0,0.1,0.1c1.2,1.5,2.3,3,3.4,4.5
		c32.3,46.8,68.5,52.6,73.9,53.2c15.8,0.1,30.4,6.3,42,17.8c11.6,11.5,17.5,27.1,17.3,44.3c-0.7,59.2-41.4,100.4-46,104.8
		c-10.2,9.9-23.5,15.9-37.7,17.1C242,778.2,236.3,778.4,230.6,778.4L230.6,778.4z"/>
	<path class="st0" d="M216.3,856.6c-24.5,0-63.9-9.8-113.1-56.7c-9.6-9.2-15.9-21.2-18.2-34.3l-3.7-22.5
		c-5.5-33.5,17.1-65.1,50.6-70.6c12.7-2.2,25.8-0.2,37.4,5.6c23.4,11.6,54.8,23.4,64.5,24.4c23.8,2.1,44.2,17.9,52.3,40.4
		c3.7,10.4,5.6,21.4,5.7,32.4c0.4,32.1-15.4,59.8-42.5,73.9c-3.7,1.9-7.6,3.5-11.6,4.6C230.7,855.7,223.5,856.6,216.3,856.6z"/>
	<path class="st0" d="M127.5,1051.5c-16,0-31.4-6.3-42.9-17.4c-10.1-10-19.2-20.9-27.2-32.6c-16-23.4-13.9-54.7,5.1-75.7
		c1.7-1.8,3.4-3.6,5.2-5.3c1.9-10.5,6.5-20.4,13.3-28.6c2.7-7.1,6.6-13.6,11.5-19.3l-0.3-0.4c-6.3,2.1-12.8,3.2-19.4,3.2
		c-12-0.1-23.8-3.6-33.9-10.2C17.6,856,3.2,835.8,1.5,812.8C0.7,802.7,0.3,792.3,0,782c0-2.4,0-4.8,0.2-7.1
		c3.8-40.3,29.9-65.4,44.1-76c10-21.9,31.8-35.8,55.8-35.8h0.4c24-0.1,45.8,13.9,55.7,35.7c9.4,6.9,17.6,15.2,24.5,24.6l1.5,2
		c13.7,5.1,25.1,15.1,32.1,28l0.4,0.7c12.8,7.5,22.5,19.3,27.2,33.4c9.8,8.1,18.2,17.8,24.7,28.7c22.1,9.9,36.3,31.9,36.2,56.1v0.6
		c0,24.2-14.2,46.1-36.2,56.1c-6.6,10.9-14.9,20.6-24.7,28.7c0,0.1-0.1,0.2-0.1,0.4c-4.8,13.9-14.4,25.7-27.1,33l-0.5,1
		c-7,12.7-18.4,22.6-32,27.8c-2.9,4.2-6.1,8.2-9.6,11.9c-11.3,12.1-26.9,19.3-43.5,19.7L127.5,1051.5z"/>
	<path class="st0" d="M97.3,959.2h-3.3c-45-1.9-81.2-37.8-83.3-82.9c-0.1-1.4-0.1-2.7-0.1-4.1l0,0c0-1.3,0-2.5,0.1-3.7
		c2.1-45,38.3-81,83.3-82.9h6.9c45.1,1.7,81.3,37.7,83.3,82.8c0.1,1.4,0.1,2.7,0.1,4v1.1c0.1,0.9,0,1.8-0.1,2.6
		c-2.1,45-38.3,81-83.3,82.9h-3.6V959.2z"/>
	<path class="st0" d="M97.3,950.3h-4.2c-39.2-2.4-70.5-33.6-73.3-72.7c-0.1-1.7-0.2-3.4-0.2-5.2l0,0c0-1.6,0.1-3.1,0.2-4.6
		c2.6-39.3,34-70.4,73.3-72.8h8.8c39.2,2.4,70.6,33.5,73.3,72.7c0.1,1.7,0.2,3.4,0.2,5.1c0,1.7-0.1,3.2-0.2,4.6
		c-2.5,39.3-34,70.5-73.3,72.8h-4.2L97.3,950.3z"/>
	<path class="st0" d="M99.3,1012.4c-21.5-0.2-41.4-11.4-52.6-29.8c-12.4-20.5-22.4-44.4-29.9-71.3c-1.8-6.7-2.5-13.6-2.1-20.5
		c-3.2-6-5.5-12.4-6.8-19.1c-1.4-7.9-2.5-16.2-3.6-24.6c-0.3-3-0.4-6-0.4-9l-0.3-4.9c-4.6-25.9,7.8-51.9,30.8-64.5
		c3.4-4.1,7.2-8,11.3-11.4c11.3-17.5,30.7-28,51.5-28h0.5c20.8,0,40.2,10.5,51.5,28c4.1,3.4,7.9,7.2,11.3,11.3
		c8.2,4.5,15.3,10.8,20.7,18.5c7.6,5.6,13.6,13,17.7,21.5c3.7,3.5,7.1,7.3,9.9,11.5c18,11.1,29,30.9,28.8,52v0.3
		c0.1,21.2-10.8,40.9-28.8,52c-3,4.1-6.3,8-9.9,11.5c-4.2,8.4-10.3,15.7-17.7,21.4c-5.4,7.7-12.4,14.1-20.7,18.6
		c-3.7,4.6-7.9,8.7-12.6,12.4C136.4,1003.6,118.4,1012.4,99.3,1012.4z"/>
	<path class="st0" d="M670.7,508.5c-6.7-0.1-13.3-0.9-19.7-2.4l-3.6-1l-2.3-0.6l-5.1,0.2l-5.1-0.2l-2.3,0.6l-3.6,1
		c-6.5,1.6-13.1,2.4-19.7,2.4c-41.3,0-67.9-31.5-72.8-62.7c-3.6-19.9,1.5-40.4,13.9-56.4c17.5-22.3,47.4-33.7,88.8-33.7h1.8
		c41.4,0,71.3,11.3,88.8,33.7c12.5,15.9,17.5,36.4,13.9,56.3C738.6,477,712,508.5,670.7,508.5z"/>
	<path class="st0" d="M675.9,752c-6.8,0-13.6-0.9-20.3-2.6l-1.5-0.4c-4.8-1.5-9.5-3.3-14.1-5.2c-4.6,2-9.3,3.7-14.1,5.2l-1.5,0.4
		c-6.6,1.8-13.4,2.7-20.3,2.7c-36,0-66-25.1-77.2-36l-1.6-1.6c-31-32.2-24.5-64.1-20.2-76.3c8.3-23.6,26.9-36.8,44.7-42.3
		c9.6-16.3,22-25,33-29.6l1.8-3.7c14.6-30.6,51.3-43.6,81.9-29c12.7,6.1,23,16.4,29,29.1l1.8,3.6c11.1,4.6,23.4,13.3,33,29.6
		c17.7,5.5,36.4,18.7,44.7,42.3c4.3,12.2,10.9,44-20.2,76.3l-1.6,1.6C741.9,726.9,712,752,675.9,752z"/>
	<path class="st0" d="M643.7,807.9h-7.3c-39.6,0-62.2-17.6-74.2-32.4c-18.9-23.3-21.3-52.6-17.2-72.1c0.3-1.2,0.5-2.2,0.8-3.3
		c2.9-11.1,6-19.6,10-26.8c9.4-17.4,24-29.2,41.7-33.9c10-8.9,22.6-14.5,35.9-15.9c4.3-0.4,8.7-0.4,13,0c13.4,1.4,26,7,36,15.9
		c17.6,4.6,32.3,16.4,41.7,33.9c3.9,7.2,7.1,15.7,10,26.8c0.3,1.1,0.5,2.2,0.7,3.3c4.1,19.6,1.8,48.8-17.2,72.2
		C705.8,790.3,683.3,807.9,643.7,807.9z"/>
	<path class="st0" d="M669.7,864.5c-23.5,0-45.1-9.1-60.7-25.7c-25.3-26.8-25.4-62.4-24.8-72.6c0.7-10.6,4-20.9,9.7-29.9
		c26.9-41.7,63.2-47.9,82.6-47.9c3-0.1,6.1,0.1,9.1,0.4c26.9-27,61.3-41.7,98.1-41.7c13.6-0.1,27.1,2,40,6.2l3,1.2
		c2.3-0.6,4.5-1.5,6.5-2.6c28.2-18.7,66.3-11,85,17.2c6.7,10.1,10.2,21.9,10.2,34c0,69.3-33.2,100.4-43.3,108.3
		c-26.8,20.8-65.4,16-86.3-10.8l-2-2.7l-4-1.5c-3.1,1.9-6.1,3.9-9.1,6c-20.3,34.2-53.7,56.1-90.6,59
		C685.5,863.5,677.6,864.5,669.7,864.5z"/>
	<path class="st0" d="M880.8,818.8c-19.1-0.1-37.3-8.6-49.7-23.1c-7.8-9.2-12.9-19.7-15.7-32.7c-14.1-1.5-28.1-3.9-41.9-7.2
		c-9.5,9.3-18.3,19.1-26.5,29.6c-10.9,13.9-27.2,22.5-44.8,23.6h-3.7c-16.3,0-32-6.5-43.6-18.1c-24.7-24.9-29.2-51.3-28.7-69.2
		c1.1-37,24.3-60.5,31.5-66.8c6.1-5.5,13.2-9.7,21-12.2c5.4-6.9,11.3-13.3,17.6-19.3c1.4-1.3,2.8-2.4,4.1-3.5
		c13.8-10.8,29.1-16.2,45.3-16.2c5.3,0,10.7,0.6,15.8,1.9l20.5-5.3c10.3-3,21-4.5,31.7-4.6c7.7-0.1,15.3,0.9,22.7,3
		c11-19,31.3-30.7,53.2-30.7h3.3c25.9,1.4,48.1,18.9,55.4,43.8c4.9,16.3,5.6,33.7,2.1,50.4c1.3,8.7,1.9,17.4,1.7,26.2
		c2.9,6.6,4.4,13.8,4.6,21c2.1,46.3-22.2,79.7-26.9,85.9c-9.6,12.1-23.3,20.3-38.5,22.8C887.8,818.5,884.3,818.8,880.8,818.8z"/>
	<path class="st0" d="M829.1,702.6c-26.6,0-52.7-11-77.6-32.5c-12.6-9.1-26.7-16.4-31.5-18.1c-11.7-0.8-22.9-4.9-32.3-11.8
		c-27.6-20.4-46.2-64.2-22.2-112.4c10.3-20.9,31.6-34,54.9-34h2.1c20.3,0.6,39,11.3,49.7,28.5l0.6,0.2c7.7,2.5,15.3,5.4,22.6,8.9
		c1.3-0.8,2.6-1.6,4-2.3c15.8-8.5,34.6-9.6,51.3-3.1c7,2.7,42.4,18.3,57.1,56.7c6.8,17.7,11.2,45.9-6,79.7
		c-2.6,5.1-5.8,9.8-9.7,13.9C886.5,682.5,865.1,702.6,829.1,702.6z"/>
	<path class="st0" d="M876.3,670.3c-30.1,0-52-15.2-62.6-24.4h-5.6c-64.6-1.6-112.4-41.2-117.6-45.7c-4.1-3.6-7.7-7.7-10.8-12.1
		c-29.2-13-47.9-41.4-50.6-77.4c-0.8-12.7,0.1-25.5,2.7-38c6.1-27.4,29.9-47.2,58-48h2c23-0.1,44.1,12.8,54.6,33.3
		c5.9,3.8,12,7.2,18.3,10.1c16.3-11,36.9-13.5,55.3-6.7c44.7,16.4,80.4,40.1,106.3,70.6c20.4,24,27.7,44.4,29.5,50.3
		c7.3,23.4,0,48.9-18.7,64.8C919.2,662.2,898.2,670.3,876.3,670.3z"/>
	<path class="st0" d="M899.9,633.7c-4.7,0-9.4-0.4-14-1.3c-15.9-3-29.1-11.1-38.1-23.6c-2.3-2.7-5.1-4.9-8.2-6.5l-3.7-1.9
		c-18.5-10.3-32.8-26.7-40.3-46.5c-7.7-20.5-7.1-42.9,1.8-63.7c-0.1-6.2,0.3-12.4,1.4-18.6c0.2-1.6,0.5-3.2,1-4.8
		c1.4-5.7,3.4-11.2,6-16.4c-0.5-21.4,9.3-42,27-56c12.6-10,28.2-15.4,44.3-15.4c22.7,0,43.4,10.3,58.7,29
		c10.5,12.7,18.4,29.5,24.3,51.3c1.2,4.2,2,8.5,2.5,12.9c4.4,6.6,7.4,14,9,21.7c2.2,11.1,3.6,22.3,4.3,33.6
		c2.2,35.1-4,60.3-19.5,79.3C942.6,624.1,921.8,633.9,899.9,633.7z"/>
	<path class="st0" d="M838.7,586.1c-10.4,0-20.7-2.7-29.9-7.7c-0.8-0.6-1.7-1-2.6-1.4c-10,5.6-21.3,8.5-32.7,8.6
		c-31.6,0-51.3-21-58.4-30.1c-4.1-5.4-7.4-11.4-9.7-17.8c-7.9-23.2-5.8-46.9,5.9-66.5c5.6-9.5,13.4-17.7,22.6-23.9
		c9.3-20.6,29-34.4,51.5-36.1c4.2-0.3,8.3-0.4,12.2-0.4c47.1,0,72.6,21.3,85.8,39.2c28.5,38.6,16.5,84.4,13.8,93.1
		C889.3,568.7,865.5,586.1,838.7,586.1z"/>
	<path class="st0" d="M724.8,558.8c-23.1,0-43.9-8.2-59.9-23.9c-13.7-13.6-22.8-31.1-26.1-50c-12.7-41.7,5.7-76.8,29.7-93.2
		c18.2-12.6,41.8-14.3,61.7-4.5l5,2.7h2.2c6.3-0.1,12.6,0.6,18.8,2.1c4.4,1,8.7,2.5,12.8,4.5c40.8,19.8,48.4,52.8,49.7,66.1
		c4.5,44.4-30.4,73.9-37.5,79.4c-4.7,3.7-10,6.7-15.6,8.8C751.5,556,737.8,558.8,724.8,558.8z"/>
	<path class="st0" d="M766.8,550.4c-28.2,0-52.8-19.3-59.5-46.7c-1.8-7.3-6.4-30.5,0.7-55.3c-2.5-3.9-4.9-7.8-7-11.9
		c-4.8-9.5-14.1-34.8-0.6-66c0.5-1.2,1.1-2.3,1.7-3.5c0.1-12.9,2.4-25.7,6.7-37.9c12.4-34.5,39.2-58,75.7-66c4.3-1,8.8-1.5,13.2-1.5
		h3.4c9.8,0.5,43.6,4.2,65.8,29.7c10.8,12.2,17.2,27.7,18.2,44c34.3,29.2,41.6,60.1,41.3,81.8c0.9,14.8-2.3,29.6-9.5,42.7
		c0.6,11.2,0.1,47.4-27.9,72.2c-21.5,19.2-53.6,20.7-76.9,3.7c-12.8,9.3-28.1,14.4-43.9,14.7H766.8z"/>
	<path class="st0" d="M792.3,506.3c-33.6,0-59.2-10.1-76.2-30.2c-13.6-16.2-19.8-37.8-16.5-57.9c5.7-33.4,37.4-56,70.8-50.5
		c6.1,1,12,3,17.5,5.8c11.1-5.6,23.4-8.6,35.8-8.6c32.4,0,55,20.5,64.5,38c12.3,22.8,9,50.8-8.2,70.1
		c-13.1,14.6-30.8,21.4-53.4,27.1c-11.5,2.9-22,4.9-22.4,5c-3.7,0.7-7.5,1-11.3,1.1H792.3z"/>
	<path class="st0" d="M900.8,888.5c-25.1,0-47.1-3.1-65-9.2c-22.8-7.7-39.3-27.7-41.9-50.9c-2.6-23.2,7.6-45.4,26.8-57.9
		c3.4-2.7,22.6-19.8,26.9-55.6c0.3-2.9,0.9-5.8,1.7-8.6c7.2-26.6,13.5-52.5,14.7-59.1c2.9-33.8,32.6-58.9,66.4-56
		c10.6,0.9,20.9,4.6,29.6,10.6c22.9,15.8,37,42.9,37.5,71.3c3.5,9.6,6.2,19.5,8,29.6c2.4,13.5,2.8,27.2,1.2,40.8
		c1.7,4.9,2.8,10,3.4,15.1c0.8,9.3,1.3,26.9-4.8,44.4c-1.1,17.5-7.2,34.2-17.5,48.4C976.5,866.5,955,885.2,917,888
		C915.7,888.1,909.4,888.5,900.8,888.5z"/>
	<path class="st0" d="M958.1,832.7c-5.5,0-11-0.6-16.4-1.9c-28.3-7-47.8-32.8-46.9-62c1.7-46.1-4.2-70.8-7.9-81.5
		c-1-3.3-2.3-6.5-4.1-9.4c-28.8-17.8-37.9-55.5-20.4-84.5c1.4-2.3,3-4.5,4.6-6.5l21.3-26.4c16-19.9,42.6-27.7,66.8-19.7
		c40.4,13.2,54.5,56.4,59.1,70.6l1,3c14.7,4.9,27.2,14.6,35.5,27.7c16.7,26.2,10.6,54.4,7.1,65.4c-1.8,6-4.6,11.7-8.2,16.9
		c-4.1,33.7-13.4,59-28.6,77.5C1005.8,820.3,981.9,832.7,958.1,832.7z"/>
	<path class="st0" d="M976.6,884.2h-1.3c-20.2-0.4-39.1-9.9-51.5-25.8c-19.2-24.4-16.5-54.8-15.6-64.7c0.7-7.7,1.9-15.3,3.4-22.8
		c2.4-11,7.8-21,15.5-29.1c2.5-3.9,8.6-19,11.6-33.8c5.6-27.4,29-47.5,56.9-49h3.3c8.8,0,17.5,1.9,25.4,5.6c14.4,1,28,7.2,38.2,17.4
		c14,13.4,22.2,31.8,22.7,51.2c0.5,14.7-2.7,29.2-9.3,42.3c0.1,2.5,0,5.1-0.3,7.6c-5.7,58.8-53,89.4-80,98.2
		C989.4,883.2,983,884.2,976.6,884.2z"/>
	<path class="st0" d="M905,997.3c-15.1,0-29.6-5.6-40.9-15.6L846.4,966c-5.5-4.9-10-10.8-13.4-17.3
		c-78.7,38.4-143.4,44.6-176.3,44.6c-5.9,0-11.4-0.2-16.7-0.5c-5.3-0.3-10.8,0.5-16.6,0.5c-33,0-97.7-6.1-176.3-44.6
		c-3.5,6.5-8,12.4-13.5,17.3L416,981.7c-25,22.4-63.3,20.5-86-4.2c-13.1-14.8-23.1-32.2-29.2-51c-13.7-42.2-5.5-85.3,22.7-121.2
		c1.8-2.4,3.9-4.5,6.1-6.5c7.1-6.9,34-29,76.5-29c21.2,0,42.1,5.6,62.3,16.7c11.5,4.9,59,24.9,101.5,36c13.2,1.1,32,5,53.1,17h1.2
		c5.4,0,10.7,0.7,15.8,2.1c5.2-1.4,10.5-2.1,15.8-2.1h1.2c21.2-11.9,40.1-15.9,53.1-17c42.4-11.2,90.1-31.1,101.6-36
		c20.2-11.1,41.1-16.7,62.3-16.7c42.5,0,69.4,22.2,76.5,29c2.2,2,4.2,4.2,6,6.5c28.3,35.9,36.4,79,22.7,121.2
		c-6.1,18.8-16,36.2-29.1,51C938.4,990.1,922.1,997.3,905,997.3z"/>
	<path class="st0" d="M708.6,1073.1c-26.3,0-49.6-16.6-58.2-41.5c-4-11.6-22.2-71.8,10-119.2c13.1-19.3,38.5-42.8,85.8-45.1h3.1
		c19.8,0,38.4,9.6,49.9,25.8c5.1,7.1,29.6,44.8,15.9,92.4c-10.3,36.4-38.3,64.3-83.1,83C724.7,1071.6,716.7,1073.2,708.6,1073.1z"/>
	<path class="st0" d="M652.8,1032.5c-26.2,0-49.6-16.7-58.2-41.5c-3.5-10.3-13.4-46.3,8.2-78.3c13.8-20.4,35.8-32.3,61.9-33.6h3.1
		c19.8,0,38.5,9.6,49.9,25.8c10.7,14.9,19.2,40.4,11.6,67.3c-5,17.4-18.2,41.3-53,55.7C668.9,1031,660.9,1032.6,652.8,1032.5z"/>
	<path class="st0" d="M767,1054.5c-23.6-0.2-45.1-13.7-55.4-34.9c-9.2-19.3-13.4-49.3,2.5-75.6c8-13.2,27.4-35.5,67.7-37h2.2
		c16.3,0,32,6.5,43.5,18.2c14.1,14.3,26.6,39.9,19.2,69c-4,15.8-17.4,44.4-62.1,57.7C778.9,1053.6,773,1054.5,767,1054.5z"/>
	<path class="st0" d="M642.6,924.6h-5.2c-13.3,0-26.5-3.2-33.4-5.2c-3.6-0.8-7.4-1.3-11.1-1.3c-4.3,0-8.5,0.4-12.7,1.3
		c-5.4,1.5-11,2.3-16.6,2.3c-17.8-0.2-34.7-8.1-46.2-21.7c-25.5-30.1-23.4-58.9-19.7-73.5c6.9-28.3,28.7-46.1,47-53.5
		c7.3-3,15-4.6,22.9-4.5l5.4,0.2c26.6-19,51.6-22.1,64.7-22.1h4.6c13.2,0,38.2,3.1,64.7,22.1l5.4-0.2c7.9-0.1,15.7,1.5,23,4.5
		c18.2,7.4,40,25.2,47,53.5c3.6,14.6,5.7,43.5-19.8,73.5c-11.5,13.7-28.4,21.6-46.2,21.7c-5.6,0-11.2-0.8-16.6-2.3
		c-4.1-0.8-8.3-1.3-12.6-1.3c-3.8,0-7.5,0.4-11.2,1.3C669,921.4,655.8,924.6,642.6,924.6z"/>
	<path class="st0" d="M778.9,1026.4c-10,0-44.2-3.2-62.3-43.3c-2.3-5.1-3.8-10.5-4.8-16c-1.1-8-1.5-16-1.4-24.1
		c0.6-23.2,7.2-42.8,19.3-58c13.2-16.7,32.9-27,54.2-28.3h4.5c21.6,0,41.2,10.5,52.2,28.1c11,17.6,12.8,40.8,3.1,59.7
		c2.8,11.2,2.3,22.9-1.3,33.8C833,1007.5,808,1026.4,778.9,1026.4z"/>
	<path class="st0" d="M642.3,949.7h-4.6c-20.6,0-41.5-8.1-52.2-13l-5.2-2.6c-4.5-0.8-9.1-1.2-13.6-1.1c-1.1-0.1-2.1,0-3.2,0.1h-3.8
		c-33.9-0.1-61.3-27.6-61.2-61.5c0-16.3,6.6-32,18.2-43.4c16.7-16.6,38.7-25.3,64-25.3c14.2,0,28.3,2.6,41.6,7.7l4,1.7
		c4.5,1,9,1.7,13.6,1.9c4.6-0.2,9.1-0.8,13.6-1.9l4-1.7c13.3-5.1,27.4-7.7,41.6-7.7c25.2,0,47.3,8.8,64,25.3
		c24.1,23.9,24.4,62.8,0.5,86.9c-11.5,11.6-27.1,18.2-43.5,18.3h-7c-4.6-0.1-9.1,0.2-13.6,1.1c-1.6,1-3.4,1.8-5.2,2.6
		C683.8,941.6,662.9,949.7,642.3,949.7z"/>
	<path class="st0" d="M951.4,951.8c-25.9,0-50.3-12-65.1-32.1c-11.5-15.5-22.8-42.5-10.6-82.8c9.6-31.9,42.9-50.3,75-41.4
		c8.1,2.2,49.3,15.3,63.5,55.3c5.2,14.5,10.3,43.6-12.5,75.4c-11,14.9-28,24.3-46.6,25.5C954.8,951.7,953.6,951.8,951.4,951.8z"/>
	<path class="st0" d="M1062.4,1090.4c-4.3,0-8.6-0.5-12.9-1.4c-50.1-10.8-87.7-27.7-111.8-50.4c-27.9-26.3-31.1-53.4-31.3-63.9
		c0-4.8,0.5-9.6,1.6-14.4c5.9-25.9,19.2-46.9,38.4-60.6c22.4-15.8,50.5-21.5,77.3-15.6c2.8,0.6,5.6,1.5,8.2,2.5
		c37.8,14.5,65.6,44.2,80.8,86.1c6.3,17.4,10.1,35.7,11.1,54.2c1,33.9-25.6,62.3-59.5,63.3L1062.4,1090.4z"/>
	<path class="st0" d="M929.8,986.1c-23.8-0.1-45.5-13.9-55.6-35.5c-8.9-19.1-12.7-48.5,3.4-73.7c13.4-21.1,36.7-33.3,63.8-33.3
		c2.7,0,5.5,0.1,8.2,0.3c33.7,2.7,58.8,32.3,56.1,66c0,0.1,0,0.2,0,0.3c-0.1,1.3-0.2,2.6-0.4,3.9c-3.5,23.3-19.6,55.2-53.9,68
		C944.4,984.8,937.1,986.1,929.8,986.1z"/>
	<path class="st0" d="M928.4,906.7c-22.5,0-40.2-9.8-46.9-14c-24.4-15.7-34.6-46.4-24.4-73.6c11.1-29.2,39.4-47.3,73.9-47.3
		c7.9,0,15.8,0.8,23.5,2.5c33.1,7.3,54,40,46.7,73.1c0,0.1,0,0.1,0,0.2c-0.2,1.1-0.5,2.1-0.8,3.2c-4.3,16-13.5,30.2-26.5,40.4
		c-13,10.1-28.9,15.6-45.4,15.5L928.4,906.7z"/>
	<path class="st0" d="M855.6,864.3c-6.1,0-12.2-0.7-18.2-2.1c-22.5-5.4-40.1-23-45.5-45.5c-10.1-42.5,14.3-76.1,41.2-89.3
		c25.1-12.4,55.5-6.1,73.6,15.3l9.9,11.6c15.9,18.5,19.3,44.6,8.8,66.5C912.4,848.2,886.2,864.3,855.6,864.3z"/>
	<path class="st0" d="M944.6,1028.8c-15.4,0-30.1-5.8-41.5-16.2L888,998.8c-25-23-26.6-61.8-3.7-86.8c8-8.7,18.4-14.9,29.9-17.9
		c17.8-16.3,42.1-23.6,65.9-19.7c21.6,3.6,39.7,18.5,47.3,39.1c5.4,14.4,13.4,51.5-26.8,88.4c-7.5,6.8-15.6,12.8-24.2,18.2
		C966.8,1025.8,955.8,1028.8,944.6,1028.8z"/>
	<path class="st0" d="M1110.2,1110.1c-5.9,0-11.8-0.9-17.4-2.5l-30.2-9c-22.8-6.8-39.6-26.1-43.3-49.6c-6.1-39.3,6.9-66.2,18.9-81.9
		c8-10.8,18.3-19.7,30.2-26c20.5-23.7,55.6-28.1,81.3-10.1l26.8,18.5c19.9,13.9,29.8,38.1,25.3,61.9c-6.8,35.1-35.4,67.8-47.4,80.1
		C1142.8,1103.3,1126.9,1110,1110.2,1110.1z"/>
	<path class="st0" d="M1076.4,1055.5c-3.2,0-6.3-0.2-9.5-0.4c-14.8-1.6-28.5-8.4-38.7-19.2c-30.4-32.6-27.2-74.4-11.5-99.5
		c10.6-16.9,28.8-27.5,48.8-28.5l34.5-1.8h3.2c30-0.2,55.7,21.6,60.5,51.2c4.3,25.7-1.9,49.9-17.4,68.3
		C1130.7,1044,1105.1,1055.5,1076.4,1055.5z"/>
	<path class="st0" d="M726.9,500.8c-16.3,0-32-6.5-43.5-18.1c-5.1-5.1-29.9-32.1-26.2-70.9c1.8-18.2,10.2-44.2,40.5-64.7
		c28-19.1,66.1-11.9,85.2,16.1c7.8,11.4,11.5,25.1,10.5,38.9c4,12.5,7.6,33.5-2.1,55.5c-8.8,19.8-25.5,34.3-47.2,40.8
		C738.6,500,732.7,500.8,726.9,500.8z"/>
	<path class="st0" d="M720.3,456.5c-20.3,0-39.6-9.2-52.4-25c-14.4-18.1-17.4-42.8-7.7-63.9c20.6-44.7,52.5-51.3,69.7-51.3
		c30.2,0,51,19.1,60.4,37c10.7,20,9.4,44.4-3.4,63.1C764.7,449.5,738.4,456.5,720.3,456.5L720.3,456.5z"/>
	<path class="st0" d="M754.9,410.4h-3.4c-18.7-1.1-36.7-10.1-49.7-25c-16.3-18.7-23.1-44-20.4-75.4c0.6-6.3,2.1-12.5,4.4-18.4
		c10.8-25.9,38.9-51.9,77.5-51.9c21.4,0,42.8,7.9,63.3,23.6c17.9,13.7,27.1,35.6,24.2,56.9c-3,21.3-16.2,38.9-35.4,47.3
		c-1,0.6-1.9,1.4-2.6,2.3C803.9,394.2,780.8,410.4,754.9,410.4z"/>
	<path class="st0" d="M702.5,630.5c-9.8-0.1-19.5-2.5-28.3-6.9c-8.9-4.8-17.4-10.2-25.5-16.2c-26.8-20-41.1-43.1-42.5-68.8
		s11.2-50.7,34.5-66.2c22.7-15.2,52.7-13.4,73.6,4.2c8.7,7.4,16.8,15.5,24.1,24.3c35.6,42.3,27.7,77.1,19.8,94
		C748.1,616.6,726.4,630.5,702.5,630.5z"/>
	<path class="st0" d="M783.2,896.1c-49.3,0-90.8-36.9-96.5-85.9c-3.3-28.5,13.5-55.4,40.5-64.9l1.6-0.5c0.2-0.5,0.3-1.1,0.5-1.6
		c9.5-27.1,36.4-43.9,64.9-40.6c53.3,6.1,91.5,54.3,85.4,107.6C874,859.1,832.5,896.1,783.2,896.1z"/>
	<path class="st0" d="M919.5,489.9c-34.8,0-60.7-20.5-73.4-39.6c-23.4-33.9-23.6-63.8-19.7-82.8c4.5-22.2,17.1-42.1,34.5-54.9
		c10.5-7.7,23.2-11.8,36.2-11.8h2.1c50.1,1.8,97,15.3,98.9,15.9c32.5,9.5,51.2,43.5,41.7,76.1c0,0,0,0,0,0.1h-0.1
		c-0.1,0.8-0.4,1.5-0.7,2.2c-12.5,37.1-42.3,61-55.4,70.1C963.5,481.6,941.9,489.9,919.5,489.9z"/>
	<path class="st0" d="M931.5,505.4c-20.5,0-38.6-6.9-52.6-19.8c-24.7-23.1-26.2-61.8-3.2-86.7c5.9-6.3,13.1-11.4,21-14.8
		c15.8-6.9,34.8-20.3,37.9-25.7c10.8-19.7,31.5-32,53.9-32h2.4c23.4,0.7,44.3,14.9,53.6,36.3c4.1,9.2,12.6,33.4,2.6,58.9
		c-1.4,3.6-3.2,7.1-5.3,10.5c-5.6,8.9-36.1,53.8-87.5,70.1c-2.2,0.7-4.5,1.3-6.8,1.7C942.4,504.8,936.9,505.3,931.5,505.4z"/>
	<path class="st0" d="M964.1,608.8c-20.5,0-38.7-6.7-52.8-19.1c-25.3-22.6-27.5-61.4-5-86.8c6.3-7,14.1-12.5,22.8-16
		c20.3-8.3,42.3-23.6,46.1-30.3c11-19.1,31.3-30.9,53.3-30.9h2.4c23,0.8,43.5,14.4,53.2,35.3c4.5,9.6,13.8,34.9,3,61.8
		c-1.6,3.7-3.5,7.3-5.6,10.7c-6.2,9.2-39.4,55.8-94.5,72.5l-6.7,1.6C975.1,608.3,969.6,608.8,964.1,608.8z"/>
	<path class="st0" d="M1031.5,702.6c-20.8,0-39.3-6.4-53.5-18.6c-25.7-22-28.8-60.7-6.9-86.6l0,0c6.6-7.7,15-13.7,24.5-17.4
		c23.1-9.1,51.3-27.1,56.9-36.4c11.1-18.5,31.1-29.9,52.7-29.9h2.5c22.5,0.8,42.7,14,52.6,34.3c5,10.1,15.3,36.7,3.3,64.7
		c-1.6,3.8-3.6,7.4-5.9,10.8c-4.1,5.9-42,58.6-103.3,76.2c-2.1,0.6-4.1,1.1-6.2,1.5C1042.6,702.1,1037.1,702.6,1031.5,702.6z"/>
	<path class="st0" d="M1081.8,801.1c-20.8,0-39.3-6.4-53.5-18.6c-25.7-22-28.8-60.7-6.9-86.6l0,0c6.6-7.7,15-13.7,24.5-17.4
		c23.1-9.1,51.3-27.1,56.9-36.4c11.1-18.5,31.1-29.9,52.7-29.9h2.6c22.5,1,42.6,14.1,52.6,34.3c5,10.1,15.2,36.7,3.3,64.7
		c-1.7,3.8-3.6,7.4-5.9,10.8c-4.1,5.9-42,58.6-103.3,76.2l-6.3,1.5C1093,800.6,1087.4,801,1081.8,801.1z"/>
	<path class="st0" d="M954.1,588.1c-10.2,0-20.4-1.2-30.3-3.4c-15.6-3.5-29.2-13-38-26.3c-4.9-7.4-29-47.1-26.3-99
		c1.7-32.6,28.7-58.1,61.3-58.1h1.1c3.1-0.6,20.9-5.6,41.3-38.4c10.6-17.2,29-28,49.2-28.9h3c19.2,0.1,37.2,9,48.9,24.2l28.1,36.8
		c11.3,14.7,15.3,33.7,10.9,51.6c-5.8,22.5-14.8,44.1-26.6,64.2c-12.1,20.5-26.6,37.2-42.9,49.8
		C1009.8,578.8,983.1,588.1,954.1,588.1z"/>
	<path class="st0" d="M986.6,692.3c-6,0-12.2-0.3-18.4-0.8c-14.5-1.3-28-7.7-38.2-18.1c-4.6-4.6-45.1-47.4-46-108.2
		c-0.3-17.3,5.9-33.2,17.3-44.6c11.1-11.4,26.3-17.8,42.1-17.8c5.6-0.6,42.8-7,76-57.3c18.7-28.3,56.7-36.1,85-17.4c0,0,0,0,0,0h0.1
		c2.3,1.5,4.5,3.1,6.5,5l42.4,37.1c16.9,14.7,24.4,37.4,19.6,59.2c-1.5,6.7-9.8,41.7-33.9,78.1c-15.7,23.8-34.7,43-56.7,57.1
		c-28.5,18.4-60.8,27.7-96,27.7L986.6,692.3z"/>
	<path class="st0" d="M1049.4,778.4c-5.6,0-11.4-0.2-17.1-0.7c-14.1-1.3-27.4-7.3-37.7-17.1c-4.6-4.5-45.3-45.7-46-104.8
		c-0.2-17.2,5.9-32.9,17.4-44.3c11.5-11.4,26.1-17.7,41.9-17.8c5.4-0.6,41.6-6.4,73.9-53.2c19.3-27.9,57.5-34.9,85.4-15.6l4.6,3.4
		l41.2,34.5c17.7,14.8,25.7,38.3,20.6,60.8c-6.9,26.8-18.5,52.2-34.2,75c-15.6,22.6-34.4,40.9-56.3,54.2
		C1115.2,769.7,1083.6,778.4,1049.4,778.4L1049.4,778.4z"/>
	<path class="st0" d="M1063.7,856.6c-7.2,0.1-14.4-0.8-21.4-2.7c-4-1.2-7.9-2.8-11.6-4.6c-27.1-14.1-43-41.8-42.4-73.9
		c0.1-11,2.1-22,5.7-32.4c8.1-22.5,28.5-38.3,52.3-40.4c9.8-0.8,41.2-12.7,64.5-24.4c30.3-15.1,67.1-2.9,82.3,27.4
		c0,0,0,0.1,0.1,0.1c4.2,8.5,6.4,17.9,6.3,27.4c0,3.4-0.2,6.8-0.8,10.1l-3.7,22.5c-2.2,13.1-8.5,25.2-18.2,34.3
		C1127.5,846.7,1088.2,856.6,1063.7,856.6L1063.7,856.6z"/>
	<path class="st0" d="M639.5,1145.8c-124.1-1.2-186.3-30-202.8-39.1c-40.1-20.8-48.7-50.9-50.1-66.9c-2.9-30.4,13.4-54.7,29.6-67.3
		c22.5-17.5,54.1-17.1,76.2,0.8c39.9,32.3,108.8,34.7,129,34.7c8.1,0,13.3-0.3,13.8-0.4l4.8-0.2l4.9,0.2c0.8,0.1,5.8,0.4,13.7,0.4
		c20.2,0,89.2-2.5,129.1-34.7c22.1-18,53.7-18.3,76.2-0.8c16.3,12.6,32.5,36.7,29.6,67.3c-1.6,16-10.1,46.1-50.1,66.9
		c-16.5,9.1-78.9,37.9-202.8,39.1H639.5z"/>
	<path class="st0" d="M1152.5,1051.5h-1.6c-16.6-0.5-32.3-7.6-43.6-19.7c-3.4-3.8-6.5-7.8-9.6-11.9c-13.6-5.2-24.9-15-32-27.8
		l-0.5-1c-12.6-7.5-22.3-19.2-27.1-33c0-0.1-0.1-0.2-0.1-0.4c-9.7-8.2-18.1-17.9-24.7-28.7c-22-10-36.2-31.9-36.2-56.1v-0.6
		c0.1-24.2,14.2-46,36.2-56.1c6.6-10.9,14.9-20.6,24.7-28.7c4.7-14.1,14.4-25.9,27.2-33.4l0.4-0.7c7-12.8,18.4-22.8,32.1-28l1.5-2
		c6.9-9.4,15.1-17.7,24.4-24.6c10-21.8,31.8-35.7,55.7-35.7h0.5c24,0,45.8,14,55.8,35.8c14.3,10.8,40.4,35.7,44.1,76
		c0.2,2.3,0.2,4.6,0.2,7.1c-0.2,10.3-0.7,20.7-1.5,30.8c-4.4,38.5-39.1,66.3-77.6,62.1c-4.5-0.5-8.9-1.5-13.2-2.7
		c0,0.2-0.1,0.3-0.3,0.4c5,5.6,8.9,12.2,11.5,19.2c6.9,8.2,11.6,18.1,13.4,28.6c1.8,1.7,3.5,3.5,5.2,5.3
		c19.1,20.9,21.2,52.2,5.2,75.6c-8,11.7-17.1,22.7-27.2,32.6C1184,1045.2,1168.6,1051.5,1152.5,1051.5z"/>
	<path class="st0" d="M1182.3,959.2h-3.3c-45.1-1.8-81.3-37.8-83.3-82.9c-0.1-1.3-0.1-2.5-0.1-3.7s0-2.7,0.1-4.1
		c2.1-45,38.3-80.9,83.3-82.8h6.9c45.1,1.8,81.3,37.8,83.3,82.9c0.1,1.3,0.1,2.4,0.1,3.7v0.4c0,1.3,0,2.5-0.1,3.8
		c-2.2,45-38.3,80.9-83.3,82.7L1182.3,959.2L1182.3,959.2z"/>
	<path class="st0" d="M1182.3,950.3h-4.2c-39.2-2.4-70.5-33.5-73.3-72.6c-0.1-1.6-0.2-3.3-0.2-4.9l0,0c0-1.7,0.1-3.5,0.2-5.2
		c2.8-39.1,34.1-70.2,73.3-72.6h8.8c39.3,2.3,70.7,33.6,73.3,72.8c0.1,1.6,0.2,3.3,0.2,4.9v0.2c0,1.7-0.1,3.3-0.2,5
		c-2.8,39.1-34.1,70.1-73.3,72.5h-4.5V950.3z"/>
	<path class="st0" d="M1180.5,1012.4c-19,0-36.9-8.8-48.6-23.9c-4.5-3.8-8.7-7.9-12.6-12.4c-8.2-4.6-15.3-10.9-20.7-18.6
		c-7.4-5.7-13.5-13.1-17.7-21.4c-3.6-3.6-6.9-7.4-9.9-11.5c-17.9-11.2-28.8-30.9-28.8-52v-0.3c-0.1-21.2,10.9-40.9,28.8-52
		c3-4.1,6.3-7.9,9.9-11.5c4.2-8.4,10.3-15.8,17.7-21.5c5.4-7.7,12.5-14,20.7-18.6c3.4-4.1,7.2-7.9,11.3-11.3
		c11.3-17.5,30.7-28,51.5-28h0.5c20.8-0.1,40.2,10.5,51.5,28c4.1,3.5,7.9,7.3,11.3,11.4c23.1,12.6,35.5,38.6,30.8,64.5
		c0,1.6-0.1,3.2-0.3,4.9c0.1,3,0,6-0.4,9c-1.1,8.4-2.3,16.7-3.6,24.5c-1.2,6.7-3.4,13.2-6.8,19.1c0.5,6.9-0.3,13.8-2.1,20.5
		c-7.5,26.8-17.5,50.8-29.9,71.3C1222.2,1001,1202.2,1012.3,1180.5,1012.4z"/>
	<path class="st0" d="M96,1139h-9c-33.9-0.4-61.1-28.2-60.8-62.1c0.3-29.3,21.3-54.3,50.1-59.7c44.8-9.3,88.9-21.6,132-36.8
		c87.9-31.3,150.9-68.6,182.1-108c14.2-18,37.3-26.5,59.8-22.2c8.9,1.7,53.9,12.4,73.5,54.6c9,19.2,15,50.3-6.7,88.8
		c-3.1,5.6-7.1,10.7-11.8,15c-3.9,3.6-40.1,36.2-108.5,68c-40.6,18.7-83,33.1-126.6,43.1C215.1,1132.6,156.4,1139,96,1139z"/>
	<path class="st0" d="M1184,1139c-60.3,0-119.1-6.5-174.2-19.3c-43.6-10-86-24.5-126.7-43.1c-68.4-31.8-104.5-64.3-108.5-67.9
		c-4.6-4.4-8.6-9.5-11.8-15c-21.6-38.5-15.5-69.6-6.7-88.8c19.5-42.2,64.7-52.9,73.5-54.6c22.5-4.4,45.5,4.2,59.8,22.2
		c31.3,39.4,94.2,76.8,182.1,108c43.2,15.2,87.3,27.5,132.1,36.8c33.3,6.5,55,38.8,48.5,72.1c-5.6,28.4-30.2,49.1-59.1,49.6
		L1184,1139z"/>
	<path class="st1" d="M683.3,393.3c-21.1-0.1-38.7-16.1-40.8-37.2c-0.4-2.1-1.3-4.1-2.5-5.9c-1.2,1.8-2,3.8-2.5,5.9
		c-2.1,22.5-22,39.1-44.5,37.1c0,0,0,0,0,0c-2.6-0.3-5.3-0.8-7.8-1.5c-32.4-9.6-49.8-29.5-53-33.4c-1.5-1.9-2.7-3.9-4-5.9
		c-15.4-27.7-12.8-58.6,7.3-85c6.7-8.6,14.5-16.2,23.2-22.6c11.5-45.6,51.1-77.6,56.3-81.6c14.8-11.5,35.5-11.5,50.3,0
		c5.2,4,44.8,36.1,56.3,81.6c8.8,6.3,16.7,13.9,23.2,22.6c20,26.3,22.6,57.3,7.3,85c-1.2,2.1-2.5,4.1-4,5.9
		c-3.2,3.9-20.6,23.9-53,33.4C691.1,392.8,687.2,393.4,683.3,393.3z"/>
	<path class="st1" d="M684.3,450c-12.9,0-28.6-3.6-44.3-15.9c-15.5,12.5-31.4,15.9-44.2,15.9c-12.9,0-25.5-3.8-36.2-11
		c-5.9-4.3-10.5-9.9-13.6-16.5c-2-4.8-4.4-9.4-7.3-13.7c-18.9-3.4-29.2-13.9-34.1-20.6c-9-12.7-11.6-28.9-6.9-43.7
		c2-5.9,5.2-11.3,9.5-15.8c14.6-15,32.6-23,52.2-23c8.3,0,16.6,1.4,24.5,4.2c9.4-12.3,20.6-23,33.3-31.8c13.9-9.4,32.1-9.4,45.9,0
		c12.6,8.8,23.9,19.5,33.3,31.8c7.9-2.8,16.1-4.3,24.5-4.2c19.5,0,37.5,7.9,52.2,23c4.3,4.5,7.6,9.9,9.5,15.8
		c4.7,14.8,2.2,31-6.9,43.7c-4.9,6.7-15.2,17.2-34.1,20.6c-2.8,4.4-5.2,9-7.3,13.7c-3.1,6.5-7.8,12.2-13.6,16.5
		C709.8,446.2,697.2,450,684.3,450z"/>
	<path class="st1" d="M653.2,576.7c-4.5-0.1-8.9-0.7-13.2-1.8c-4.3,1.2-8.7,1.8-13.1,1.8l0,0c-2.2-0.1-4.4-0.2-6.7-0.5
		c-14.5-2.2-26.8-12-32.2-25.7c-3.8-9.8-7-19.9-9.6-30.1c-7.3-28.4-7.2-49.2,0.2-65.6c5.4-12.2,15.3-21.9,27.8-26.8
		c5.7-2.4,18.5-7.1,31.7-7.1h3.8c13.2,0,25.9,4.6,31.7,7.1c12.4,5,22.3,14.6,27.7,26.8c7.4,16.4,7.5,37.3,0.3,65.6
		c-2.7,10.2-5.9,20.2-9.6,30.1c-5.4,13.7-17.7,23.5-32.3,25.7C657.5,576.5,655.4,576.7,653.2,576.7z"/>
	<path class="st1" d="M733.1,685.3c-32.5,0-56.2-9.6-70.5-28.6c-3.7-5.1-6.7-10.7-8.9-16.7l-5.5-2.6c-2.7-1.5-5.5-3.2-8.2-5
		c-2.6,1.8-5.4,3.4-8.2,5c-2.9,1.6-3.7,1.9-5.5,2.6c-2,6-5,11.6-8.9,16.7c-14.3,19-38,28.6-70.5,28.6l0,0
		c-11.9-0.1-23.8-1.2-35.5-3.4c-3.1-0.7-6.2-1.7-9.2-3c-28.7-13.3-34.9-34.1-36-45.4c-2.1-21.3,9.8-38.3,21.7-47
		c4-2.9,8.6-5.1,13.4-6.4c74.9-20.4,99-51.3,102.3-56.1c6.4-14.9,20-24.5,36.2-24.5s29.7,9.6,36.2,24.5
		c3.3,4.8,27.4,35.8,102.3,56.1c4.9,1.2,9.4,3.4,13.4,6.4c11.9,8.8,23.9,25.7,21.7,47c-1.2,11.2-7.3,32-36,45.4
		c-2.9,1.3-5.9,2.3-9,3C756.9,684.1,745,685.2,733.1,685.3z"/>
	<path class="st1" d="M610.4,844c-6.8-0.1-13.6-1-20.2-2.6C564,839.7,532,825,512,788.6c-7.6-5.7-15.7-10.7-24.1-15.2
		c-5.5,3.5-11.6,5.8-17.9,7c-9.6,20.4-33.8,29.3-54.4,20c-2.8-1.3-5.5-3-7.9-4.9c-5.9-4.6-35.5-30.7-35.5-92.2
		c0-15.3,8.1-29.7,21.7-36.7c5.9-3.1,12.4-4.7,19-4.6c8.2,0,16.2,2.5,22.9,7.3c3.4,2.1,12.1,6.1,19,6.1c1.4,0,2.8-0.2,4.1-0.7
		l4.2-1.8c10.7-3.5,22-5.2,33.3-5.1c34.7,0,66.5,15.2,90.6,43.2c5.4-1.3,11-1.9,16.6-1.9c15.1,0,43.6,5.1,65.4,38.6
		c3.8,6,6,12.8,6.4,19.8c0.4,8.2,0.4,36.5-19.3,57.4C644.4,837.3,628.2,844,610.4,844z"/>
	<path class="st1" d="M399.2,798.3c-2.3-0.1-4.8-0.2-7.2-0.5c-10.2-1.7-19.3-7.1-25.8-15.2c-2.5-3.2-24.4-32.4-22.7-72.4
		c0.3-6.2,1.9-12.2,4.9-17.6c-0.5-10.5,0.1-20.9,1.8-31.3c-3.6-14.3-3.3-29.4,0.8-43.6c5.1-16.9,20.1-29.7,37.7-30.2h1.3
		c17,0,31.9,9.7,37.9,25.7c2.3,3.8,5,7.4,8.2,10.5c7.5-4.2,17.4-7.4,30.1-7.4c8.9,0.1,17.7,1.4,26.3,3.9l22.1,5.7l4,1.1
		c5-1.8,10.2-2.7,15.5-2.6c11.5,0,22.6,4,32.7,11.9c1,0.7,1.9,1.4,2.7,2.3c7.2,6.8,13.7,14.3,19.5,22.3c7.2,1.3,13.9,4.6,19.3,9.6
		c3.9,3.5,23.8,22.7,24.6,52.3c0.4,13.7-3.2,34.3-22.8,54.1c-7.7,7.7-18.1,12.1-29,12.1h-2.5c-11.8-0.8-22.6-6.6-29.9-15.8
		c-11.9-15.3-27.6-31.9-37.1-39.4c-15.7,4.1-42.1,10-65.5,10c-0.8,15.9-4.4,28.7-13.2,39C424.6,792.6,412.2,798.3,399.2,798.3z"/>
	<path class="st1" d="M450.9,682.2c-27.7,0-43.8-15.1-48.1-19.7c-2.5-2.8-4.7-5.9-6.4-9.3c-13.8-27-10.5-49.3-5.2-63.1
		c11.5-30.4,39.9-42.8,45.4-44.9c15.7-6.2,33.7-2.1,45.1,10.5c10.2-5.4,20.8-9.9,31.7-13.5l3.2-0.8c3.8-0.8,5.5-2.6,6.1-3.6
		c6.5-13.8,20.2-22.8,35.5-23.3h1.5c15.5-0.1,29.7,8.7,36.6,22.6c18.8,37.6,4.9,71.4-16,86.8c-6.7,4.9-14.8,7.7-23.1,8
		c-7.1,1.2-26.7,11.7-41.3,22.4C494.5,672.7,472.7,682.2,450.9,682.2z"/>
	<path class="st1" d="M403.7,649.8c-17,0-33.5-6.3-47.5-18.4c-12.3-10.7-17.2-27.6-12.5-43.2c2.2-7.2,24.7-71.7,123.2-107.7
		c15.8-5.8,33.6-1.3,44.8,11.3c15.9-6.3,32.8-15.6,38.5-21.1c6.2-15.5,21.2-25.6,37.9-25.5h1.4c18.7,0.6,34.6,13.8,38.6,32.1
		c2.1,10.6,2.9,21.4,2.3,32.2c-2.2,30.9-18.2,53.6-43.8,62.3h-0.3c-2.5,5-6,9.4-10.1,13.1c-4.6,4-47.3,39.3-104.8,40.8h-1.1
		c-3.7-0.1-7.5-0.6-11.1-1.5c-0.5,0.6-1.1,1.4-1.7,2c-3.7,3.7-23.5,23.5-53.8,23.5L403.7,649.8z"/>
	<path class="st1" d="M380.1,613.3c-15.7,0.1-30.7-7-40.5-19.2c-12-14.7-16.8-35.4-14.9-65c0.7-10.4,2-20.7,3.9-30.9
		c1.4-6.7,4.4-13,8.8-18.3c0.3-5.1,1.1-10.2,2.4-15.1c5.2-19,11.8-33.3,20.4-43.7c11.4-13.8,26.6-21.5,42.9-21.5
		c11.5-0.1,22.7,3.8,31.8,11c13.9,10.9,21,27.2,18.9,43.8c0.1,0.1,0,0.3-0.1,0.5c3.2,5.2,5.6,10.8,7,16.7l0.6,3.2
		c1.1,6.4,1.3,12.9,0.7,19.3c0,0.1,0.1,0.1,0.1,0.2c18.6,37.2-0.4,73.1-27.8,88.1l-2.4,1.3c-9,4.1-15.7,12.5-15.7,12.6
		c-6.2,8.4-15.4,14.2-25.7,16.2C387,612.9,383.5,613.2,380.1,613.3z"/>
	<path class="st1" d="M441.3,565.6c-17.9-0.1-33.8-11.8-39.2-28.9c-2.2-7.1-12-44.2,10.7-75c10.3-14,30.8-30.8,69.4-30.8
		c3.5,0,7.1,0.1,10.8,0.4c17.1,1.3,31.6,13.1,36.3,29.6c9,4.7,16.5,11.8,21.7,20.6c8.7,14.4,10.1,31.9,4.1,49.4
		c-1.5,4.3-3.6,8.3-6.4,11.9c-5.2,6.7-19.7,22.2-42.2,22.2c-11.4,0-22.5-4.2-31-11.8c-4.6,2.1-9.3,4.5-14.3,7.3
		C455.1,563.9,448.3,565.6,441.3,565.6z"/>
	<path class="st1" d="M555.2,538.3c-11.5-0.2-22.9-2.5-33.6-6.8c-3.7-1.5-7.2-3.5-10.5-5.8c-5.6-4.3-33-27.4-29.6-61.1
		c1.3-12.2,7.9-35.1,38.3-49.8c2.7-1.4,5.6-2.4,8.6-3.1c7.2-1.7,14.7-2,22.1-1.1c14.1-11.7,34.2-12.6,49.3-2.2
		c18.1,12.4,31.6,39.6,21.3,71.7C616.8,509.6,593.5,538.3,555.2,538.3z"/>
	<path class="st1" d="M512.5,530c-17.3-0.3-33.4-8.5-43.9-22.2c-2.4,2.1-4.9,4.3-7,6.4c-7.7,8.2-18.4,12.8-29.6,12.8
		c-10,0-19.7-3.7-27.2-10.3c-21.4-19-21.5-47.7-21-56.1c0.1-1.6,0.3-3.2,0.5-4.8c0.2-1.6,0.1-0.5,0.1-0.7
		c-7.5-11-11.1-24.2-10.1-37.5c-0.5-20,7.2-46.8,41.4-72.4c0.1-0.2,0-0.4-0.1-0.6c-1.2-14.4,3.6-28.6,13.1-39.5
		c17-19.3,43.7-22.3,51.5-22.7h2.2c2.9,0,5.9,0.3,8.8,1c29.4,6.4,51,25.2,60.8,52.9c3.9,10.9,5.7,22.4,5.4,33.9
		c0,0.8,0.1,1.7,0.1,2.5c1.3,2,2.4,4,3.3,6.2c10.2,23.6,2.7,42.8-0.2,48.7l0,0c-3.1,6.3-7.1,12.2-11.7,17.5
		c10.6,23.3,5.3,48.4,3.9,54.1c-4.5,18.2-20.9,31.1-39.7,31C512.9,530,512.7,529.9,512.5,530z"/>
	<path class="st1" d="M487.1,485.8c-2.5,0-5-0.3-7.5-0.7c-0.4-0.1-10.3-2-21.2-4.8c-19.5-5-33.6-10.1-43.2-20.9
		c-11.5-12.9-13.7-31.6-5.5-46.8c9.4-16.8,27.2-27.2,46.5-27.2c11.9,0,23.6,3.8,35.1,11.3c3-1.3,5.9-2.7,8.8-4.3
		c19.8-10.9,44.7-3.7,55.6,16c2.3,4,3.8,8.4,4.5,13c2.4,14.3-2.1,29.7-11.9,41.3c-12.9,15.3-33.4,23-60.6,23L487.1,485.8z"/>
	<path class="st1" d="M379.3,868c-8.3,0-14-0.4-14.7-0.4c-30.4-2.2-47.1-16.7-55.8-28.4c-10.2-13.7-13.2-28.7-13.6-40.3
		c-5.8-14.6-5.5-30.2-4.6-38.3c0.5-5,1.9-9.9,4.1-14.5c-2.3-13.1-2.2-26.6,0.2-39.7c1.9-10.1,4.7-19.9,8.3-29.5
		c-0.8-25.8,12.7-47.1,28.6-58.2c18.5-12.9,44-8.3,56.9,10.2c0,0,0,0,0,0l0,0c4.3,6.1,6.7,13.2,7.2,20.6c1.2,7.6,8.7,37.9,15.2,62.1
		c0.6,1.9,0.9,3.8,1.2,5.7c5.6,46,32.1,67.4,35.4,69.9c13.3,8.3,20.1,23.2,18.3,38.9c-1.8,15.6-13.1,28.7-28.1,33.8s-35.6,8-58.5,8
		L379.3,868z"/>
	<path class="st1" d="M321.9,812.3c-17.6,0-34.7-8.6-47-23.5c-12.2-15-20.8-38.1-24.3-68.5c-0.1-1.3-0.2-2.5-0.2-3.8
		c-3.9-4.4-6.8-9.5-8.7-15.1c-2.5-8.2-7.3-29.4,4.9-48.2c7.6-11.8,20.1-19.7,34-21.4h0.5c1.2-4.2,2.4-9,4-13.7
		c6.7-20.4,18.7-48.6,46-57.5c16.1-5.4,33.9-0.1,44.6,13.1l21.3,26.4c14.2,17.4,11.6,43-5.7,57.2c-0.1,0-0.1,0.1-0.2,0.1
		c0,0.1-0.1,0.1-0.2,0.2c-2.3,1.8-4.8,3.4-7.4,4.8c-1.5,1.5-5.7,6.5-9.8,18.5c-5.1,14.7-10.8,41.9-9,89
		c0.7,19.4-12.3,36.7-31.3,41.3C329.7,811.8,325.8,812.2,321.9,812.3z"/>
	<path class="st1" d="M303.4,863.7c-4.3,0-8.6-0.7-12.7-2c-22.3-7.3-61.2-32.4-66-80.7c-0.2-3.3-0.2-6.6,0.2-9.9
		c-12.7-21.9-15.5-52.6,6.9-74.5c7.7-7.5,18-11.7,28.7-11.7h0.4c6.1-3.5,13.1-5.4,20.2-5.4c0.7-0.1,1.5,0,2.2,0.1
		c18.7,0.9,34.3,14.4,37.9,32.7c3.6,17.1,11.5,38.1,16.3,43.2c5.5,5.5,9.2,12.4,10.8,20c1.4,6.7,2.5,13.5,3.1,20.3
		c1.3,13.8,1.4,34.1-11.3,50.3c-8.7,11-21.8,17.6-35.9,17.9C304,863.7,303.7,863.6,303.4,863.7z"/>
	<path class="st1" d="M571.5,1052.7c-5.4,0-10.7-1.1-15.7-3.2c-38.7-16.2-62.7-39.6-71.3-69.8c-11.2-39.4,10.5-71.4,12.9-74.9
		c7.7-10.8,20.1-17.2,33.4-17.2h2c38.9,1.9,59.4,20.7,69.9,36.1c26.7,39.4,11,91.1,7.6,101.1C604.6,1041.5,589,1052.7,571.5,1052.7z
		"/>
	<path class="st1" d="M627.3,1012c-5.4,0-10.8-1.1-15.8-3.2c-27.1-11.4-37.5-29.5-41.2-42.5c-5.7-19.8,0.8-38.7,8.6-49.7
		c7.7-10.8,20.1-17.2,33.4-17.2h2c19.5,1,35.8,9.7,45.9,24.6c16.4,24.1,8.7,52.2,5.8,60.2C660.4,1000.8,644.9,1012,627.3,1012z"/>
	<path class="st1" d="M513,1034c-4-0.1-7.9-0.7-11.7-1.7c-33.3-9.9-44.6-29-48.1-43.2c-5.3-20.9,3.7-39.4,13.9-49.6
		c7.7-7.7,18.1-12,29-12h1.5c30.6,1.1,45,17.4,50.9,27.1c11.7,19.3,8.4,41.7,1.6,56.2C543.1,1024.9,528.8,1033.9,513,1034z"/>
	<path class="st1" d="M501,1005.9c-20,0-37.3-13.4-44.1-34.1c-2.8-8.5-2.7-17.7,0.2-26.2c0.3-1.7-0.6-6.1-1.9-9
		c-7.3-13.1-6.5-28.4,1.4-41.1c7.9-12.7,20.8-18.5,34.8-18.5c1-0.1,2,0,3.1,0.1c15.6,0.9,30,8.4,39.6,20.7
		c9.3,11.6,14.4,27,14.9,45.7c0.2,6.8-0.1,13.6-1.2,20.4c-0.5,3.7-1.5,7.3-3.2,10.7C532,1002.8,509.9,1005.9,501,1005.9z"/>
	<path class="st1" d="M328.6,931.4h-2.4c-12.4-0.9-23.8-7.1-31.3-17c-17.3-24.2-13.5-45.8-9.7-56.6c10.8-30.4,43.2-40.6,49.6-42.4
		c21.4-6,43.7,6.3,49.9,27.7c9.7,32.1,1.4,52.8-7.4,64.6C366.1,922.5,348,931.4,328.6,931.4z"/>
	<path class="st1" d="M350.2,965.7c-4.9,0-9.7-0.9-14.3-2.6c-26-9.7-38.2-34-40.9-51.8c-3.3-22.3,12.1-43.1,34.4-46.4
		c0,0,0.1,0,0.1,0l0,0l2.6-0.3l6.5-0.3c20,0,37,8.7,46.6,23.8c11.6,18.3,8.7,39.9,2.1,54.1C380.7,956.4,366.2,965.7,350.2,965.7z"/>
	<path class="st1" d="M351.6,886.2c-24.8,0-45.3-16-52.3-41c-6.1-21.8,6.6-44.4,28.4-50.5c0.7-0.3,1.4-0.4,2.1-0.5
		c6.3-1.4,12.8-2.1,19.2-2c26.2,0,46.7,12.8,54.7,34.1c6.9,18.1,0.1,38.6-16.3,49C382.3,878.6,368.6,886.2,351.6,886.2z"/>
	<path class="st1" d="M424.4,843.9c-22.6,0-41.7-11.9-51.3-31.9c-7-14.6-4.7-32,5.8-44.3l9.9-11.6c12.1-14.2,32.3-18.4,49.1-10.1
		c19.8,9.7,37.8,34.5,30.3,66.2c-3.6,15-15.3,26.7-30.3,30.3C433.5,843.4,429,843.9,424.4,843.9L424.4,843.9z"/>
	<path class="st1" d="M335.4,1008.3c-7.5,0-14.8-2.1-21.2-5.9c-7.4-4.7-14.5-10-21-15.8c-29.9-27.3-26.3-53.1-21.4-66.1
		c5.1-13.7,17.1-23.6,31.6-26.1c3.1-0.6,6.2-0.8,9.3-0.7c17.2,0,32.6,7.2,43,19.2h0.7c22.4,3.1,38,23.7,34.9,46.1
		c-1.3,9.5-5.9,18.2-13,24.7l-15.1,13.8C355.5,1004.4,345.7,1008.3,335.4,1008.3z"/>
	<path class="st1" d="M217.6,1069.9c-22.6-0.1-40.8-18.4-41-41v-1.3c0.9-16.4,4.2-32.5,9.7-47.9c13.1-36.1,37-61.8,68.9-74
		c1.7-0.7,3.5-1.3,5.4-1.7c5.3-1.2,10.8-1.8,16.3-1.7c29.4,0,64.4,16.5,75,62.6c0.8,3.1,1.1,6.4,1.1,9.6
		c-0.1,7.8-2.6,28.3-24.8,49.2c-22.2,20.9-55.5,35.3-102,45.2C223.3,1069.6,220.5,1069.9,217.6,1069.9z"/>
	<path class="st1" d="M169.8,1089.6c-11-0.1-21.6-4.6-29.4-12.5c-8.3-8.7-36.2-39.3-41.9-69.7c-3-15.9,3.7-32,16.9-41.3l26.7-18.5
		c18.3-12.8,43.6-8.5,56.6,9.7c10.7,4.9,20,12.5,27,22.1c9.6,12.6,20,34.3,15,66.5c-2.4,15.7-13.6,28.5-28.8,33l-30.3,9
		C177.7,1089.1,173.8,1089.6,169.8,1089.6z"/>
	<path class="st1" d="M203.5,1035c-22.6,0-41.8-8-54.2-22.7s-16.2-32.1-12.9-51.6c3.3-19.7,20.3-34.2,40.3-34.2
		c0.7-0.1,1.4,0,2.1,0.1l34.5,1.8c13.3,0.6,25.4,7.7,32.5,19c11.7,18.6,13.9,49.8-9.2,74.5c-6.8,7.3-16,11.9-25.9,12.9L203.5,1035z"
		/>
	<path class="st1" d="M553.1,480.3c-3.9,0-7.8-0.6-11.5-1.7c-15.7-4.6-28-15.1-34.2-29.4c-7.9-17.9-3.7-35.2-0.2-44.1
		c0.2-0.3,0.2-0.7,0.2-1.1c-3.5-22.4,11.8-43.3,34.2-46.8c10.2-1.6,20.7,0.7,29.3,6.6c23.8,16,30.3,36,31.7,49.8
		c2.9,29.7-16.4,50.7-20.3,54.5C574.5,475.9,564,480.3,553.1,480.3z"/>
	<path class="st1" d="M559.8,436c-19,0-35.9-10.5-49.7-31.3c-8.5-12.5-9.3-28.8-2.2-42.1c6.7-12.6,21.3-26,42.3-26
		c15,0,36.1,6.9,51.1,39.5c6.4,14,4.4,30.4-5.1,42.5C587.2,429.5,573.9,435.9,559.8,436z"/>
	<path class="st1" d="M525.1,390c-17.4-0.1-32.8-11.1-38.6-27.4c-2.6-7.7-12.1-13.1-12.2-13.1c-20.6-9.2-29.9-33.4-20.7-54.1
		c2.7-6.2,7-11.7,12.4-15.8c16.8-12.9,33.9-19.4,50.8-19.4c29.2,0,50.5,19.7,58.6,39.3c1.7,3.9,2.7,8,3,12.2
		c2.2,25.7-3.1,45.9-15.5,60.3c-9.3,10.8-22.2,17.3-35.4,18.1L525.1,390z"/>
	<path class="st1" d="M577.5,610c-15.9-0.1-30.3-9.3-37.2-23.6c-7.1-15.2-9.9-40.1,17-72.2c6.6-7.8,13.9-15.1,21.6-21.7
		c13.9-11.7,33.9-12.9,49.1-2.9c17.1,11.4,26.4,28.9,25.3,48c-1.1,19.1-12.2,37.2-34.3,53.5c-7.2,5.3-14.9,10.1-22.8,14.4
		C590.5,608.4,584,610,577.5,610z"/>
	<path class="st1" d="M675.1,503.7c-4.5,0-8.9-0.7-13.1-2.2c-4.8-1.6-12.2-3.3-15.8-3.4c-4.1,0.6-8.2,0.6-12.2,0
		c-3.6,0.1-11.1,1.9-15.8,3.4c-21.3,7.2-44.5-4.2-51.7-25.5c-1.5-4.5-2.2-9.3-2.1-14c0.3-18.2,11.4-40.4,41.4-48.6
		c9.4-2.4,19.2-3.6,28.9-3.4h11.2c9.7-0.1,19.5,1,28.9,3.4c29.9,8,41,30.4,41.4,48.6c0.6,22.5-17.2,41.2-39.7,41.8c0,0,0,0,0,0
		H675.1L675.1,503.7z"/>
	<path class="st1" d="M496.8,875.7c-42.3,0.4-76.9-33.7-77.3-76c-0.3-39.5,29.4-72.8,68.6-76.9c22.4-2.5,42.7,13.6,45.3,36l0,0
		c0.1,1.1,0.2,2.2,0.2,3.3c22.6,0.7,40.3,19.5,39.6,42.1c0,0,0,0.1,0,0.1c0,1.1-0.1,2.2-0.2,3.3
		C568.7,846.4,535.9,875.7,496.8,875.7z"/>
	<path class="st1" d="M360.5,469.5c-17.8,0-35.4-7-51.9-20.6c-10-6.9-37.5-27.9-48.2-60.2c-7.1-21.4,4.4-44.6,25.8-51.8
		c0.5-0.2,1-0.4,1.5-0.4c1.9-0.5,46.2-13.4,94-15.1h1.4c8.7,0,17.2,2.7,24.2,7.9c23,16.8,44.4,59.9,9.8,109.7
		C407.5,453.2,387.5,469.5,360.5,469.5z"/>
	<path class="st1" d="M348.5,484.9c-4.1,0-8.3-0.4-12.4-1.2l-4.5-1.2c-45.5-14.4-73.3-56.7-76.3-61.6c-1.3-2.2-2.5-4.6-3.5-7
		c-7.2-18.3-0.8-36.2,2.2-43.1c6.3-14.2,20.2-23.6,35.8-24.2h1.6c15,0,28.8,8.1,35.9,21.3c6.5,12,32,27.9,47.8,34.7
		c20.8,8.7,30.5,32.6,21.9,53.4h-0.1c-2.2,5.4-5.6,10.2-9.9,14.1C377,479.9,363.7,484.9,348.5,484.9z"/>
	<path class="st1" d="M315.9,588.3c-4.2,0-8.4-0.4-12.6-1.1l-4.3-1.1c-49.5-14.9-80-59.2-83.3-64.2c-1.4-2.3-2.6-4.6-3.8-7.1
		c-7.9-19.2-0.8-38,2.5-45.3c6.5-13.8,20.1-22.9,35.4-23.4h1.7c14.7-0.1,28.3,7.8,35.5,20.6c8.2,14.4,38.4,31.8,56.4,39.2
		c20.9,8.4,31.1,32.1,22.7,53c-2.4,5.9-6.1,11.2-10.9,15.4C344.8,583.6,331.2,588.3,315.9,588.3z"/>
	<path class="st1" d="M248.5,682.2c-4.3,0-8.7-0.4-13-1.1l-4.2-1c-54.5-15.7-88.4-62.9-92.1-68.2c-1.5-2.3-2.8-4.7-4-7.2
		c-8.7-20.2-1-40,2.9-47.6c6.6-13.5,20.1-22.3,35.1-22.9h1.7c14.4,0,27.8,7.6,35.2,20c9.9,16.7,45.9,36.7,67.1,45
		c21,8.1,31.5,31.8,23.4,52.8c-2.5,6.4-6.5,12-11.7,16.4C278.3,677.4,264.4,682.2,248.5,682.2z"/>
	<path class="st1" d="M198.2,780.6c-4.3,0-8.7-0.4-13-1.1l-4.2-1c-54.5-15.7-88.4-62.9-92.1-68.2c-1.5-2.3-2.8-4.7-4-7.2
		c-8.7-20.2-1-40,2.7-47.6c6.6-13.5,20.1-22.3,35.1-22.9h1.7c14.4,0,27.8,7.6,35.2,20c9.9,16.7,45.9,36.7,67.1,45
		c21,8.1,31.5,31.8,23.4,52.8c-2.5,6.4-6.5,12-11.7,16.4C227.9,775.8,214,780.6,198.2,780.6z"/>
	<path class="st1" d="M325.9,567.6c-24.4,0-47-7.8-67-23.3c-14.3-11-27-25.9-37.8-44c-10.7-18.4-18.9-38.1-24.3-58.6
		c-2.8-12-0.2-24.6,7.3-34.4l28.1-36.8c7.7-10.2,19.7-16.1,32.5-16.2h2c13.5,0.6,25.8,7.8,32.8,19.3c28.1,45.3,54.9,47.9,57.9,48
		h1.9c21.8-0.1,39.8,17,40.9,38.7c2.5,46.5-20.3,82.7-22.9,86.7c-5.8,8.9-14.9,15.2-25.3,17.5C343.4,566.5,334.7,567.5,325.9,567.6
		L325.9,567.6z"/>
	<path class="st1" d="M293.4,671.8c-31.3,0-59.8-8.2-84.9-24.4c-19.5-12.6-36.5-29.8-50.7-51.1c-14.2-21.8-24.7-45.9-30.9-71.2
		c-3.1-14.6,1.9-29.7,13.1-39.5l42.4-37.1c17-14.9,42.8-13.2,57.7,3.8c0,0,0.1,0.1,0.1,0.1c1.2,1.3,2.3,2.8,3.3,4.3
		c41.6,62.9,91.2,66.5,91.7,66.5c22.5,0.2,40.6,18.7,40.3,41.2c0,0.1,0,0.3,0,0.4l0,0c-0.8,52.8-36.1,90.1-40.1,94.1
		c-6.8,6.9-15.8,11.1-25.4,12C304.4,671.6,298.8,671.8,293.4,671.8z"/>
	<path class="st1" d="M230.6,757.9c-30.4,0-58.3-7.7-82.9-22.9c-19.2-11.9-36.1-28.2-50.1-48.5c-22.4-32.3-30.2-64.2-30.9-67.8
		c-3.4-15,1.9-30.6,13.6-40.5l41.3-34.5c17.3-14.5,43-12.3,57.6,5c0,0,0.1,0.1,0.1,0.1l0,0c0.8,1,1.6,2,2.3,3
		c39.1,56.6,84.8,61.7,89.7,62.1h0.4c10.6,0,20.7,4.3,28.1,11.9c7.8,7.8,11.5,18.5,11.3,29.6c-0.6,51-35.8,86.6-39.8,90.5
		c-6.8,6.6-15.7,10.6-25.1,11.4c-5.2,0.4-10.5,0.6-15.5,0.6L230.6,757.9z"/>
	<path class="st1" d="M216.3,836.1c-20.7,0-54.7-8.9-98.9-51.1c-6.4-6.1-10.6-14.2-12.1-22.9l-3.7-22.5
		c-3.7-22.3,11.4-43.4,33.7-47.1l0,0c8.5-1.4,17.3-0.1,25,3.7c19.7,9.8,56.3,25,71.9,26.4c15.9,1.4,29.5,11.9,34.8,26.9
		c2.9,8.3,4.5,17,4.5,25.8c0.3,24.3-11.5,45-31.6,55.5c-2.5,1.3-5,2.3-7.7,3.1C227.1,835.4,221.7,836.1,216.3,836.1z"/>
	<path class="st1" d="M127.5,1031c-10.7-0.1-20.9-4.2-28.6-11.6c-9.2-9-17.4-18.9-24.6-29.6c-10.5-15.6-9.1-36.4,3.4-50.5
		c2.2-2.4,4.5-4.6,6.9-6.8l2.6-2.1c0.2-10.6,4.5-20.7,11.9-28.3c3.6-13,13.2-23.4,25.9-27.9l1.8-1.9l-1.8-2
		c-11.9-4.3-21.2-13.8-25.2-25.9c-14.5,12.5-35.6,13.4-51.1,2.2c-15.1-5.6-25.5-19.5-26.7-35.6c-0.7-9.7-1.2-19.8-1.4-29.9
		c0-1.6,0.1-3.2,0.2-4.8c3.3-34.9,27.4-55.6,38.9-63.6c1.2-1.4,2.2-2.9,3-4.5c6.3-15.3,21.3-25.2,37.8-25.1h0.4
		c16.6-0.1,31.5,9.9,37.8,25.2c0.8,1.6,1.8,3,2.9,4.4c8.9,6.1,16.6,13.6,23,22.3c1.8,2.3,3.4,4.8,4.9,7.4
		c13.9,2.9,25.3,12.9,30,26.3c11.2,4.4,19.8,13.6,23.5,25c0.2,0.7,0.6,2,1.1,3.7c0.2,0.3,0.3,0.7,0.2,1.1c0.1,0.3,0.1,0.6,0.2,1
		c9.8,6.7,19.7,16.9,28.3,32.8l2.3,1l0.8,0.3c16.2,5.8,27,21.2,26.9,38.4v0.6c0,17.3-10.9,32.8-27.2,38.5l-0.5,0.2l-0.5,0.2
		l-1.7,0.7c-8.6,15.8-18.5,26.2-28.3,32.7c-0.4,2-1.1,4-1.7,6c-3.9,11.2-12.4,20.2-23.4,24.6c-4.8,13.4-16.1,23.3-30,26.4
		c-3.3,5.6-7.1,10.8-11.5,15.5c-7.5,8.1-18,12.9-29,13.2H127.5z"/>
	<path class="st1" d="M97.3,938.9H95c-34.5-1.4-62.3-28.9-63.9-63.5c0-1-0.1-1.9-0.1-2.9l0,0c0-1,0.1-1.8,0.1-2.6
		c1.5-34.6,29.3-62.2,63.9-63.6h2.5c0.8-0.1,1.6,0,2.3,0.1c34.5,1.3,62.3,28.9,63.9,63.5c0.1,0.9,0.2,1.9,0.1,2.9l0,0
		c0.1,0.9,0,1.8-0.1,2.6c-1.6,34.5-29.4,62-63.9,63.3h-2.5V938.9z"/>
	<path class="st1" d="M97.3,929.9h-3c-29-1.7-52.2-24.8-54.2-53.7c-0.1-1.2-0.1-2.3-0.1-3.5l0,0c0-1.1,0-2.2,0.1-3.3
		c1.9-29,25.1-52.1,54.2-53.8c1-0.1,2-0.2,3-0.1h0.3c1-0.1,2,0,3,0.1c28.9,1.7,52.1,24.6,54.2,53.5c0.1,1.2,0.1,2.4,0.1,3.6l0,0
		c0,1.1,0,2.2-0.1,3.3c-1.9,29-25.1,52.1-54.2,53.8h-3.3V929.9z"/>
	<path class="st1" d="M99.3,992c-14.3,0-27.6-7.6-35.1-19.8c-11.4-18.9-20.7-41.2-27.7-66.2c-1.8-6.4-1.9-13.2-0.5-19.7
		c-4-5.3-6.7-11.4-7.9-17.9c-1.3-7.5-2.5-15.4-3.5-23.5c-0.3-2.3-0.4-4.7-0.2-7.1c-0.2-2.2-0.3-4.3-0.3-6.4
		c-4-19,5.8-38.3,23.6-46.1c3.9-5.2,8.5-9.9,13.6-13.9c7.1-13.1,20.9-21.2,35.8-21.1h0.5c14.9,0,28.6,8.1,35.8,21.1
		c5.2,3.9,9.8,8.6,13.6,13.9c7.9,3.4,14.5,9.2,18.9,16.7c7.3,4.5,12.8,11.3,15.8,19.3c5,4.2,9.3,9.2,12.8,14.7
		c13.9,6.9,22.6,21.1,22.5,36.5v0.3c0.1,15.5-8.7,29.6-22.5,36.5c-3.5,5.5-7.8,10.5-12.8,14.7c-3.1,7.9-8.7,14.7-15.8,19.3
		c-4.4,7.4-11,13.3-18.9,16.7c-4,5.4-8.8,10.2-14.1,14.3C125.5,985.2,112.9,992,99.3,992z"/>
	<path class="st1" d="M670.7,488c-5,0-10-0.6-14.8-1.9l-2.4-0.6c-2.4-0.8-4.9-1.4-7.4-1.8c-4.1,0.6-8.2,0.6-12.2,0
		c-2.5,0.4-5,1-7.4,1.8l-2.4,0.6c-4.8,1.2-9.8,1.8-14.8,1.9c-30.1,0-49.1-23-52.7-45.7c-2.6-14.2,0.9-28.8,9.8-40.2
		c13.5-17.1,37.9-25.9,72.6-25.9h1.8c34.7,0,59.2,8.7,72.6,25.9c9,11.3,12.6,26,9.8,40.2C719.9,465,700.9,488,670.7,488z"/>
	<path class="st1" d="M675.9,731.5c-5,0-10-0.7-14.9-2l-1-0.3c-6.9-2.2-13.6-4.9-20.1-8.1c-6.5,3.2-13.2,5.9-20.1,8.1l-1,0.3
		c-4.9,1.3-9.9,1.9-14.9,2c-28.6,0-53.6-21.1-63-30.2l-1.1-1.1c-22.4-23.1-19.3-44.6-15.6-55.3c7-20,24.8-29.2,39.3-31.4
		c8.9-20.3,22.7-27.9,33.4-30.6c2.1-3.8,4.2-7.8,6-11.6c6.8-14.2,21.2-23.3,37-23.3l0,0c15.8,0,30.2,9.1,37,23.3
		c1.8,3.8,3.9,7.8,6,11.6c10.7,2.7,24.5,10.2,33.4,30.6c14.5,2,32.2,11.3,39.3,31.4c3.8,10.7,6.8,32.1-15.6,55.3l-1.1,1.1
		C729.5,710.4,704.5,731.5,675.9,731.5z"/>
	<path class="st1" d="M643.7,787.5h-7.3c-31.6,0-49.1-13.5-58.4-24.9c-14.5-17.7-16.2-40.1-13.1-55c0.2-0.7,0.3-1.5,0.5-2.2
		c2.5-9.5,5.2-16.7,8.3-22.5c9.7-18.1,24.1-23.3,33.6-24.7c7.3-8.1,17.4-13.2,28.2-14.5c2.9-0.3,5.8-0.3,8.7,0
		c10.9,1.2,20.9,6.4,28.3,14.5c9.5,1.4,23.8,6.7,33.5,24.7c3.2,5.8,5.8,12.9,8.4,22.5c0.2,0.7,0.3,1.5,0.5,2.2
		c3.2,15,1.4,37.3-13,55C692.8,773.9,675.2,787.5,643.7,787.5z"/>
	<path class="st1" d="M669.7,844c-17.8,0-34.1-6.9-45.8-19.2c-19.7-20.9-19.7-49.2-19.3-57.4c0.4-7.1,2.6-13.9,6.4-19.8
		c21.7-33.6,50.3-38.6,65.4-38.6c5.6,0,11.1,0.6,16.6,1.9c24.1-28,55.8-43.2,90.6-43.2c11.3-0.1,22.5,1.6,33.3,5.1l4.2,1.8
		c1.3,0.5,2.7,0.8,4.1,0.7c6.9,0,15.6-4,19-6.1c6.7-4.8,14.7-7.3,22.9-7.3c6.6,0,13.1,1.6,19,4.6c13.7,7,21.7,21.3,21.7,36.7
		c0,61.6-29.5,87.6-35.4,92.2c-17.9,13.8-43.7,10.5-57.5-7.4c-1.8-2.4-3.4-5-4.8-7.7c-6.4-1.1-12.5-3.5-17.9-7
		c-8.3,4.5-16.4,9.6-24.1,15.2c-20,36.4-51.9,51.1-78.1,52.8C683.3,843.1,676.5,844,669.7,844z"/>
	<path class="st1" d="M880.8,798.3c-13.1,0-25.6-5.8-34.1-15.8c-8.8-10.3-12.5-23.1-13.2-39c-23.3,0-49.8-5.9-65.6-10
		c-9.5,7.6-25.1,24.1-37.1,39.4c-7.2,9.3-18.1,15-29.9,15.7h-2.4c-10.9,0-21.3-4.3-29-11.9c-19.5-19.7-23.2-40.3-22.7-54.1
		c0.8-29.6,20.6-48.7,24.6-52.3c5.4-4.9,12-8.3,19.2-9.6c5.9-7.9,12.4-15.3,19.5-22.2c0.9-0.8,1.8-1.6,2.7-2.3
		c10.2-7.9,21.2-11.9,32.7-11.9c5.3,0,10.5,0.9,15.5,2.6l4-1.1l22.1-5.7c8.6-2.6,17.5-3.9,26.4-3.9c12.7,0,22.6,3.2,30.1,7.4
		c3.2-3.1,6-6.6,8.2-10.5c6-15.9,20.8-25.7,37.9-25.7h1.3c17.6,0.5,32.6,13.2,37.7,30.2c4.2,14.2,4.5,29.2,1,43.6
		c1.7,10.3,2.3,20.8,1.8,31.3c2.9,5.5,4.5,11.5,4.9,17.6c1.7,40-20.2,69.3-22.7,72.4c-6.4,8.1-15.6,13.5-25.8,15.2
		C885.6,798.1,883.2,798.3,880.8,798.3z"/>
	<path class="st1" d="M829.1,682.2c-21.7,0-43.6-9.5-64.8-28.1c-14.6-10.6-34.1-21.2-41.3-22.4c-8.3-0.3-16.4-3.1-23.1-8
		c-20.9-15.4-34.8-49.2-16-86.8c7-13.9,21.1-22.6,36.6-22.6h1.5c15.3,0.4,29,9.5,35.5,23.3c0.6,1,2.3,2.6,6.1,3.6l3.2,0.8
		c10.9,3.6,21.5,8.1,31.7,13.5c11.4-12.5,29.3-16.6,45.1-10.5c5.6,2.2,33.9,14.6,45.4,44.9c5.3,13.8,8.7,36.1-5.2,63.1
		c-1.7,3.4-3.9,6.5-6.4,9.3C873,667.1,856.7,682.2,829.1,682.2L829.1,682.2z"/>
	<path class="st1" d="M876.3,649.8c-30.3,0-50.1-19.8-53.7-23.8l-1.7-2c-3.6,1-7.3,1.5-11.1,1.5h-1.1
		c-57.4-1.5-100.1-36.7-104.8-40.8c-4.2-3.7-7.6-8.1-10.1-13.1h-0.3c-25.7-8.7-41.6-31.4-43.8-62.3c-0.6-10.8,0.2-21.6,2.3-32.2
		c4.1-18.2,20-31.4,38.6-32.1h1.4c16.7,0,31.7,10.1,37.9,25.5c5.5,5.5,22.7,14.9,38.4,21.1c11.2-12.7,29-17.3,44.9-11.4
		c98.5,36,120.9,100.5,123.2,107.7c4.8,15.6-0.1,32.6-12.5,43.2C909.7,643.4,893.4,649.8,876.3,649.8z"/>
	<path class="st1" d="M899.9,613.3c-3.4,0-6.9-0.3-10.2-1c-10.7-2-19.4-7.2-25.5-15.9c-2-2.5-8.3-9.2-15.8-12.8l-2.4-1.3
		c-27.3-15-46.2-50.9-27.8-88.1c0-0.1,0.1-0.1,0.1-0.2c-0.5-6.4-0.2-12.9,0.7-19.3l0.6-3.2c1.6-5.9,3.9-11.5,7-16.7
		c0.1-0.2,0.1-0.4-0.1-0.5c-2-16.6,5-32.8,18.9-43.8c9-7.2,20.2-11.1,31.8-11c16.3,0,31.6,7.6,42.9,21.5
		c8.6,10.5,15.2,24.7,20.4,43.7c1.3,4.9,2.2,10,2.4,15.1c4.5,5.2,7.5,11.5,8.8,18.3c2,10.2,3.3,20.5,3.9,30.9
		c1.9,29.6-2.9,50.3-14.9,65C930.6,606.3,915.7,613.3,899.9,613.3z"/>
	<path class="st1" d="M838.7,565.6c-6.9,0-13.8-1.8-19.8-5.2c-4.9-2.7-9.6-5.2-14.3-7.3c-8.6,7.6-19.6,11.8-31,11.8
		c-22.6,0-37.1-15.5-42.2-22.2c-2.7-3.6-4.9-7.7-6.4-11.9c-5.9-17.4-4.4-34.9,4.1-49.4c5.2-8.7,12.8-15.8,21.7-20.6
		c4.8-16.5,19.2-28.3,36.3-29.6c3.7-0.3,7.4-0.4,10.8-0.4c38.5,0,59.1,16.8,69.5,30.8c22.7,30.7,12.9,67.8,10.6,74.9
		C872.6,553.8,856.7,565.6,838.7,565.6z"/>
	<path class="st1" d="M724.8,538.3c-38.2,0-61.4-28.7-66-58.2c-10.2-32.1,3.3-59.3,21.3-71.7c15.1-10.4,35.2-9.5,49.3,2.2
		c7.4-1,14.8-0.6,22.1,1.1c3,0.6,5.8,1.7,8.6,3.1c30.4,14.8,37.1,37.6,38.3,49.8c3.5,33.7-24.1,56.8-29.6,61.1
		c-3.2,2.4-6.7,4.4-10.5,5.8C746.6,536,735.3,538.3,724.8,538.3z"/>
	<path class="st1" d="M766.8,530c-18.7-0.1-35-12.9-39.7-31c-1.4-5.7-6.7-30.6,3.9-54.1c-4.6-5.4-8.5-11.2-11.7-17.5
		c-3-5.9-10.5-25-0.2-48.7c0.9-2.2,2-4.2,3.3-6.2c0-0.8,0.1-1.7,0.1-2.5c-0.2-11.5,1.6-23,5.4-33.9c9.8-27.7,31.5-46.5,60.8-52.9
		c2.9-0.6,5.8-0.9,8.8-1c0.7-0.1,1.5,0,2.2,0.1c7.8,0.4,34.5,3.4,51.5,22.7c9.6,10.8,14.3,25.1,13.1,39.5c0.1,0.2,0,0.4-0.1,0.6
		c34.2,25.7,41.9,52.5,41.4,72.4c1,13.3-2.5,26.5-10.1,37.5c0,0.2,0.1,0.4,0.1,0.7c0.4,1.6,0.6,3.2,0.5,4.8
		c0.5,8.3,0.4,37.1-21,56.1c-16.5,14.7-41.7,13.6-56.8-2.4c-2.1-2.4-4.4-4.5-7-6.4c-10.5,13.7-26.7,21.9-43.9,22.2L766.8,530z"/>
	<path class="st1" d="M792.3,485.8c-27.2,0-47.7-7.7-60.6-23c-9.8-11.6-14.3-27-11.9-41.3c3.7-22.3,24.8-37.4,47.1-33.7
		c4.6,0.7,9,2.2,13,4.5c2.9,1.6,5.8,3,8.8,4.3c11.4-7.5,23.1-11.3,35.1-11.3c19.3,0,37.1,10.4,46.5,27.2c8.3,15.2,6.1,33.9-5.5,46.8
		c-9.6,10.8-23.6,16-43.2,20.9c-10.8,2.7-20.8,4.6-21.2,4.8c-2.5,0.4-5,0.7-7.5,0.7L792.3,485.8z"/>
	<path class="st1" d="M900.8,868c-22.9,0-42.8-2.7-58.6-8.1s-26.4-18.1-28-33.8c-1.6-15.7,5-30.5,18.3-38.9
		c3.2-2.5,29.8-23.9,35.4-69.9c0.2-1.9,0.5-3.8,1.1-5.7c6.5-24.2,14-54.4,15.3-62c1.5-22.5,20.9-39.6,43.4-38.1c0.1,0,0.1,0,0.2,0
		c7.4,0.4,14.5,2.9,20.5,7.2c16.2,11.1,29.6,32.4,28.6,58.2c3.8,9.5,6.6,19.4,8.3,29.5c2.5,13.1,2.6,26.6,0.3,39.7
		c2.2,4.5,3.6,9.4,4.1,14.5c0.7,8.2,1.2,23.8-4.6,38.3c-0.4,14.5-5.2,28.6-13.7,40.3c-8.8,11.7-25.3,26.2-55.8,28.4
		C914.7,867.6,909,868,900.8,868z"/>
	<path class="st1" d="M958.1,812.3c-3.9,0-7.7-0.5-11.5-1.4c-18.9-4.6-31.9-21.9-31.3-41.3c1.8-47-3.9-74.3-9-89
		c-4.1-11.9-8.3-17-9.8-18.5c-20.1-10.2-28.3-34.7-18.3-54.9c1.3-2.6,2.9-5.1,4.8-7.4l21.3-26.4c10.7-13.2,28.4-18.5,44.6-13.2
		c27.3,9,39.4,37.1,46,57.5c1.6,4.8,3,9.5,4,13.7c0.2-0.1,0.4-0.1,0.5,0.1c14,1.7,26.4,9.6,34,21.4c12,18.9,7.4,40,4.9,48.2
		c-1.7,5.6-4.7,10.8-8.7,15.1c0,1.3-0.1,2.5-0.2,3.8c-3.5,30.4-11.4,52.9-24.3,68.5C992.3,804.3,975.7,812.3,958.1,812.3z"/>
	<path class="st1" d="M975.7,863.7c-14-0.4-27.2-6.9-35.9-17.9c-12.7-16.2-12.6-36.4-11.3-50.3c0.6-6.8,1.7-13.6,3.1-20.3
		c1.7-7.5,5.4-14.4,10.8-20c5.3-5.6,13.2-28.2,16.3-43.2c3.7-18.3,19.4-31.8,38-32.7h2.1c7.1-0.1,14.1,1.8,20.2,5.4h0.4
		c10.7,0,21.1,4.2,28.7,11.7c22.4,22,19.5,52.7,6.9,74.5c0.5,3.3,0.6,6.6,0.2,9.9c-4.8,48.2-43.7,73.5-66,80.7
		c-4.1,1.3-8.4,2-12.7,2L975.7,863.7z"/>
	<path class="st1" d="M375.1,976.9c-11.4,0-22.3-4.8-30.1-13.2c-11-12.7-19.4-27.4-24.7-43.4c-11.5-35.6-4.6-71.9,19.3-102.3
		c1.2-1.5,2.6-3,4-4.3c4.1-3.9,26.6-23.4,62.5-23.4c17.9,0,35.9,5,53.2,14.7c10.2,4.4,61.8,26.2,107.3,37.9
		c10.6,0.6,29.8,3.9,51.6,17.5c7.4-1.2,15-0.2,21.9,2.7c6.9-2.8,14.5-3.8,21.9-2.7c21.9-13.6,41-16.9,51.7-17.5
		c45.6-11.7,96.8-33.5,107.2-37.9c17.4-9.7,35.4-14.7,53.3-14.7c35.9,0,58.3,19.5,62.5,23.4c1.4,1.4,2.8,2.9,4,4.4
		c24,30.4,30.8,66.7,19.2,102.3c-5.1,16-13.5,30.8-24.7,43.4c-15.1,16.5-40.7,17.8-57.4,2.9l-17.6-15.7
		c-9.1-8.2-14.1-19.9-13.6-32.1l-1.4,0.6c-84.6,46.5-154.4,53.4-188.6,53.4c-7.2,0-12.8-0.3-16.6-0.6c-3.8-0.3-9.5,0.6-16.7,0.6
		c-34.1,0-103.9-7-188.5-53.5l-1.4-0.6c0.5,12.2-4.5,24-13.6,32.1l-17.5,15.7C394.9,973.2,385.2,976.9,375.1,976.9z"/>
	<path class="st1" d="M708.6,1052.7c-17.5,0-33.1-11.1-38.7-27.7c-3.5-9.9-19.1-61.8,7.6-101.1c10.5-15.4,31-34.2,69.9-36.1h2
		c13.2,0,25.7,6.4,33.4,17.2c2.5,3.5,24.2,35.5,12.9,74.9c-8.6,30.1-32.6,53.6-71.3,69.8C719.4,1051.6,714,1052.6,708.6,1052.7z"/>
	<path class="st1" d="M652.8,1012c-17.5-0.1-33-11.2-38.7-27.7c-2.7-8-10.5-36.1,5.8-60.2c10.1-14.9,26.4-23.6,45.9-24.6h2
		c13.3,0,25.7,6.4,33.4,17.2c7.8,11,14.3,29.9,8.6,49.7c-3.7,13.1-13.9,31.1-41.2,42.5C663.5,1010.9,658.1,1011.9,652.8,1012z"/>
	<path class="st1" d="M767,1034c-15.7-0.1-30.1-9.2-37-23.3c-7-14.5-10.1-36.8,1.6-56.2c5.8-9.6,20.3-26,50.9-27.1h1.5
		c10.9,0,21.4,4.3,29,12c10.2,10.2,19.2,28.7,13.9,49.6c-3.6,14.3-14.9,33.3-48.1,43.2C775,1033.3,771,1033.9,767,1034z"/>
	<path class="st1" d="M642.6,904.1h-5.2c-11.4,0-23.5-3.2-28-4.4c-5.4-1.4-11-2-16.6-1.9c-6,0-11.9,0.6-17.7,1.9
		c-3.7,1.1-7.5,1.7-11.4,1.7c-11.9-0.1-23-5.5-30.6-14.6c-19.8-23.1-18.3-44.7-15.6-55.4c5.1-20.7,21.1-34,34.7-39.4
		c8.3-3.4,17.5-4,26.1-1.6c24.3-20.1,47.3-23.2,59.3-23.2h4.6c12,0,35.2,3.2,59.3,23.2c8.6-2.4,17.8-1.8,26.1,1.6
		c13.5,5.5,29.7,18.7,34.7,39.4c2.6,10.8,4.1,32.3-15.6,55.4c-10.1,12.4-26.8,17.5-42.1,12.9c-5.8-1.3-11.8-1.9-17.7-1.9
		c-5.6,0-11.1,0.6-16.6,1.9C666.1,900.9,654,904.1,642.6,904.1z"/>
	<path class="st1" d="M778.9,1005.9c-8.9,0-30.9-3.1-43.6-31.3c-1.6-3.4-2.6-7-3.2-10.8c-0.9-6.8-1.2-13.6-1.2-20.4
		c0.5-18.7,5.5-34.1,14.9-45.7c9.8-12.1,24.1-19.6,39.6-20.7h3.1c13.9,0,27.3,6.5,34.8,18.5c7.5,11.9,8.8,28.1,1.4,41.1
		c-1.3,2.9-2.2,7.3-1.9,9c3,8.5,3,17.7,0.2,26.2C816.3,992.5,799,1005.9,778.9,1005.9z"/>
	<path class="st1" d="M642.3,929.2h-4.6c-17.3,0-36.3-7.8-43.6-11.2l-5.4-3c-2.6-1.1-10.5-2.6-21.9-2.6h-7
		c-22.6-0.3-40.7-18.8-40.5-41.5c0.1-10.6,4.4-20.8,11.9-28.3c12.8-12.7,29.9-19.3,49.6-19.3c11.7,0,23.3,2.2,34.2,6.3l3.3,1.5
		c3.4,1.6,13.7,3.4,21.9,3.6c8.1,0.2,18.5-2,21.9-3.6l3.3-1.5c10.9-4.2,22.5-6.3,34.2-6.3c19.6,0,36.8,6.7,49.5,19.3
		c16,15.9,16.2,41.7,0.3,57.8c-7.6,7.7-18,12.1-28.9,12.1h-7c-11.4,0-19.2,1.6-21.9,2.6c-1.7,1.1-3.5,2.1-5.4,3
		C678.6,921.4,659.7,929.2,642.3,929.2z"/>
	<path class="st1" d="M951.4,931.4c-19.4,0-37.7-8.9-48.8-23.9c-8.8-11.8-17.1-32.6-7.4-64.6c6.4-21.2,28.5-33.5,49.9-27.7
		c6.4,1.8,38.9,12,49.6,42.4c3.8,10.8,7.6,32.4-9.7,56.6c-7.4,10-18.8,16.3-31.3,17L951.4,931.4z"/>
	<path class="st1" d="M1062.4,1069.9c-2.9,0-5.7-0.3-8.6-1c-46.5-9.9-80.8-25.2-102-45.2c-21.2-20-24.7-41.4-24.8-49.2
		c0-3.2,0.4-6.4,1.1-9.6c10.6-46.1,45.7-62.6,75-62.6c5.5-0.1,10.9,0.5,16.3,1.7c1.9,0.3,3.7,0.9,5.4,1.7c32.1,12.2,55.8,37.9,69,74
		c5.5,15.4,8.8,31.5,9.6,47.8c0.8,22.6-16.9,41.5-39.4,42.2c0,0-0.1,0-0.1,0L1062.4,1069.9z"/>
	<path class="st1" d="M929.8,965.7c-15.9-0.1-30.4-9.3-37.2-23.6c-6.7-14.1-9.5-35.8,2.1-54.1c9.6-15.1,26.6-23.8,46.6-23.8l6.5,0.3
		c22.5,1.8,39.2,21.6,37.4,44.1c0,0.1,0,0.1,0,0.2l0,0l-0.3,2.6c-2.6,17.8-15,42.1-40.9,51.8C939.5,964.8,934.7,965.7,929.8,965.7z"
		/>
	<path class="st1" d="M928.4,886.2c-17.1,0-30.8-7.6-35.9-10.9c-16.3-10.5-23-30.9-16.3-49c8.1-21.3,28.6-34.1,54.7-34.1
		c6.4,0,12.8,0.6,19.1,2c22,4.8,36,26.4,31.2,48.4c0,0.1,0,0.2-0.1,0.3c-0.2,0.7-0.3,1.5-0.5,2.1
		C973.8,870.1,953.2,886.2,928.4,886.2L928.4,886.2z"/>
	<path class="st1" d="M855.6,843.9c-4.5-0.1-9-0.6-13.4-1.5c-15-3.6-26.7-15.3-30.3-30.3c-7.5-31.7,10.5-56.5,30.3-66.2
		c16.8-8.3,37-4.1,49.1,10.1l9.9,11.6c10.6,12.3,12.9,29.7,5.8,44.3C897.4,832,878.2,843.9,855.6,843.9z"/>
	<path class="st1" d="M944.6,1008.3c-10.2,0-20.1-3.9-27.7-10.8l-15.1-13.8c-16.6-15.3-17.7-41.2-2.4-57.9
		c6.3-7,14.9-11.6,24.3-12.9h0.7c10.3-12,25.8-19.2,43-19.2c3.1-0.1,6.2,0.2,9.3,0.7c14.4,2.4,26.5,12.3,31.6,26.1
		c4.9,13,8.4,38.7-21.4,66.1c-6.5,5.9-13.5,11.2-21,15.8C959.4,1006.3,952.1,1008.3,944.6,1008.3z"/>
	<path class="st1" d="M1110.2,1089.6c-3.9,0-7.8-0.6-11.6-1.7l-30.2-9c-15.2-4.5-26.4-17.4-28.8-33c-5-32.2,5.3-53.9,15-66.5
		c7-9.5,16.3-17.1,27-22.1c13-18.2,38.2-22.5,56.5-9.7l26.8,18.5c13.2,9.3,19.8,25.4,16.9,41.3c-5.8,30.5-33.7,61-41.9,69.7
		C1132.1,1085.1,1121.4,1089.6,1110.2,1089.6z"/>
	<path class="st1" d="M1076.4,1035c-3.6,0-6.2-0.2-7.4-0.3c-9.9-1-19.1-5.6-25.9-12.9c-23-24.7-20.9-56-9.2-74.6
		c7.1-11.3,19.2-18.4,32.5-19l34.5-1.8h2.1c20,0,37.1,14.5,40.3,34.2c3.3,19.6-1.3,38-12.9,51.6S1098.9,1035,1076.4,1035z"/>
	<path class="st1" d="M726.9,480.3c-10.9,0-21.3-4.3-29-12c-3.9-3.9-23.1-24.8-20.3-54.5c1.4-13.8,7.9-33.7,31.7-49.8
		c18.6-12.8,44-8,56.8,10.6c5.9,8.6,8.3,19.2,6.6,29.5c0.1,0.3,0.1,0.6,0.2,1.1c3.4,9,7.6,26.2-0.2,44.1
		c-6.3,14.3-18.5,24.7-34.2,29.4C734.7,479.7,730.8,480.3,726.9,480.3z"/>
	<path class="st1" d="M720.3,436c-14.1-0.1-27.4-6.4-36.3-17.3c-9.6-12.1-11.5-28.5-5.1-42.5c15-32.6,36.1-39.5,51.1-39.5
		c21.1,0,35.7,13.4,42.3,26c7.1,13.4,6.3,29.6-2.2,42.1C756.1,425.5,739.5,436,720.3,436L720.3,436z"/>
	<path class="st1" d="M754.9,390h-2.3c-13.2-0.7-26.1-7.3-35.4-18.1c-12.5-14.4-17.6-34.6-15.5-60.3c0.4-4.2,1.4-8.3,3-12.2
		c8.1-19.5,29.4-39.3,58.6-39.3c16.9,0,33.9,6.5,50.8,19.4c11.7,9,18.5,23.2,16.4,37.8s-10.9,26.4-24.4,31.9
		c-3,1.6-10.2,6.7-12.6,13.2C787.8,378.9,772.3,390,754.9,390z"/>
	<path class="st1" d="M702.5,610c-6.6-0.1-13-1.7-18.9-4.6c-7.9-4.3-15.5-9.1-22.8-14.4c-22-16.4-33.3-33.9-34.3-53.5
		c-1.1-19.6,8.2-36.6,25.3-48c15.2-10,35.2-8.9,49.1,2.9c7.8,6.6,15,13.9,21.6,21.7c26.8,32,24.1,56.9,17,72.2
		C733,600.7,718.5,610,702.5,610z"/>
	<path class="st1" d="M783.2,875.7c-38.9-0.1-71.6-29.2-76.1-67.9c-2.5-22.5,13.6-42.8,36-45.4l3.3-0.2
		c0.7-22.6,19.5-40.3,42.1-39.6c0,0,0,0,0,0l0,0l3.4,0.2c42.1,4.4,72.6,42.1,68.2,84.2C855.9,846.3,822.6,876.1,783.2,875.7z"/>
	<path class="st1" d="M919.5,469.5c-26.9,0-47-16.2-56.4-30.6c-34.6-49.8-13.2-92.9,9.8-109.7c7-5.2,15.5-8,24.2-7.9h1.4
		c47.6,1.7,92.1,14.6,94,15.1c21.7,6.3,34.1,29,27.8,50.7c0,0,0,0.1,0,0.1c-0.1,0.5-0.3,1.1-0.4,1.5c-10.9,32.3-38.2,53.3-48.2,60.2
		C954.8,462.5,937.3,469.5,919.5,469.5z"/>
	<path class="st1" d="M931.5,484.9c-15.2,0-28.5-5-38.5-14.4c-16.5-15.3-17.5-41.1-2.2-57.6l0,0c4-4.3,8.8-7.7,14.1-9.9
		c15.8-6.9,41.3-22.7,47.8-34.7c7.1-13.2,20.9-21.4,35.9-21.3h1.6c15.6,0.6,29.4,10,35.8,24.2c3.1,6.9,9.4,24.7,2.2,43.1
		c-0.9,2.4-2.1,4.8-3.5,7c-3.1,4.8-30.8,47.1-76.3,61.6l-4.5,1.2C939.8,484.4,935.6,484.8,931.5,484.9L931.5,484.9z"/>
	<path class="st1" d="M964.1,588.3c-15.4,0-28.9-4.9-39.2-13.9c-16.8-15-18.4-40.9-3.4-57.7c4.2-4.7,9.4-8.4,15.2-10.8
		c17.8-7.3,48-24.8,56.3-39.1c7.2-12.8,20.8-20.6,35.5-20.6h1.7c15.3,0.5,29,9.6,35.4,23.5c3.4,7.2,10.5,26,2.5,45.2
		c-1.1,2.5-2.3,4.8-3.8,7.1c-3.3,5-33.9,49.3-83.3,64.2l-4.3,1.1C972.5,588,968.3,588.3,964.1,588.3z"/>
	<path class="st1" d="M1031.5,682.2c-15.8,0-29.8-4.8-40.2-13.7c-17.2-14.7-19.3-40.5-4.6-57.7c4.4-5.2,10-9.2,16.3-11.6
		c21.1-8.2,57.1-28.3,67-45c7.4-12.4,20.8-20,35.3-20h1.7c15,0.6,28.5,9.4,34.9,22.9c3.7,7.6,11.5,27.4,2.9,47.6c-1,2.5-2.4,5-4,7.2
		c-3.7,5.3-37.6,52.6-92.1,68.2c-1.4,0.4-2.8,0.7-4.2,1C1040.2,681.7,1035.8,682.1,1031.5,682.2L1031.5,682.2z"/>
	<path class="st1" d="M1081.8,780.6c-15.8,0-29.8-4.8-40.2-13.7c-17.2-14.7-19.3-40.5-4.6-57.7c4.4-5.2,10-9.2,16.3-11.6
		c21.1-8.2,57.1-28.3,67-45c7.4-12.4,20.7-20,35.2-20h1.7c15,0.5,28.5,9.4,35.1,22.9c3.7,7.6,11.4,27.4,2.7,47.6c-1,2.5-2.4,5-4,7.2
		c-3.7,5.3-37.6,52.6-92.1,68.2c-1.4,0.4-2.8,0.7-4.2,1C1090.5,780.2,1086.2,780.6,1081.8,780.6L1081.8,780.6z"/>
	<path class="st1" d="M954.1,567.6c-8.7-0.1-17.4-1.1-25.9-3c-10.4-2.4-19.5-8.6-25.3-17.5c-2.6-4-25.4-40.2-22.9-86.7
		c1.1-21.7,19.1-38.8,40.9-38.7h1.9c2.7-0.1,29.7-2.6,57.9-48c7.1-11.4,19.4-18.7,32.8-19.3h2c12.8,0,24.8,6,32.5,16.2l28.1,36.8
		c7.5,9.8,10.2,22.4,7.3,34.4c-5.3,20.6-13.5,40.3-24.3,58.6c-10.7,18.2-23.5,33-37.8,44C1001.1,559.7,978.5,567.6,954.1,567.6z"/>
	<path class="st1" d="M986.6,671.8c-5.4,0-11-0.2-16.6-0.7c-9.6-0.9-18.6-5.2-25.4-12c-4-4.1-39.3-41.4-40.1-94.2
		c-0.2-11.1,3.4-21.9,11.3-29.7c7.4-7.6,17.5-11.9,28.1-11.9h0.6c5.3-0.4,52-5.8,92.1-66.5c12.4-18.9,37.8-24.1,56.7-11.7l0,0
		c1.5,1.1,3,2.1,4.3,3.3l42.4,37.1c11.3,9.8,16.3,24.9,13.1,39.5c-6.2,25.3-16.6,49.4-30.9,71.2c-14.1,21.3-31.1,38.5-50.7,51.1
		c-25.1,16.5-53.6,24.6-84.9,24.6L986.6,671.8z"/>
	<path class="st1" d="M1049.4,757.9c-5.1,0-10.2-0.2-15.3-0.6c-9.4-0.8-18.3-4.8-25.1-11.4c-4-3.9-39.2-39.5-39.8-90.5
		c-0.1-11.1,3.4-21.7,11.3-29.6c7.3-7.6,17.4-11.9,28-11.9h0.5c5.1-0.4,50.7-5.5,89.7-62.1c12.8-18.6,38.3-23.2,56.9-10.5
		c1,0.7,2,1.5,3,2.3l41.3,34.5c11.8,9.9,17,25.5,13.6,40.5c-6.3,24.2-16.8,47.2-30.9,67.9c-14,20.3-30.9,36.5-50.1,48.5
		C1107.7,750.2,1079.8,757.9,1049.4,757.9z"/>
	<path class="st1" d="M1063.7,836.1c-5.3,0-10.7-0.7-15.8-2c-2.7-0.8-5.3-1.8-7.8-3.1c-20.1-10.6-31.9-31.3-31.6-55.5
		c0.2-8.8,1.8-17.4,4.5-25.8c5.4-15,19-25.5,34.8-26.9c15.7-1.4,52.3-16.6,71.9-26.4c20.2-10.1,44.7-1.9,54.8,18.2
		c0,0,0,0.1,0.1,0.1c3.9,7.7,5.2,16.5,3.7,25l-3.7,22.5c-1.4,8.8-5.7,16.8-12.1,22.9C1118.4,827.3,1084.4,836.1,1063.7,836.1z"/>
	<path class="st1" d="M639.6,1125.3c-122.8-1.2-182.3-30.5-193.3-36.6c-30-15.5-38-36.1-39.4-50.8c-2.1-22.2,9.8-39.9,21.7-49.1
		c15-11.6,36-11.4,50.8,0.5c43.9,35.5,113.9,39.4,141.9,39.4c9.5,0,15.4-0.4,15.4-0.4h6.5c0,0,5.8,0.4,15.3,0.4
		c28.1,0,98.1-3.8,141.9-39.4c14.8-11.9,35.8-12.1,50.8-0.5c11.9,9.2,23.9,26.9,21.7,49.1c-1.4,14.7-9.4,35.3-39.4,50.8
		c-11.1,6.1-70.6,35.6-193.3,36.6H639.6z"/>
	<path class="st1" d="M1152.5,1031h-1.1c-11.1-0.3-21.5-5.1-29-13.2c-4.4-4.8-8.2-10-11.5-15.5c-13.9-3-25.2-13-30-26.4
		c-11-4.5-19.5-13.4-23.4-24.6c-0.6-2-1.2-4-1.7-6c-9.8-6.7-19.7-16.9-28.3-32.7l-1.6-0.7c-0.2-0.1-0.5-0.1-0.5-0.2l-0.5-0.2
		c-16.3-5.8-27.2-21.2-27.2-38.5v-0.6c-0.1-17.2,10.7-32.6,26.9-38.4l0.7-0.3l2.3-1c8.6-15.8,18.5-26.2,28.3-32.8
		c0.1-0.3,0.1-0.6,0.2-1c0.1-0.3,0.1-0.7,0.2-1.1s0.8-2.9,1.1-3.6c3.7-11.4,12.4-20.6,23.5-25c4.7-13.4,16.1-23.5,30-26.4
		c1.4-2.6,3.1-5.1,4.9-7.4c6.3-8.7,14.1-16.2,23-22.3c1.1-1.4,2.1-2.9,3-4.4c6.3-15.3,21.3-25.2,37.8-25.1h0.4
		c16.6,0,31.5,9.9,37.8,25.2c0.7,1.6,1.7,3.1,3,4.4c11.4,7.9,35.6,28.7,38.9,63.6c0.1,1.6,0.2,3.2,0.2,4.8
		c-0.2,10-0.7,20.1-1.4,29.9c-1.8,26.2-24.5,45.9-50.6,44.2c-10-0.7-19.5-4.5-27.2-10.9c-4,12.1-13.4,21.6-25.3,25.9l-1.8,1.9
		c0.7,0.6,1.3,1.3,1.8,2c12.6,4.5,22.3,14.8,25.9,27.8c7.4,7.6,11.7,17.7,11.9,28.3c0.9,0.6,1.8,1.3,2.6,2.1
		c2.3,2.1,4.6,4.3,6.9,6.8c12.5,14.1,13.9,34.9,3.4,50.5c-7.3,10.6-15.5,20.5-24.6,29.6C1173.6,1026.8,1163.2,1031,1152.5,1031z"/>
	<path class="st1" d="M1182.3,938.9h-2.3c-34.5-1.4-62.3-28.9-63.9-63.5c0-1-0.1-1.8-0.1-2.6l0,0c0-1.1,0.1-2,0.1-3
		c1.6-34.5,29.3-62.1,63.9-63.5h2.5c0.8-0.1,1.6,0,2.3,0.1c34.5,1.3,62.3,28.9,63.9,63.5c0,0.8,0.1,1.7,0.1,2.5v0.4
		c0.1,0.9,0,1.8-0.1,2.6c-1.5,34.5-29.3,62.1-63.9,63.3L1182.3,938.9L1182.3,938.9z"/>
	<path class="st1" d="M1182.3,929.9h-3c-29-1.7-52.2-24.8-54.2-53.7c-0.1-1.1-0.1-2.2-0.1-3.3v-0.4c0-1.2,0-2.3,0.1-3.4
		c2-28.9,25.2-51.9,54.2-53.6c1-0.1,2-0.2,3-0.1h0.3c1-0.1,2,0,3,0.1c29.1,1.7,52.3,24.8,54.3,53.8c0.1,1.1,0.1,2.1,0.1,3.3v0.4
		c0,1.2,0,2.3-0.1,3.4c-2.1,28.9-25.3,51.9-54.3,53.6h-3.3L1182.3,929.9z"/>
	<path class="st1" d="M1180.5,992c-13.5-0.1-26.1-6.7-33.8-17.7c-5.3-4.1-10.1-8.9-14.1-14.3c-7.9-3.5-14.5-9.3-18.9-16.7
		c-7.1-4.7-12.7-11.4-15.8-19.3c-4.9-4.3-9.2-9.2-12.8-14.7c-13.8-7-22.5-21.1-22.5-36.5v-0.3c0-15.4,8.7-29.6,22.5-36.5
		c3.5-5.5,7.8-10.4,12.8-14.7c3.2-7.9,8.7-14.6,15.8-19.3c4.4-7.4,11-13.3,18.9-16.7c3.9-5.2,8.5-9.9,13.6-13.9
		c7.1-13.1,20.9-21.2,35.8-21.1h0.5c14.9-0.1,28.7,8,35.9,21.1c5.2,3.9,9.8,8.6,13.6,13.9c17.9,7.8,27.8,27.1,23.8,46.1
		c0,2.2-0.1,4.3-0.4,6.4c0.1,2.4,0.1,4.7-0.1,7.1c-1.1,8.1-2.2,16-3.6,23.5c-1.1,6.6-3.8,12.7-7.9,17.9c1.5,6.5,1.3,13.3-0.5,19.7
		c-7,25-16.3,47.3-27.6,66.2C1208.2,984.5,1194.9,991.9,1180.5,992z"/>
	<path class="st1" d="M96,1118.5h-8.8c-22.6-0.3-40.7-18.9-40.4-41.5c0.3-19.4,14.1-36,33.2-39.7c45.9-9.4,91-21.9,135.1-37.6
		c91.5-32.5,157.7-72.1,191.3-114.5c9.5-11.9,24.8-17.6,39.8-14.8c7.1,1.4,43.4,9.9,58.8,43.1c6.9,14.9,11.5,39.2-5.9,70.2
		c-2.1,3.7-4.8,7.1-7.9,10C486,998.7,353.5,1118.5,96,1118.5z"/>
	<path class="st1" d="M1184,1118.5c-257.5,0-390-119.8-395.4-124.9c-3.2-2.9-5.9-6.3-7.9-10c-17.4-30.9-12.8-55.2-5.9-70.2
		c15.3-33.2,51.6-41.7,58.8-43.1c15-2.9,30.4,2.8,39.8,14.8c33.6,42.4,99.8,82,191.3,114.5c44.1,15.6,89.3,28.2,135.1,37.6
		c22.2,4.3,36.8,25.7,32.5,48c-3.7,19.1-20.2,33-39.7,33.2L1184,1118.5z"/>
	<path class="st2" d="M596.7,352.4c0,0,1.3-32,43.3-56.4c42,24.4,43.3,56.4,43.3,56.4c21.9-6.4,32.8-20,32.8-20
		c17.9-32.3-21.6-56.4-21.6-56.4c3.1,20.5-5.6,17.9-5.6,17.9c-8.1,2-5.4-25-5.4-25c-0.2-39.8-43.5-73.5-43.5-73.5
		s-43.3,33.7-43.6,73.5c0,0,2.9,26.9-5.4,25c0,0-8.7,2.5-5.6-17.9c0,0-39.6,24.2-21.6,56.4C564,332.5,574.8,345.9,596.7,352.4z"/>
	<path class="st2" d="M551.3,369c0,0,13.5-4.1,32,36.6c0,0,30.1,21.3,56.7-41.5c26.7,62.8,56.8,41.5,56.8,41.5
		c18.5-40.6,32-36.6,32-36.6c18.4-0.1,14.6-11.8,14.6-11.8c-30.6-31.6-67.9,17.9-67.9,17.9c6.9-34.4-35.5-63.1-35.5-63.1
		s-42.2,28.7-35.4,63.1c0,0-37.5-49.5-67.9-17.9C536.6,357.2,532.8,368.8,551.3,369z"/>
	<path class="st2" d="M640,501.9c0,0,2.2,35.6,13.8,33.9c0,0,24.3-62.5,4.3-69.8c0,0-11.2-4.9-18.2-3.9c-7-1-18.2,3.9-18.2,3.9
		c-20.1,7.3,4.3,69.8,4.3,69.8C637.9,537.5,640,501.9,640,501.9z"/>
	<path class="st2" d="M519.6,641.8c0,0,82.2,16.6,67.6-34.2c0,0,45.2,1.4,52.9-48c7.8,49.4,52.9,48,52.9,48
		c-14.6,50.8,67.7,34.2,67.7,34.2c23-10.7,7.3-22.2,7.3-22.2c-103.3-28.1-127.7-76.3-127.7-76.3s-24.5,48.2-127.7,76.3
		C512.3,619.6,496.5,631.1,519.6,641.8z"/>
	<path class="st2" d="M596.4,800.7c40.6,13.5,38.2-30.8,38.2-30.8c-20.5-31.7-46.3-16-46.3-16c-3.4,22.2,20.8,22.2,20.8,22.2
		c-29.1,9-48-32-48-32c-36.5-49.4-84.1-32.5-84.1-32.5c-30,14.6-63.7-8.1-63.7-8.1c0,44.7,19.6,60,19.6,60c-5.6-32.1,3.4-38,3.4-38
		c40.1,34.8,32.5-2,32.5-2c36.2,5.9,75.8,39,75.8,39C562.4,803.1,596.4,800.7,596.4,800.7z"/>
	<path class="st2" d="M419,694.7c17.7,20.1,94.1-4,94.1-4c20.8-4,68.3,57.2,68.3,57.2c24.7-24.9,0-47,0-47
		C579,716.9,571,711,571,711c-8.4-23.4-29-42.4-29-42.4c-11.6-9-14.8,3-14.8,3l-45.1-11.8c-38.7-11-32.1,16.4-32.1,16.4
		c-44.6-11.1-59.5-46.8-59.5-46.8c-2.9,9.5-2.2,19.7,2.1,28.7c-10.6,49.9,8,57.4,8,57.4c-7.3,8-16-3.6-16-3.6
		c-1.2,26.1,14,45.5,14,45.5c14.5,2.3,2.5-71.4,2.5-71.4C408.8,677.6,419,694.7,419,694.7z"/>
	<path class="st2" d="M526,581.1c0,0-35.9,11.6-52.4,31c0,0-12.5,15.3-22.1-28.8c0,0-37.4,14.6-18.7,51.3c0,0,19.7,21.3,57.2-12.4
		c0,0,41.5-31,65.9-31.5c0,0,15.7-11.6,3.7-35.6C559.6,555.2,551.3,575,526,581.1z"/>
	<path class="st2" d="M382.9,600.3c23.8,20.4,44.6-2.1,44.6-2.1c24.5-33.4,39.5-36.2,39.5-36.2c8-4.1,3.4,22.6,3.4,22.6
		c44.6-1.2,79.2-30.8,79.2-30.8c4.2-31,24.1-20.9,24.1-20.9c23.3-7.8,14.7-46.8,14.7-46.8c-7.1,24.9-68.3,46.6-68.3,46.6
		c-25,2.6-31.4,22.6-31.4,22.6c-16,10.5-7.2-36.3-7.2-36.3C398.9,549.1,382.9,600.3,382.9,600.3z"/>
	<path class="st2" d="M379.2,475.6c0,0-8.1,29.9,19.2,53.4c0,0-15.3,8.1-29.7-22.9c0,0-14.3,71.1,14.3,65.9c0,0,11.9-16.5,31.6-25.5
		c0,0,21.7-11.9,10.8-33.8c0,0-20.4,19.5-35.5-8.9c0,0-15-19.6,1.6-28.5c0,0,17.6,3.3,17.4,26.7c0,0,15.6,2.6,11.9-21
		c0,0-2.5-10.7-18.1-21.7c0,0,17.9-7.8,6.8-16.6C409.3,442.8,392.2,427.9,379.2,475.6z"/>
	<path class="st2" d="M490.1,472.2c-66.4-5-48.7,52.5-48.7,52.5c31.3-17.4,57.3-23.9,57.3-23.9c-1.7,5.5,0,13.4,0,13.4
		c5.1,20,17.8,3.5,17.8,3.5c6.8-19.7-12.7-22.9-12.7-22.9c-18.7,3.3-25.9-0.5-25.9-0.5C492.8,482.2,490.1,472.2,490.1,472.2z"/>
	<path class="st2" d="M537.9,451.6c-34.1,16.6-1.6,41.7-1.6,41.7c43.1,16.5,44.8-22.5,44.8-22.5c8.2-20.1-4.3-28.6-4.3-28.6
		c-3.8,61.8-38.4,32.9-38.4,32.9c15.8,6.8,20.2-5.4,20.2-5.4C559.6,446.6,537.9,451.6,537.9,451.6z"/>
	<path class="st2" d="M419.6,433.5c0,0,8.7,9.3,5.1,29.6c0,0-1,15.7,7.3,23c0,0,27.3-28.8,43.6-25.4c0,0,21.7,2.2,23.8,19.3
		c2.4,5.5,7.8,9.1,13.8,9.2c0,0,5.3-21.1-5.1-32.9c0,0-36.1,6.3-41.7-2.9c0,0-0.6-21.3-27.9-0.6c0,0-14.6,5.5-7-30.2
		c0,0,8.4-12.7,28.5,0c0,0,46,22.7,64-13.3c0,0,3-5.7-0.7-14.1c0,0-24.7,17.6-37.6,1.1c0,0-7-14.4,12.5-15.2c0,0,20.2,8.8,18.4-10.7
		c0,0,3.4-39-34.1-47.2c0,0-27.3,1.5-26,18.2c0,0,23.4,2.2,23.5,14.8c0,0-68.3,25.9-64.6,62.7C415.4,418.7,413.6,427.4,419.6,433.5z
		"/>
	<path class="st2" d="M519.7,428.3c-34.4,18.9-44.2,8-44.2,8c-21.6-19.5-29.9-4.1-29.9-4.1c5.2,5.8,41.5,12.8,41.5,12.8
		C522.6,445.1,519.7,428.3,519.7,428.3z"/>
	<path class="st2" d="M355.1,652.3c0,0-15.2,10.5-9.9,30.5c0,0-28.4,54.8,4.6,79.9c0,0-13.1-29.8-5.3-39.3c0,0,3,27.7,35.9,68.5
		c0,0-9.7,11.4-30.3-12.4c0,0-11.3-17.6-19-15.3c0,0-1.8,19.5,5.5,24.2c0,0-8,35.5,30.8,38.3c0,0,33.6,2.4,57.1-5.6
		c0,0-44.7-29.8-53-98.8C371.6,722.3,355.3,661.7,355.1,652.3z"/>
	<path class="st2" d="M317,657.6c0.4,33.2-13.8,33.7-13.8,33.7c-3.4-9.4-17.4-19.1-17.4-19.1c-9.9,1.3-5.1,16.8-5.1,16.8
		c6.6,7.2,10.4,16.7,10.5,26.5c7.1,61.9,32.5,55.6,32.5,55.6c-4.9-129.9,41.4-145.6,41.4-145.6l-21.3-26.4
		C326.7,604.8,317,657.6,317,657.6z"/>
	<path class="st2" d="M285.8,780.3c-7.8-41-25.2-54.6-25.2-54.6c-10.7,10.5,1.6,27.6,1.6,27.6c7,8.8,3.4,23.9,3.4,23.9
		c3.4,34.5,37.9,45.7,37.9,45.7c13.5-0.3,5.1-38.7,5.1-38.7c-17.9-18.3-27.2-63.7-27.2-63.7c-5.9,18.6,13.4,58.1,13.4,58.1
		C292,786.1,285.8,780.3,285.8,780.3z"/>
	<path class="st2" d="M571.5,1011.7c0,0,27.3-79.7-40.8-83.1C530.7,928.7,494.4,979.6,571.5,1011.7z"/>
	<path class="st2" d="M612.2,940.3c0,0-13.4,18.8,15.1,30.7C627.3,971.1,637.4,941.6,612.2,940.3z"/>
	<path class="st2" d="M513,993c0,0,11.3-23.8-16.9-24.7C496,968.3,481,983.4,513,993z"/>
	<path class="st2" d="M507.5,957.9c0,0,5.8-38.3-15.7-39.8c0,0,11.1,21.1,4.1,41C495.8,959,500.4,973.2,507.5,957.9z"/>
	<path class="st2" d="M328.1,890.4c0,0,28.6,1.4,17.4-35.7C345.5,854.8,309.5,864.6,328.1,890.4z"/>
	<path class="st2" d="M335.4,905.3c0,0,2.2,14.8,14.7,19.4C350.2,924.7,360.2,903.3,335.4,905.3z"/>
	<path class="st2" d="M338.7,834.2c5.6,20.2,26.7,6.7,26.7,6.7C361.1,829.3,338.7,834.2,338.7,834.2z"/>
	<path class="st2" d="M410,794.3c5.5,11.4,18.4,8.2,18.4,8.2c2.3-7.8-1.3-16.1-8.4-20L410,794.3z"/>
	<path class="st2" d="M335.4,967.4l15.1-13.8c-17-2.4-23.2-8.8-23.2-8.8c-3.9-12.1-17.2-9.9-17.2-9.9
		C304.9,948.9,335.4,967.4,335.4,967.4z"/>
	<path class="st2" d="M217.5,1028.9c94.1-20.2,94.5-54.8,94.5-54.8c-8.7-37.8-42.1-30.1-42.1-30.1
		C219.6,963.2,217.5,1028.9,217.5,1028.9z"/>
	<path class="st2" d="M165.3,981.3l-26.7,18.5c3.9,20.8,31.1,48.9,31.1,48.9l30.3-9c5.4-34.8-18.3-44.9-18.3-44.9
		C174,994.2,167.4,988.8,165.3,981.3z"/>
	<path class="st2" d="M206.8,994c12-12.9,4.5-24.8,4.5-24.8l-34.5-1.8C171.8,997.6,206.8,994,206.8,994z"/>
	<path class="st2" d="M553.1,439.4c0,0,22.6-22.6-5.3-41.5c0,0,2.4,5.8-1.9,20.6C546,418.5,537.8,434.9,553.1,439.4z"/>
	<path class="st2" d="M564,393.3c-12.1-26.4-20.1-11.4-20.1-11.4C557.1,401.7,564,393.3,564,393.3z"/>
	<path class="st2" d="M525.1,349c0,0,15.2-0.8,12.4-34c0,0-12.2-29.5-46.6-3.1C490.9,312,516.2,323.2,525.1,349z"/>
	<path class="st2" d="M577.5,569.1c0,0,54.1-28.1,27.9-45.5C605.4,523.6,570.3,553.4,577.5,569.1z"/>
	<path class="st2" d="M640,457.6c12.7-2.4,34.9,5.1,34.9,5.1c-0.3-14-34.9-11.6-34.9-11.6s-34.6-2.4-34.9,11.6
		C605.2,462.7,627.3,455.3,640,457.6z"/>
	<path class="st3" d="M492.7,763.5c-19.6,2.3-33.6,20-31.3,39.6c2.3,19.6,20,33.6,39.6,31.3c16.4-1.9,29.4-14.9,31.3-31.3
		c-9.1,13-27,16.2-40,7.1c-12.2-8.5-15.9-24.9-8.5-37.8C486.1,768.8,489.2,765.8,492.7,763.5z"/>
	<path class="st2" d="M333.2,416c32.5,28.1,49.7,0,49.7,0c25-35.6,0-53.8,0-53.8c-43.1,1.5-83.8,13.5-83.8,13.5
		C307.1,399.6,333.2,416,333.2,416z"/>
	<path class="st2" d="M344,443.5c0,0,9.9,1.9,15.2-3c0,0-50.7-21.5-67.8-52.8c0,0-3.2,7.1-1.5,11.4
		C289.9,399.1,311.4,433.2,344,443.5z"/>
	<path class="st2" d="M251.4,487.1c0,0-3.6,7.6-1.7,12.2c0,0,24.3,36.6,61,47.6c0,0,11.2,2.1,17.1-3.2
		C327.8,543.9,270.6,520.7,251.4,487.1z"/>
	<path class="st2" d="M174.8,575.1c0,0-4.1,8.3-1.9,13.4c0,0,27.8,40.1,69.8,52.3c0,0,12.8,2.3,19.5-3.5
		C262.3,637.3,196.8,611.9,174.8,575.1z"/>
	<path class="st2" d="M211.9,735.7c0,0-65.5-25.3-87.4-62.2c0,0-4.1,8.3-1.9,13.4c0,0,27.8,40.1,69.8,52.3
		C192.4,739.2,205.1,741.5,211.9,735.7z"/>
	<path class="st2" d="M342.9,524.8c0,0,18.2-27.7,16.3-62c0,0-49.9,4.3-94.5-67.4l-28.1,36.8C236.6,432.2,263.2,542.5,342.9,524.8z"
		/>
	<path class="st2" d="M306.3,630.4c0,0,27.8-28.1,28.4-66c0,0-69.9-1.1-125.2-84.9L167,516.5C166.9,516.5,193.7,640.5,306.3,630.4z"
		/>
	<path class="st2" d="M242.7,716.5c0,0,26.9-26.2,27.4-61.7c0,0-68.1-1.3-122.4-79.7l-41.3,34.5C106.5,609.7,133,725.6,242.7,716.5z
		"/>
	<path class="st2" d="M220.9,794.7c15.7-8.2,7.5-31.3,7.5-31.3c-30.7-2.7-86.5-30.5-86.5-30.5l3.7,22.5
		C194.7,802.2,220.9,794.7,220.9,794.7z"/>
	<path class="st2" d="M72.7,814c-3.2-21.2,16.7-32.4,16.7-32.4c4.8-4.2,8.5-9.4,11-15.2c2.5,5.8,6.3,11,11,15.2
		c0,0,19.8,11.2,16.7,32.4c0,0,3.8-6.2,15.3-5.6c-1.2,2.4-1.7,5.1-1.4,7.7c0,0,1.4,9.4-3.5,16c0.4-0.3,8.9-5.5,17.4-3.2
		c0,0,4.9,1.1,4.2-3.2c0,0,3.5,10.1-4.5,17.7c0.4-0.3,16.9-10,30,18.5c0,0,3.4,6,16.4,10.6c-13,4.5-16.4,10.6-16.4,10.6
		c-13.1,28.5-29.6,18.8-30,18.5c8,7.7,4.5,17.7,4.5,17.7c0.7-4.2-4.2-3.2-4.2-3.2c-8.4,2.3-17-2.9-17.4-3.2c4.9,6.7,3.5,16,3.5,16
		c-0.2,2.6,0.2,5.3,1.4,7.7c-11.5,0.7-15.3-5.6-15.3-5.6c3.2,21.2-16.7,32.4-16.7,32.4l-3.3,3.2c5.7,8.3,12.2,16.1,19.3,23.2
		c7-7.6,14-19.5,11.6-35.6c0,0,5.4,8.8,21.4,7.8c0,0-3-5.4-1.9-10.7c0,0,1.9-13.1-4.9-22.4c0.3,0.2,12.4,7.7,24.3,4.3
		c0,0,6.9-1.5,5.8,4.3c0,0,4.9-14.1-6.3-24.8c0.6,0.4,23.5,14,41.8-25.8c0,0,4.2-7.6,20.2-13.7l2-0.7v-0.6l-1.1-0.4
		c-16.8-6.2-21.2-14.1-21.2-14.1c-18.3-39.8-41.2-26.2-41.8-25.8c9.2-8.9,7.5-20,6.7-23.6l-0.3-1.2c0,0.3,0.1,0.6,0.1,1
		c0.1,4.8-5.9,3.4-5.9,3.4c-12-3.4-24,4.2-24.3,4.3c6.9-9.2,4.9-22.4,4.9-22.4c-0.4-2.7-0.1-5.5,0.8-8c0.3-0.9,0.7-1.8,1.2-2.6
		c-1.4-0.1-2.7-0.1-4.1,0c-12.9,0.5-17.3,7.8-17.3,7.8c1.7-11-1.2-22.2-7.9-31c-4.1-5.7-9.3-10.6-15.4-14.1h-0.1
		c-6.5-5.8-11.7-12.9-15.2-20.9H100c-3.5,8-8.7,15.1-15.2,20.9c0,0-21.5,12-23.6,35.2c0.2,8.9,0.6,18.2,1.3,28
		C70.1,809.6,72.7,814,72.7,814z"/>
	<path class="st2" d="M97.3,897.9h0.4c13.8-0.3,25-11.4,25.2-25.2l0,0v-0.4l0,0c-0.3-13.8-11.4-25-25.2-25.2h-0.4
		c-13.8,0.3-25,11.4-25.2,25.2l0,0v0.4l0,0C72.5,886.4,83.6,897.5,97.3,897.9z M97.6,850.8c12,0.9,21,11.3,20.1,23.3
		c-0.8,10.8-9.4,19.4-20.2,20.1c-12,0.8-22.4-8.3-23.2-20.2c-0.8-12,8.3-22.4,20.2-23.2C95.5,850.7,96.5,850.7,97.6,850.8z"/>
	<path class="st2" d="M97.3,888.9h0.4c8.8-0.2,16-7.3,16.3-16.2l0,0v-0.4l0,0c-0.2-8.9-7.4-16-16.3-16.2h-0.4
		c-8.8,0.3-15.9,7.3-16.3,16.2l0,0v0.4l0,0C81.5,881.6,88.5,888.6,97.3,888.9z"/>
	<path class="st2" d="M106,943.2c0,0,15.4-8.7,13.1-25.1c0,0,3,4.9,11.9,4.3c-0.9-1.8-1.3-3.9-1.1-5.9c0,0,1.1-7.3-2.6-12.5
		c0,0,6.8,4.3,13.5,2.4c0,0,3.7-0.7,3.3,2.3c1.5-4.9,0.2-10.2-3.5-13.7c0.6,0.4,13.2,7.6,23.3-14.4c0,0,2.6-4.6,12.6-8.1v-0.3
		c-9.9-3.5-12.6-8.1-12.6-8.1c-10-21.9-22.7-14.7-23.3-14.4c3.7-3.5,5.1-8.9,3.5-13.7c0.4,3.2-3.3,2.4-3.3,2.4
		c-6.8-1.9-13.5,2.4-13.5,2.4c3.8-5.2,2.6-12.5,2.6-12.5c-0.2-2,0.2-4.1,1.1-5.9c-9-0.5-11.9,4.3-11.9,4.3
		c2.4-16.6-13.1-25.1-13.1-25.1c-3.4-3.1-6.1-6.8-8.1-10.9h-0.5c-1.9,4.2-4.7,7.9-8.1,10.9c0,0-15.5,8.7-13.1,25.1
		c0,0-3-4.9-11.9-4.3c1,1.8,1.4,3.9,1.1,5.9c0,0-1.1,7.3,2.6,12.5c-0.8-0.5-1.6-1-2.5-1.3c0.8,7.1,1.9,14.3,3.2,21.4
		c6.2-16.1,24.2-24.2,40.4-18s24.2,24.2,18,40.4c-6.2,16.1-24.2,24.2-40.4,18c0,0,0,0-0.1,0c-3.8-1.5-7.3-3.7-10.3-6.5
		c5.6,20,13.1,39.2,23.3,56.2C101.2,948,103.4,945.4,106,943.2z"/>
	<path class="st2" d="M640,417.2c0,0-47.6-0.8-43.1,18.3c0,0,1.4,14.9,17.2,11c0,0,18.7-5.9,25.8-3.3c7.1-2.6,25.8,3.3,25.8,3.3
		c15.8,3.9,17.2-11,17.2-11C687.6,416.4,640,417.2,640,417.2z"/>
	<path class="st2" d="M710.5,671.7c15.2-15.7,0-17.6,0-17.6c-30.6-0.8-29.8-18.8-29.8-18.8c-6.8-22.5-14.8-8.4-14.8-8.4
		c-8.6-1.2-26.1-37.9-26.1-37.9s-17.5,36.7-26.1,37.9c0,0-8-14-14.8,8.4c0,0,0.8,17.9-29.8,18.8c0,0-15.2,2,0,17.6
		c0,0,23.3,22.5,38.7,18.3c0,0,27.1-8.1,31.8-22.2c4.6,14,31.8,22.2,31.8,22.2C687.2,694.2,710.5,671.7,710.5,671.7z"/>
	<path class="st2" d="M662.3,705.4c-3.9,13.5-9.8,10.1-9.8,10.1c-4.5-30.3-12.5-31.1-12.5-31.1s-7.9,0.8-12.5,31.1
		c0,0-5.9,3.4-9.8-10.1c0,0-4.2-20.9-12.7,10.5c0,0-6.9,32.4,34.9,30.5c41.7,2,34.9-30.5,34.9-30.5
		C666.5,684.6,662.3,705.4,662.3,705.4z"/>
	<path class="st2" d="M867,703.2c0,0-33.8,22.7-63.7,8.1c0,0-47.7-16.8-84.1,32.5c0,0-18.8,41-48,32c0,0,24.2,0,20.8-22.2
		c0,0-25.9-15.7-46.3,16c0,0-2.6,44.3,38.2,30.8c0,0,34,2.5,51.9-38.4c0,0,39.6-33.2,75.8-39c0,0-7.6,36.7,32.5,2c0,0,9,5.9,3.4,38
		C847.2,763.2,867,747.9,867,703.2z"/>
	<path class="st2" d="M889.7,629.3c0,0-15,35.7-59.7,46.8c0,0,6.7-27.3-32.2-16.5c0,0-44.6,11.4-45.1,11.8c-0.5,0.4-3.2-11.9-14.8-3
		c0,0-20.6,19.1-29,42.4c0,0-7.9,6-10.5-10.1c0,0-24.7,22.1,0,47c0,0,47.5-61.2,68.3-57.2c0,0,76.3,24.1,94.1,4
		c0,0,10.2-17,17.9-8.7c0,0-11.9,73.7,2.5,71.4c0,0,15.2-19.3,14-45.5c0,0-8.7,11.6-16,3.6c0,0,18.6-7.5,8-57.4
		C891.8,649,892.6,638.8,889.7,629.3z"/>
	<path class="st2" d="M828.6,583.3c-9.7,44.1-22.1,28.8-22.1,28.8c-16.5-19.4-52.4-31-52.4-31c-25.4-6-33.7-25.9-33.7-25.9
		c-11.9,24,3.7,35.6,3.7,35.6c24.3,0.4,65.9,31.5,65.9,31.5c37.4,33.7,57.2,12.4,57.2,12.4C866,597.8,828.6,583.3,828.6,583.3z"/>
	<path class="st2" d="M706.5,532.8c0,0,20-10.1,24.1,20.9c0,0,34.6,29.8,79.2,30.8c0,0-4.6-26.7,3.4-22.6c0,0,15,3,39.5,36.2
		c0,0,20.8,22.5,44.6,2.1c0,0-15.9-51.3-98.2-81.4c0,0,8.9,46.8-7.3,36.3c0,0-6.3-20.1-31.3-22.6c0,0-61.2-21.7-68.4-46.6
		C691.8,486,683.3,524.9,706.5,532.8z"/>
	<path class="st2" d="M877.3,459.3c-15.6,11.1-18.1,21.7-18.1,21.7c-3.7,23.5,11.9,21,11.9,21c-0.2-23.4,17.4-26.7,17.4-26.7
		c16.6,8.9,1.6,28.5,1.6,28.5c-15.2,28.3-35.5,8.9-35.5,8.9c-11,21.9,10.8,33.8,10.8,33.8c19.6,9.1,31.6,25.5,31.6,25.5
		c28.5,5.3,14.3-65.9,14.3-65.9c-14.3,31-29.6,22.9-29.6,22.9c27.1-23.6,19-53.5,19-53.5c-13-47.8-30.2-32.8-30.2-32.8
		C859.4,451.5,877.3,459.3,877.3,459.3z"/>
	<path class="st2" d="M776.2,494.8c0,0-19.3,3.2-12.7,22.9c0,0,12.7,16.5,17.8-3.5c0,0,1.7-7.8,0-13.4c0,0,26,6.4,57.3,23.9
		c0,0,17.6-57.4-48.7-52.5c0,0-2.9,10,12,22C802.1,494.3,794.8,498.1,776.2,494.8z"/>
	<path class="st2" d="M703.3,442.2c0,0-12.7,8.7-4.3,28.6c0,0,1.7,38.9,44.8,22.5c0,0,32.5-25.1-1.6-41.7c0,0-21.6-5.1-20.6,18.2
		c0,0,4.3,12.1,20.2,5.4C741.7,475.2,707,504,703.3,442.2z"/>
	<path class="st2" d="M763.5,370.2c-1.8,19.4,18.4,10.7,18.4,10.7c19.3,0.8,12.5,15.2,12.5,15.2c-12.8,16.6-37.6-1.1-37.6-1.1
		c-3.7,8.4-0.7,14.1-0.7,14.1c17.9,36,64,13.3,64,13.3c20.1-12.7,28.5,0,28.5,0c7.6,35.7-7,30.2-7,30.2
		c-27.2-20.6-27.9,0.6-27.9,0.6c-5.6,9.2-41.7,2.9-41.7,2.9c-10.2,11.8-5.1,32.9-5.1,32.9c6,0,11.5-3.6,13.8-9.2
		c2-17,23.8-19.3,23.8-19.3c16.3-3.4,43.6,25.4,43.6,25.4c8.2-7.3,7.3-23,7.3-23c-3.6-20.3,5.1-29.6,5.1-29.6c6-6,4.2-14.8,4.2-14.8
		c3.7-36.7-64.6-62.7-64.6-62.7c0.2-12.6,23.5-14.8,23.5-14.8c1.3-16.7-26-18.2-26-18.2C760.1,331.3,763.5,370.2,763.5,370.2z"/>
	<path class="st2" d="M834.3,432.2c0,0-8.2-15.3-29.9,4.1c0,0-9.8,11-44.2-8c0,0-2.7,16.7,32.5,16.6
		C792.8,444.9,829.1,438,834.3,432.2z"/>
	<path class="st2" d="M855.4,821.1c23.5,8,57.1,5.6,57.1,5.6c38.9-2.9,30.8-38.3,30.8-38.3c7.3-4.6,5.5-24.2,5.5-24.2
		c-7.7-2.3-19,15.3-19,15.3c-20.6,23.8-30.3,12.4-30.3,12.4c32.9-40.8,35.9-68.5,35.9-68.5c7.8,9.5-5.3,39.3-5.3,39.3
		c33.2-25,4.6-79.9,4.6-79.9c5.3-20.1-9.9-30.5-9.9-30.5c-0.2,9.4-16.6,70-16.6,70C899.9,791.4,855.4,821.1,855.4,821.1z"/>
	<path class="st2" d="M994.2,672.2c0,0-14,9.7-17.4,19.1c0,0-14.3-0.5-13.8-33.7c0,0-9.5-52.8-26.7-58.4l-21.3,26.4
		c0,0,46.2,15.7,41.4,145.6c0,0,25.4,6.1,32.5-55.6c0.2-9.8,3.9-19.2,10.5-26.5C999.3,689,1004.2,673.4,994.2,672.2z"/>
	<path class="st2" d="M1019.5,725.7c0,0-17.4,13.6-25.3,54.6c0,0-6,5.8-8.7-1.9c0,0,19.2-39.5,13.4-58.1c0,0-9.3,45.5-27.2,63.7
		c0,0-8.4,38.4,5.1,38.7c0,0,34.5-11.2,37.9-45.7c0,0-3.7-15.1,3.4-23.9C1018,753.1,1030.1,736.1,1019.5,725.7z"/>
	<path class="st2" d="M905,936c0,0,41.2-44.8,3.4-92.6c0,0-27.7-26.2-69.3-1.9c0,0-64.4,28.4-120.1,42c0,0-19.4-1.6-43.6,17.2
		c-6.2,2.6-13.3,2.6-19.5,0c0,0,41.8,19.6,105.5-11.8c0,0,79.7-54.5,123.7-38.7c0,0,18.5,11.2,14.4,22.7c0,0-16-30.3-64.3-4.5
		c0,0-128.2,58.9-195.1,55.8c-66.9,3.1-195.1-55.8-195.1-55.8c-48.2-25.9-64.3,4.5-64.3,4.5c-4.2-11.5,14.4-22.7,14.4-22.7
		c44-15.7,123.7,38.7,123.7,38.7c63.7,31.5,105.5,11.8,105.5,11.8c-6.2,2.6-13.3,2.6-19.5,0c-24.3-18.8-43.6-17.2-43.6-17.2
		c-55.7-13.7-120.1-42-120.1-42c-41.5-24.3-69.3,1.9-69.3,1.9C333.8,891.3,375,936,375,936l17.6-15.7
		c-18.4-26.9-10.7-39.1-10.7-39.1c17.2-27.7,72.4,2.2,72.4,2.2C561,942.1,640,931.1,640,931.1s79,11.1,185.6-47.7
		c0,0,55.2-30,72.4-2.2c0,0,7.7,12.1-10.7,39.1L905,936z"/>
	<path class="st2" d="M708.6,1011.7c77.1-32.2,40.6-83.1,40.6-83.1C681.2,932,708.6,1011.7,708.6,1011.7z"/>
	<path class="st2" d="M652.8,971.1c28.5-11.9,15.1-30.7,15.1-30.7C642.6,941.6,652.8,971.1,652.8,971.1z"/>
	<path class="st2" d="M767,993c32-9.6,16.9-24.7,16.9-24.7C755.7,969.3,767,993,767,993z"/>
	<path class="st2" d="M712.4,829.9c-14,7.8-33.4-4.9-33.4-4.9c-20.9-19.4-39.1-16.8-39.1-16.8s-18.2-2.6-39.1,16.8
		c0,0-19.3,12.8-33.3,4.9c0,0-21.7,8.8-3.4,30.3c0,0,27.1-7.7,56.2,0c0,0,12.6,3.7,19.6,2.9c7.1,1,19.6-2.9,19.6-2.9
		c29-7.7,56.2,0,56.2,0C734.1,838.7,712.4,829.9,712.4,829.9z"/>
	<path class="st2" d="M772.6,957.9c7,15.3,11.6,1.2,11.6,1.2c-7-19.8,4.1-41,4.1-41C766.9,919.5,772.6,957.9,772.6,957.9z"/>
	<path class="st2" d="M679.9,867.8c-15.1,7.4-39.9,7.8-39.9,7.8s-24.9-0.4-39.9-7.8c0,0-25.9-10.1-40,3.9c0,0,34.6-2.1,51,9.1
		c0,0,19,8.7,28.9,7.3c9.9,1.4,28.9-7.3,28.9-7.3c16.4-11.2,51-9.1,51-9.1C705.8,857.7,679.9,867.8,679.9,867.8z"/>
	<path class="st2" d="M934.6,854.8c-11.2,37.1,17.4,35.7,17.4,35.7C970.5,864.6,934.6,854.8,934.6,854.8z"/>
	<path class="st2" d="M1062.4,1028.9c0,0-2-65.7-52.4-85c0,0-33.5-7.7-42.1,30.1C968,974.1,968.3,1008.7,1062.4,1028.9z"/>
	<path class="st2" d="M944.6,905.3c-24.7-2-14.7,19.4-14.7,19.4C942.5,920.1,944.6,905.3,944.6,905.3z"/>
	<path class="st2" d="M941.4,834.2c0,0-22.4-5-26.7,6.7C914.6,840.9,935.7,854.3,941.4,834.2z"/>
	<path class="st2" d="M870.2,794.3l-10-11.6c0,0-11.8,5.7-8.4,20C851.7,802.6,864.6,805.6,870.2,794.3z"/>
	<path class="st2" d="M969.9,934.8c0,0-13.3-2.2-17.2,9.9c0,0-6.1,6.3-23.2,8.8l15.1,13.8C944.6,967.4,975.2,948.9,969.9,934.8z"/>
	<path class="st2" d="M1079.8,1039.7l30.3,9c0,0,27.2-28.1,31.1-48.9l-26.7-18.5c-2.1,7.6-8.7,13-16.6,13.5
		C1098.1,994.8,1074.5,1004.9,1079.8,1039.7z"/>
	<path class="st2" d="M1068.6,969.2c0,0-7.5,11.9,4.5,24.8c0,0,35.1,3.6,30.1-26.6L1068.6,969.2z"/>
	<path class="st2" d="M726.9,439.4c15.2-4.5,7.2-20.9,7.2-20.9c-4.3-14.8-1.9-20.6-1.9-20.6C704.4,416.8,726.9,439.4,726.9,439.4z"
		/>
	<path class="st2" d="M716.1,393.3c0,0,6.7,8.4,20.1-11.4C736.3,381.9,728.3,366.9,716.1,393.3z"/>
	<path class="st2" d="M754.9,349c9-25.9,34.2-37.1,34.2-37.1c-34.3-26.4-46.6,3.1-46.6,3.1C739.8,348.3,754.9,349,754.9,349z"/>
	<path class="st2" d="M674.6,523.6c-26.2,17.4,27.9,45.5,27.9,45.5C709.8,553.4,674.6,523.6,674.6,523.6z"/>
	<path class="st3" d="M772,816.5c-9.8,0-19-5-24.3-13.3c2.3,19.6,20,33.6,39.6,31.3c19.6-2.3,33.6-20,31.3-39.6
		c-1.9-16.4-14.9-29.4-31.3-31.3c13.4,8.6,17.2,26.3,8.7,39.7C790.7,811.5,781.7,816.4,772,816.5z"/>
	<path class="st2" d="M946.8,416c0,0,26-16.5,34.1-40.4c0,0-40.8-11.9-83.8-13.5c0,0-25,18.4,0,53.8
		C897.1,416,914.3,444.1,946.8,416z"/>
	<path class="st2" d="M920.8,440.5c5.3,4.9,15.2,3,15.2,3c32.5-10.2,54.1-44.3,54.1-44.3c1.7-4.3-1.5-11.4-1.5-11.4
		C971.5,419,920.8,440.5,920.8,440.5z"/>
	<path class="st2" d="M1030.3,499.3c1.9-4.6-1.7-12.2-1.7-12.2c-19.2,33.6-76.4,56.7-76.4,56.7c5.9,5.3,17.1,3.2,17.1,3.2
		C1006,536,1030.3,499.3,1030.3,499.3z"/>
	<path class="st2" d="M1107.1,588.6c2.2-5.1-1.9-13.4-1.9-13.4c-22,36.7-87.4,62.2-87.4,62.2c6.8,5.8,19.5,3.5,19.5,3.5
		C1079.3,628.7,1107.1,588.6,1107.1,588.6z"/>
	<path class="st2" d="M1157.4,687.1c2.2-5.1-1.9-13.4-1.9-13.4c-22,36.7-87.4,62.2-87.4,62.2c6.8,5.8,19.5,3.5,19.5,3.5
		C1129.7,727.2,1157.4,687.1,1157.4,687.1z"/>
	<path class="st2" d="M920.8,462.7c-1.8,34.4,16.3,62,16.3,62c79.7,17.7,106.3-92.6,106.3-92.6l-28.1-36.7
		C970.8,467,920.8,462.7,920.8,462.7z"/>
	<path class="st2" d="M945.3,564.4c0.6,37.9,28.4,66,28.4,66c112.6,10.1,139.5-113.8,139.5-113.8l-42.4-37.1
		C1015.3,563.2,945.3,564.4,945.3,564.4z"/>
	<path class="st2" d="M1010,654.9c0.4,35.4,27.4,61.7,27.4,61.7c109.6,9.1,136.1-106.8,136.1-106.8l-41.3-34.5
		C1078,653.6,1010,654.9,1010,654.9z"/>
	<path class="st2" d="M1059.1,794.7c0,0,26.2,7.5,75.2-39.3l3.7-22.5c0,0-55.7,27.8-86.5,30.5
		C1051.6,763.5,1043.4,786.5,1059.1,794.7z"/>
	<path class="st2" d="M826.3,1021.1C755.6,1078.3,640,1069,640,1069s-115.6,9.4-186.3-47.9c0,0-19.8,15.3,11.9,31.5
		c0,0,52.4,30.7,174.4,31.8c121.9-1.2,174.4-31.8,174.4-31.8C846.2,1036.4,826.3,1021.1,826.3,1021.1z"/>
	<path class="st2" d="M1194.9,745.4c-6.5-5.8-11.7-12.9-15.2-20.9h-0.4c-3.5,8-8.7,15.1-15.2,20.9h-0.1c-6,3.7-11.2,8.5-15.4,14.1
		c-6.7,8.9-9.5,20.1-7.9,31c0,0-4.4-7.3-17.3-7.8h-4.1c0.5,0.8,0.9,1.7,1.2,2.6c1,2.5,1.3,5.3,0.8,8c0,0-1.9,13.1,4.9,22.4
		c-0.3-0.2-12.4-7.7-24.3-4.3c0,0-6,1.3-5.9-3.4c0-0.3,0.1-0.6,0.1-1l-0.3,1.2c-0.8,3.6-2.6,14.8,6.7,23.6
		c-0.6-0.3-23.5-14-41.8,25.8c0,0-4.4,7.9-21.2,14.1l-1.1,0.4v0.6l2,0.7c15.9,6.1,20.2,13.7,20.2,13.7
		c18.3,39.8,41.2,26.2,41.8,25.8c-11.2,10.7-6.3,24.8-6.3,24.8c-1-5.8,5.8-4.3,5.8-4.3c12,3.4,24-4.2,24.3-4.3
		c-6.9,9.3-4.9,22.4-4.9,22.4c1,5.4-1.9,10.7-1.9,10.7c16,1,21.4-7.8,21.4-7.8c-2.3,16,4.6,28,11.6,35.6c7.2-7,13.7-14.8,19.3-23.2
		c-1-1.2-2.1-2.2-3.3-3.2c0,0-19.8-11.2-16.7-32.4c0,0-3.8,6.2-15.3,5.6c1.3-2.4,1.8-5.1,1.4-7.7c0,0-1.4-9.4,3.6-16
		c-0.5,0.3-9,5.5-17.4,3.2c0,0-4.9-1.1-4.2,3.2c0,0-3.6-10.1,4.5-17.7c-0.4,0.3-16.9,10-30-18.5c0,0-3.4-6-16.4-10.6
		c13-4.5,16.4-10.6,16.4-10.6c13.1-28.5,29.6-18.8,30-18.5c-8-7.7-4.5-17.7-4.5-17.7c-0.7,4.2,4.2,3.2,4.2,3.2
		c8.4-2.4,16.9,2.9,17.4,3.2c-4.9-6.7-3.6-16-3.6-16c0.3-2.6-0.1-5.3-1.4-7.7c11.5-0.7,15.3,5.6,15.3,5.6
		c-3.2-21.2,16.7-32.4,16.7-32.4c4.8-4.2,8.5-9.4,11-15.2c2.5,5.8,6.3,11,11.1,15.2c0,0,19.8,11.2,16.7,32.4c0,0,2.6-4.3,10-5.4
		c0.6-9.7,1.1-19.1,1.3-28C1216.4,757.5,1194.9,745.4,1194.9,745.4z"/>
	<path class="st2" d="M1207.9,872.2L1207.9,872.2c-0.3-13.9-11.5-25-25.3-25.2h-0.3c-13.8,0.2-25,11.4-25.2,25.2l0,0v0.4l0,0
		c0.4,13.8,11.5,24.8,25.2,25.2h0.3c13.8-0.3,25-11.4,25.2-25.2l0,0v-0.2C1207.9,872.3,1207.9,872.3,1207.9,872.2z M1182.4,894.2
		c-12,0.8-22.4-8.3-23.2-20.2c-0.8-12,8.3-22.4,20.2-23.2c1-0.1,2-0.1,3,0c12,0,21.6,9.7,21.6,21.6l0,0
		C1204,884.4,1194.4,894,1182.4,894.2z"/>
	<path class="st2" d="M1182.7,856.1h-0.3c-8.9,0.2-16,7.3-16.3,16.2l0,0v0.4l0,0c0.3,8.8,7.4,15.9,16.3,16.2h0.3
		c8.8-0.2,16-7.3,16.3-16.2l0,0v-0.4l0,0C1198.7,863.4,1191.5,856.2,1182.7,856.1z"/>
	<path class="st2" d="M1204,826.9c2.4-16.6-13.1-25.1-13.1-25.1c-3.4-3.1-6.1-6.8-8.1-10.9h-0.5c-1.9,4.2-4.7,7.9-8.1,10.9
		c0,0-15.4,8.7-13.1,25.1c0,0-3-4.9-11.9-4.3c1,1.8,1.4,3.9,1.1,5.9c0,0-1.1,7.3,2.6,12.5c0,0-6.8-4.3-13.5-2.4c0,0-3.7,0.7-3.3-2.4
		c-0.2,0.8-2.3,8.1,3.5,13.7c-0.6-0.4-13.2-7.6-23.3,14.4c0,0-2.6,4.6-12.6,8.1v0.3c9.9,3.5,12.6,8.1,12.6,8.1
		c10,21.9,22.7,14.7,23.3,14.4c-3.6,3.6-4.9,8.9-3.5,13.7c-0.4-3.2,3.3-2.3,3.3-2.3c6.8,1.9,13.5-2.4,13.5-2.4
		c-3.8,5.2-2.6,12.5-2.6,12.5c0.3,2-0.1,4.1-1.1,5.9c9,0.5,11.9-4.3,11.9-4.3c-2.4,16.5,13.1,25.1,13.1,25.1
		c2.6,2.2,4.8,4.8,6.5,7.8c10.2-17,17.7-36.2,23.3-56.2c-12.4,11.8-32.1,11.3-43.9-1.1c-11.8-12.4-11.3-32.1,1.1-43.9
		c12.4-11.8,32.1-11.3,43.9,1.1c0,0,0,0,0.1,0.1l0,0c2.8,2.9,5,6.3,6.4,10.1c1.3-7.2,2.3-14.4,3.2-21.4c-0.8,0.3-1.7,0.8-2.5,1.3
		c3.8-5.2,2.6-12.5,2.6-12.5c-0.2-2,0.2-4.1,1.1-5.9C1206.9,822.1,1204,826.9,1204,826.9z"/>
	<path class="st2" d="M463.7,963.6c24.4-43.4-25-53-25-53c-94.3,119-350.9,167-350.9,167C337.6,1080.2,463.7,963.6,463.7,963.6z"/>
	<path class="st2" d="M841.3,910.7c0,0-49.4,9.5-25,53c0,0,126.1,116.7,376,114C1192.3,1077.6,935.6,1029.5,841.3,910.7z"/>
	<path class="st1" d="M1001.1,839.2c-1.8,0.1-20.2,0.8-23.9,7.8c-3.7,7-11.7,34-6.5,41.8c5.2,7.8,26.1,23.5,30,26.1
		c3.9,2.5,30.4-13,30.4-13l-15.6-62.7H1001.1z"/>
	<path class="st1" d="M279.6,845.2c-3.3-0.7-24.8-4.6-28.8,19c-4,23.6,10.6,59.7,14,60.5c3.5,0.8,32.7-17.1,33.2-19.6
		c0.4-2.5,0-60.6,0-60.6L279.6,845.2z"/>
	<path class="st1" d="M619.1,1000.7c-2.4-0.7-15.7,4.4-19.3,11.1c-3.6,6.7-18.2,7.9,5,17.2c23.1,9.3,75.4,4.9,75.4,4.9l-4.8-33.3
		L619.1,1000.7z"/>
</g>
</svg>
