<svg xmlns="http://www.w3.org/2000/svg" viewBox="0 0 35.38152 35.3815">
  <defs>
    <style>
      .cls-1 {
        fill: #212121;
      }

      .cls-2 {
        fill: #fcfcfc;
      }
    </style>
  </defs>
  <g id="Layer_2" data-name="Layer 2">
    <g id="ELEMENTS">
      <g>
        <path class="cls-1" d="M35.38152,17.6907A17.69076,17.69076,0,1,0,14.9266,35.1665V22.8045H10.4347V17.6907h4.4919V13.7932c0-4.4338,2.641-6.8828,6.682-6.8828a27.20637,27.20637,0,0,1,3.9601.3455v4.3536H23.3379a2.55675,2.55675,0,0,0-2.8829,2.7627v3.3185h4.9064l-.7844,5.1138H20.455v12.362A17.69508,17.69508,0,0,0,35.38152,17.6907Z"/>
        <path class="cls-2" d="M24.577,22.8045l.7844-5.1138H20.455V14.3722a2.55675,2.55675,0,0,1,2.8829-2.7627h2.2308V7.2559a27.20637,27.20637,0,0,0-3.9601-.3455c-4.041,0-6.682,2.449-6.682,6.8828v3.8975H10.4347v5.1138h4.4919v12.362a17.87681,17.87681,0,0,0,5.5284,0V22.8045Z"/>
      </g>
    </g>
  </g>
</svg>
