<svg xmlns="http://www.w3.org/2000/svg" viewBox="0 0 35.38152 35.3816">
  <defs>
    <style>
      .cls-1 {
        fill: #212121;
      }

      .cls-2 {
        fill: #fcfcfc;
      }
    </style>
  </defs>
  <g id="Layer_2" data-name="Layer 2">
    <g id="ELEMENTS">
      <g>
        <circle class="cls-1" cx="17.69073" cy="17.6908" r="17.69076"/>
        <g>
          <path class="cls-2" d="M23.1821,10.9983a1.21605,1.21605,0,1,0,1.2161,1.216A1.2161,1.2161,0,0,0,23.1821,10.9983Z"/>
          <path class="cls-2" d="M17.7759,12.5578a5.10815,5.10815,0,1,0,5.1082,5.1082A5.11388,5.11388,0,0,0,17.7759,12.5578Zm0,8.3803a3.2721,3.2721,0,1,1,3.272-3.2721A3.27582,3.27582,0,0,1,17.7759,20.9381Z"/>
          <path class="cls-2" d="M21.8313,28.0372H13.5499a6.23744,6.23744,0,0,1-6.23038-6.2304V13.5252A6.23732,6.23732,0,0,1,13.5499,7.2948h8.2814a6.23765,6.23765,0,0,1,6.2307,6.2304v8.2816A6.23778,6.23778,0,0,1,21.8313,28.0372ZM13.5499,9.2462a4.28359,4.28359,0,0,0-4.279,4.279v8.2816a4.28374,4.28374,0,0,0,4.279,4.2791h8.2814a4.28393,4.28393,0,0,0,4.27922-4.2791V13.5252a4.28378,4.28378,0,0,0-4.27922-4.279Z"/>
        </g>
      </g>
    </g>
  </g>
</svg>
