<svg xmlns="http://www.w3.org/2000/svg" viewBox="0 0 35.38152 35.3816">
  <defs>
    <style>
      .cls-1 {
        fill: #212121;
      }

      .cls-2 {
        fill: #fcfcfc;
      }
    </style>
  </defs>
  <g id="Layer_2" data-name="Layer 2">
    <g id="ELEMENTS">
      <g>
        <circle class="cls-1" cx="17.69073" cy="17.6908" r="17.69076"/>
        <path class="cls-2" d="M27.1621,15.1633a4.24811,4.24811,0,0,0-4.2481-4.2481H12.0514a4.24814,4.24814,0,0,0-4.2482,4.2481v5.055a4.248,4.248,0,0,0,4.2482,4.248H22.914a4.248,4.248,0,0,0,4.2481-4.248Zm-6.3883,2.9063-4.8712,2.4099c-.1909.1033-.8398-.035-.8398-.2521V15.2806c0-.22.6543-.358.8453-.2491l4.6628,2.5369C20.7664,17.6796,20.9716,17.9625,20.7738,18.0696Z"/>
      </g>
    </g>
  </g>
</svg>
